SplineFontDB: 3.2
FontName: ZainRo-Light
FullName: ZainRo Light
FamilyName: ZainRo Light
Weight: Light
Copyright: Copyright 2024 The Zain Project Authors (https://github.com/googlefonts/zain) and 2025 Lazar (https://bylazar.com)
Version: 1.51; ttfautohint (v1.8.4)
ItalicAngle: 0
UnderlinePosition: -100
UnderlineWidth: 50
Ascent: 800
Descent: 200
InvalidEm: 0
sfntRevision: 0x0001828f
LayerCount: 2
Layer: 0 1 "Back" 1
Layer: 1 1 "Fore" 0
XUID: [1021 736 -289526145 2398]
StyleMap: 0x0040
FSType: 0
OS2Version: 4
OS2_WeightWidthSlopeOnly: 0
OS2_UseTypoMetrics: 1
CreationTime: 1722724803
ModificationTime: 1760719607
PfmFamily: 81
TTFWeight: 300
TTFWidth: 5
LineGap: 0
VLineGap: 0
Panose: 0 0 9 0 0 0 0 0 0 0
OS2TypoAscent: 900
OS2TypoAOffset: 0
OS2TypoDescent: -500
OS2TypoDOffset: 0
OS2TypoLinegap: 0
OS2WinAscent: 881
OS2WinAOffset: 0
OS2WinDescent: 501
OS2WinDOffset: 0
HheadAscent: 900
HheadAOffset: 0
HheadDescent: -500
HheadDOffset: 0
OS2SubXSize: 650
OS2SubYSize: 600
OS2SubXOff: 0
OS2SubYOff: 75
OS2SupXSize: 650
OS2SupYSize: 600
OS2SupXOff: 0
OS2SupYOff: 350
OS2StrikeYSize: 45
OS2StrikeYPos: 267
OS2CapHeight: 556
OS2XHeight: 360
OS2Vendor: '1BOU'
OS2CodePages: 00000041.00000000
OS2UnicodeRanges: 800020af.d000204a.00000008.00000000
Lookup: 1 0 0 "'aalt' Access All Alternates lookup 0" { "'aalt' Access All Alternates lookup 0 subtable"  } ['aalt' ('DFLT' <'dflt' > 'arab' <'URD ' 'dflt' > 'latn' <'dflt' > ) ]
Lookup: 3 0 0 "'aalt' Access All Alternates lookup 1" { "'aalt' Access All Alternates lookup 1 subtable"  } ['aalt' ('DFLT' <'dflt' > 'arab' <'URD ' 'dflt' > 'latn' <'dflt' > ) ]
Lookup: 1 0 0 "Single Substitution lookup 2" { "Single Substitution lookup 2 subtable"  } []
Lookup: 1 0 0 "'sups' Superscript lookup 3" { "'sups' Superscript lookup 3 subtable" ("superior") } ['sups' ('DFLT' <'dflt' > 'arab' <'URD ' 'dflt' > 'latn' <'dflt' > ) ]

StartChar: .notdef
Encoding: 65536 -1 0
Width: 524
GlyphClass: 1
Flags: W
LayerCount: 2
Fore
SplineSet
31 545 m 1,0,-1
 492 545 l 1,1,-1
 492 -254 l 1,2,-1
 31 -254 l 1,3,-1
 31 545 l 1,0,-1
66 511 m 1,4,-1
 66 -220 l 1,5,-1
 458 -220 l 1,6,-1
 458 511 l 1,7,-1
 66 511 l 1,4,-1
232 22 m 2,8,-1
 232 59 l 2,9,10
 232 86 232 86 245.5 105 c 128,-1,11
 259 124 259 124 279 139.5 c 128,-1,12
 299 155 299 155 319 171 c 128,-1,13
 339 187 339 187 352.5 209 c 128,-1,14
 366 231 366 231 366 262 c 0,15,16
 366 309 366 309 337 335 c 128,-1,17
 308 361 308 361 257 361 c 0,18,19
 227 361 227 361 197.5 351.5 c 128,-1,20
 168 342 168 342 139 322 c 0,21,22
 133 316 133 316 128 316 c 0,23,24
 124 316 124 316 121 324 c 2,25,-1
 117 338 l 2,26,27
 113 352 113 352 121 360.5 c 128,-1,28
 129 369 129 369 146 378 c 0,29,30
 167 389 167 389 194.5 397 c 128,-1,31
 222 405 222 405 256 405 c 0,32,33
 330 405 330 405 371 367.5 c 128,-1,34
 412 330 412 330 412 262 c 0,35,36
 412 227 412 227 394.5 199.5 c 128,-1,37
 377 172 377 172 349 148 c 128,-1,38
 321 124 321 124 291 100 c 0,39,40
 280 90 280 90 276.5 81 c 128,-1,41
 273 72 273 72 273 55 c 2,42,-1
 273 22 l 2,43,44
 273 16 273 16 269 16 c 2,45,-1
 236 16 l 2,46,47
 232 16 232 16 232 22 c 2,8,-1
252 -114 m 256,48,49
 238 -114 238 -114 228.5 -103.5 c 128,-1,50
 219 -93 219 -93 219 -80 c 0,51,52
 219 -65 219 -65 228.5 -55 c 128,-1,53
 238 -45 238 -45 252 -45 c 256,54,55
 266 -45 266 -45 276 -55 c 128,-1,56
 286 -65 286 -65 286 -80 c 0,57,58
 286 -93 286 -93 276 -103.5 c 128,-1,59
 266 -114 266 -114 252 -114 c 256,48,49
EndSplineSet
EndChar

StartChar: exclam
Encoding: 33 33 3
Width: 141
GlyphClass: 1
Flags: W
LayerCount: 2
Fore
SplineSet
47 141 m 2,0,-1
 45 549 l 2,1,2
 45 556 45 556 50 556 c 2,3,-1
 55 556 l 2,4,5
 72 556 72 556 83.5 542 c 128,-1,6
 95 528 95 528 95 503 c 2,7,-1
 91 141 l 2,8,9
 91 135 91 135 87 135 c 2,10,-1
 52 135 l 2,11,12
 47 135 47 135 47 141 c 2,0,-1
70 69 m 0,13,14
 87 69 87 69 99 56.5 c 128,-1,15
 111 44 111 44 111 27 c 0,16,17
 111 9 111 9 99 -3.5 c 128,-1,18
 87 -16 87 -16 70 -16 c 0,19,20
 54 -16 54 -16 41.5 -3.5 c 128,-1,21
 29 9 29 9 29 27 c 0,22,23
 29 44 29 44 41.5 56.5 c 128,-1,24
 54 69 54 69 70 69 c 0,13,14
EndSplineSet
Substitution2: "'locl' Localized Forms in Arabic lookup 15 subtable" exclam.ar
EndChar

StartChar: quotedbl
Encoding: 34 34 4
Width: 218
GlyphClass: 1
Flags: W
LayerCount: 2
Fore
SplineSet
44 388 m 2,0,-1
 31 549 l 2,1,2
 31 556 31 556 36 556 c 2,3,-1
 43 556 l 2,4,5
 65 556 65 556 75.5 544 c 128,-1,6
 86 532 86 532 84 503 c 2,7,-1
 76 388 l 2,8,9
 76 382 76 382 71 382 c 2,10,-1
 49 382 l 2,11,12
 44 382 44 382 44 388 c 2,0,-1
143 388 m 2,13,-1
 130 549 l 2,14,15
 130 556 130 556 135 556 c 2,16,-1
 142 556 l 2,17,18
 164 556 164 556 174.5 544 c 128,-1,19
 185 532 185 532 183 503 c 2,20,-1
 175 388 l 2,21,22
 175 382 175 382 170 382 c 2,23,-1
 148 382 l 2,24,25
 143 382 143 382 143 388 c 2,13,-1
EndSplineSet
EndChar

StartChar: numbersign
Encoding: 35 35 5
Width: 529
GlyphClass: 1
Flags: W
LayerCount: 2
Fore
SplineSet
105 159 m 1,0,-1
 33 159 l 2,1,2
 27 159 27 159 28 165 c 2,3,-1
 36 198 l 2,4,5
 38 204 38 204 43 204 c 2,6,-1
 117 204 l 1,7,-1
 154 352 l 1,8,-1
 82 352 l 2,9,10
 76 352 76 352 77 358 c 2,11,-1
 85 391 l 2,12,13
 87 397 87 397 92 397 c 2,14,-1
 166 397 l 1,15,-1
 205 549 l 2,16,17
 207 556 207 556 210 556 c 2,18,-1
 219 556 l 2,19,20
 237 556 237 556 245 544.5 c 128,-1,21
 253 533 253 533 246 509 c 2,22,-1
 218 397 l 1,23,-1
 375 397 l 1,24,-1
 414 549 l 2,25,26
 416 556 416 556 419 556 c 2,27,-1
 428 556 l 2,28,29
 445 556 445 556 453 544.5 c 128,-1,30
 461 533 461 533 455 509 c 2,31,-1
 426 397 l 1,32,-1
 499 397 l 2,33,34
 504 397 504 397 504 391 c 2,35,-1
 495 358 l 2,36,37
 494 352 494 352 489 352 c 2,38,-1
 415 352 l 1,39,-1
 378 204 l 1,40,-1
 450 204 l 2,41,42
 457 204 457 204 455 198 c 2,43,-1
 448 165 l 2,44,45
 445 159 445 159 440 159 c 2,46,-1
 365 159 l 1,47,-1
 326 6 l 2,48,49
 326 0 326 0 321 0 c 2,50,-1
 280 0 l 2,51,52
 275 0 275 0 276 6 c 2,53,-1
 314 159 l 1,54,-1
 157 159 l 1,55,-1
 118 6 l 2,56,57
 117 0 117 0 113 0 c 2,58,-1
 72 0 l 2,59,60
 66 0 66 0 67 6 c 2,61,-1
 105 159 l 1,0,-1
169 204 m 1,62,-1
 326 204 l 1,63,-1
 363 352 l 1,64,-1
 207 352 l 1,65,-1
 169 204 l 1,62,-1
EndSplineSet
EndChar

StartChar: dollar
Encoding: 36 36 6
Width: 446
GlyphClass: 1
Flags: W
LayerCount: 2
Fore
SplineSet
208 36 m 1,0,-1
 208 268 l 1,1,2
 168 282 168 282 130.5 300 c 128,-1,3
 93 318 93 318 69.5 346.5 c 128,-1,4
 46 375 46 375 46 422 c 0,5,6
 46 479 46 479 90 519.5 c 128,-1,7
 134 560 134 560 208 566 c 1,8,-1
 208 616 l 2,9,10
 208 622 208 622 213 622 c 2,11,-1
 244 622 l 2,12,13
 249 622 249 622 249 616 c 2,14,-1
 249 566 l 1,15,16
 283 564 283 564 311 555.5 c 128,-1,17
 339 547 339 547 363 536 c 0,18,19
 382 526 382 526 392 515 c 128,-1,20
 402 504 402 504 398 489 c 2,21,-1
 394 474 l 2,22,23
 392 466 392 466 387 466 c 256,24,25
 382 466 382 466 374 472 c 0,26,27
 318 511 318 511 249 518 c 1,28,-1
 249 300 l 1,29,30
 289 287 289 287 325.5 270 c 128,-1,31
 362 253 362 253 385.5 226 c 128,-1,32
 409 199 409 199 409 155 c 0,33,34
 409 88 409 88 366.5 43.5 c 128,-1,35
 324 -1 324 -1 249 -9 c 1,36,-1
 249 -59 l 2,37,38
 249 -65 249 -65 244 -65 c 2,39,-1
 213 -65 l 2,40,41
 208 -65 208 -65 208 -59 c 2,42,-1
 208 -11 l 1,43,44
 146 -9 146 -9 106.5 12.5 c 128,-1,45
 67 34 67 34 48.5 61.5 c 128,-1,46
 30 89 30 89 30 108 c 256,47,48
 30 127 30 127 42 127 c 0,49,50
 50 127 50 127 57 117 c 0,51,52
 86 79 86 79 122.5 58 c 128,-1,53
 159 37 159 37 208 36 c 1,0,-1
208 315 m 1,54,-1
 208 519 l 1,55,56
 157 517 157 517 125.5 491 c 128,-1,57
 94 465 94 465 94 424 c 0,58,59
 94 379 94 379 128 355.5 c 128,-1,60
 162 332 162 332 208 315 c 1,54,-1
249 253 m 1,61,-1
 249 39 l 1,62,63
 301 47 301 47 331 75 c 128,-1,64
 361 103 361 103 361 146 c 0,65,66
 361 190 361 190 327.5 213 c 128,-1,67
 294 236 294 236 249 253 c 1,61,-1
EndSplineSet
EndChar

StartChar: percent
Encoding: 37 37 7
Width: 719
GlyphClass: 1
Flags: W
LayerCount: 2
Fore
SplineSet
166 223 m 256,0,1
 105 223 105 223 71.5 269 c 128,-1,2
 38 315 38 315 38 394 c 0,3,4
 38 472 38 472 72 519.5 c 128,-1,5
 106 567 106 567 166 567 c 256,6,7
 226 567 226 567 259.5 519.5 c 128,-1,8
 293 472 293 472 293 394 c 0,9,10
 293 315 293 315 260 269 c 128,-1,11
 227 223 227 223 166 223 c 256,0,1
187 0 m 2,12,13
 182 0 182 0 185 6 c 2,14,-1
 484 549 l 2,15,16
 488 556 488 556 491 556 c 2,17,-1
 497 556 l 2,18,19
 515 556 515 556 519 542 c 128,-1,20
 523 528 523 528 509 503 c 2,21,-1
 237 6 l 2,22,23
 234 0 234 0 229 0 c 2,24,-1
 187 0 l 2,12,13
166 261 m 0,25,26
 188 261 188 261 206.5 270.5 c 128,-1,27
 225 280 225 280 237 308.5 c 128,-1,28
 249 337 249 337 249 394 c 256,29,30
 249 451 249 451 237 480 c 128,-1,31
 225 509 225 509 206.5 518.5 c 128,-1,32
 188 528 188 528 166 528 c 0,33,34
 145 528 145 528 126 518.5 c 128,-1,35
 107 509 107 509 95 480 c 128,-1,36
 83 451 83 451 83 394 c 256,37,38
 83 337 83 337 95 308.5 c 128,-1,39
 107 280 107 280 126 270.5 c 128,-1,40
 145 261 145 261 166 261 c 0,25,26
555 -9 m 256,41,42
 494 -9 494 -9 460.5 37 c 128,-1,43
 427 83 427 83 427 162 c 0,44,45
 427 242 427 242 460.5 288.5 c 128,-1,46
 494 335 494 335 555 335 c 0,47,48
 615 335 615 335 648.5 288.5 c 128,-1,49
 682 242 682 242 682 162 c 0,50,51
 682 83 682 83 649 37 c 128,-1,52
 616 -9 616 -9 555 -9 c 256,41,42
555 29 m 0,53,54
 577 29 577 29 595.5 38.5 c 128,-1,55
 614 48 614 48 625.5 77 c 128,-1,56
 637 106 637 106 637 162 c 0,57,58
 637 219 637 219 625.5 248 c 128,-1,59
 614 277 614 277 595.5 287 c 128,-1,60
 577 297 577 297 555 297 c 0,61,62
 534 297 534 297 514.5 287 c 128,-1,63
 495 277 495 277 483 248 c 128,-1,64
 471 219 471 219 471 162 c 0,65,66
 471 106 471 106 483 77 c 128,-1,67
 495 48 495 48 514.5 38.5 c 128,-1,68
 534 29 534 29 555 29 c 0,53,54
EndSplineSet
EndChar

StartChar: ampersand
Encoding: 38 38 8
Width: 518
GlyphClass: 1
Flags: W
LayerCount: 2
Fore
SplineSet
360 159 m 1,0,-1
 431 280 l 2,1,2
 437 290 437 290 447 290 c 2,3,-1
 478 290 l 2,4,5
 486 290 486 290 482 283 c 2,6,-1
 389 127 l 1,7,-1
 491 8 l 2,8,9
 495 0 495 0 488 0 c 2,10,-1
 449 0 l 2,11,12
 437 0 437 0 429 9 c 2,13,-1
 364 86 l 1,14,15
 350 67 350 67 328 45.5 c 128,-1,16
 306 24 306 24 275 9 c 128,-1,17
 244 -6 244 -6 202 -6 c 0,18,19
 133 -6 133 -6 88.5 36.5 c 128,-1,20
 44 79 44 79 44 146 c 0,21,22
 44 205 44 205 80 242 c 128,-1,23
 116 279 116 279 169 309 c 1,24,25
 136 345 136 345 115.5 377 c 128,-1,26
 95 409 95 409 95 446 c 0,27,28
 95 501 95 501 133.5 534 c 128,-1,29
 172 567 172 567 234 567 c 0,30,31
 290 567 290 567 327.5 536 c 128,-1,32
 365 505 365 505 365 453 c 0,33,34
 365 409 365 409 332.5 370.5 c 128,-1,35
 300 332 300 332 238 298 c 1,36,-1
 360 159 l 1,0,-1
212 331 m 1,37,38
 263 358 263 358 289 386.5 c 128,-1,39
 315 415 315 415 315 452 c 0,40,41
 315 482 315 482 292 502 c 128,-1,42
 269 522 269 522 234 522 c 0,43,44
 194 522 194 522 169.5 502 c 128,-1,45
 145 482 145 482 145 449 c 0,46,47
 145 421 145 421 164 391.5 c 128,-1,48
 183 362 183 362 212 331 c 1,37,38
335 117 m 1,49,-1
 197 276 l 1,50,51
 151 251 151 251 122 223 c 128,-1,52
 93 195 93 195 93 151 c 0,53,54
 93 99 93 99 123 69.5 c 128,-1,55
 153 40 153 40 205 40 c 0,56,57
 252 40 252 40 281 62.5 c 128,-1,58
 310 85 310 85 335 117 c 1,49,-1
EndSplineSet
EndChar

StartChar: quotesingle
Encoding: 39 39 9
Width: 118
GlyphClass: 1
Flags: W
LayerCount: 2
Fore
SplineSet
44 388 m 2,0,-1
 31 549 l 2,1,2
 31 556 31 556 36 556 c 2,3,-1
 43 556 l 2,4,5
 65 556 65 556 75.5 544 c 128,-1,6
 86 532 86 532 84 503 c 2,7,-1
 76 388 l 2,8,9
 76 382 76 382 71 382 c 2,10,-1
 49 382 l 2,11,12
 44 382 44 382 44 388 c 2,0,-1
EndSplineSet
EndChar

StartChar: parenleft
Encoding: 40 40 10
Width: 314
GlyphClass: 1
Flags: W
LayerCount: 2
Fore
SplineSet
62 277 m 0,0,1
 61 386 61 386 87.5 470 c 128,-1,2
 114 554 114 554 158.5 611.5 c 128,-1,3
 203 669 203 669 255 697 c 0,4,5
 264 700 264 700 264 691 c 0,6,7
 264 668 264 668 259.5 658 c 128,-1,8
 255 648 255 648 241 634 c 0,9,10
 177 573 177 573 144 484 c 128,-1,11
 111 395 111 395 112 277 c 0,12,13
 111 159 111 159 144 70 c 128,-1,14
 177 -19 177 -19 241 -81 c 0,15,16
 255 -96 255 -96 259.5 -105.5 c 128,-1,17
 264 -115 264 -115 264 -138 c 0,18,19
 264 -148 264 -148 255 -144 c 0,20,21
 203 -116 203 -116 158.5 -58.5 c 128,-1,22
 114 -1 114 -1 87.5 83.5 c 128,-1,23
 61 168 61 168 62 277 c 0,0,1
EndSplineSet
PairPos2: "'kern' Horizontal Kerning lookup 2 per glyph data 1" uni0632 dx=4 dy=0 dh=4 dv=0 dx=0 dy=0 dh=0 dv=0
PairPos2: "'kern' Horizontal Kerning lookup 2 per glyph data 1" uni0631 dx=4 dy=0 dh=4 dv=0 dx=0 dy=0 dh=0 dv=0
EndChar

StartChar: parenright
Encoding: 41 41 11
Width: 314
GlyphClass: 1
Flags: W
LayerCount: 2
Fore
SplineSet
255 277 m 0,0,1
 256 168 256 168 229 83.5 c 128,-1,2
 202 -1 202 -1 158 -58.5 c 128,-1,3
 114 -116 114 -116 61 -144 c 0,4,5
 52 -148 52 -148 52 -138 c 0,6,7
 52 -115 52 -115 56.5 -105.5 c 128,-1,8
 61 -96 61 -96 76 -81 c 0,9,10
 140 -19 140 -19 173 70 c 128,-1,11
 206 159 206 159 204 277 c 0,12,13
 206 395 206 395 173 484 c 128,-1,14
 140 573 140 573 76 634 c 0,15,16
 63 648 63 648 57.5 658 c 128,-1,17
 52 668 52 668 52 691 c 0,18,19
 52 700 52 700 61 697 c 0,20,21
 114 669 114 669 158 611.5 c 128,-1,22
 202 554 202 554 229 470 c 128,-1,23
 256 386 256 386 255 277 c 0,0,1
EndSplineSet
PairPos2: "'kern' Horizontal Kerning lookup 2 per glyph data 1" uni0698 dx=-8 dy=0 dh=-8 dv=0 dx=0 dy=0 dh=0 dv=0
PairPos2: "'kern' Horizontal Kerning lookup 2 per glyph data 1" uni0695 dx=-8 dy=0 dh=-8 dv=0 dx=0 dy=0 dh=0 dv=0
PairPos2: "'kern' Horizontal Kerning lookup 2 per glyph data 1" uni0694 dx=-8 dy=0 dh=-8 dv=0 dx=0 dy=0 dh=0 dv=0
PairPos2: "'kern' Horizontal Kerning lookup 2 per glyph data 1" uni0691 dx=-1 dy=0 dh=-1 dv=0 dx=0 dy=0 dh=0 dv=0
PairPos2: "'kern' Horizontal Kerning lookup 2 per glyph data 1" uni0671 dx=26 dy=0 dh=26 dv=0 dx=0 dy=0 dh=0 dv=0
PairPos2: "'kern' Horizontal Kerning lookup 2 per glyph data 1" uni0632 dx=-8 dy=0 dh=-8 dv=0 dx=0 dy=0 dh=0 dv=0
PairPos2: "'kern' Horizontal Kerning lookup 2 per glyph data 1" uni0631 dx=-8 dy=0 dh=-8 dv=0 dx=0 dy=0 dh=0 dv=0
PairPos2: "'kern' Horizontal Kerning lookup 2 per glyph data 1" uni0625 dx=17 dy=0 dh=17 dv=0 dx=0 dy=0 dh=0 dv=0
PairPos2: "'kern' Horizontal Kerning lookup 2 per glyph data 1" uni0623 dx=43 dy=0 dh=43 dv=0 dx=0 dy=0 dh=0 dv=0
PairPos2: "'kern' Horizontal Kerning lookup 2 per glyph data 1" uni0622 dx=43 dy=0 dh=43 dv=0 dx=0 dy=0 dh=0 dv=0
EndChar

StartChar: asterisk
Encoding: 42 42 12
Width: 341
GlyphClass: 1
Flags: W
LayerCount: 2
Fore
SplineSet
133 388 m 1,0,-1
 39 414 l 2,1,2
 33 417 33 417 35 423 c 2,3,-1
 50 466 l 2,4,5
 51 469 51 469 56 469 c 2,6,-1
 146 432 l 1,7,-1
 139 533 l 2,8,9
 139 538 139 538 144 538 c 2,10,-1
 197 538 l 2,11,12
 203 538 203 538 203 533 c 2,13,-1
 196 432 l 1,14,-1
 285 469 l 2,15,16
 291 469 291 469 292 466 c 2,17,-1
 306 423 l 2,18,19
 308 417 308 417 303 414 c 2,20,-1
 209 388 l 1,21,-1
 270 310 l 2,22,23
 273 307 273 307 268 303 c 2,24,-1
 230 280 l 2,25,26
 225 277 225 277 223 281 c 2,27,-1
 169 368 l 1,28,-1
 119 281 l 2,29,30
 117 277 117 277 112 280 c 2,31,-1
 74 303 l 2,32,33
 69 306 69 306 72 310 c 2,34,-1
 133 388 l 1,0,-1
EndSplineSet
EndChar

StartChar: plus
Encoding: 43 43 13
Width: 384
GlyphClass: 1
Flags: W
LayerCount: 2
Fore
SplineSet
169 249 m 1,0,-1
 46 249 l 2,1,2
 41 249 41 249 41 255 c 2,3,-1
 41 289 l 2,4,5
 41 295 41 295 46 295 c 2,6,-1
 169 295 l 1,7,-1
 169 437 l 2,8,9
 169 443 169 443 174 443 c 0,10,11
 215 443 215 443 215 397 c 2,12,-1
 215 295 l 1,13,-1
 339 295 l 2,14,15
 344 295 344 295 344 289 c 2,16,-1
 344 255 l 2,17,18
 344 249 344 249 339 249 c 2,19,-1
 215 249 l 1,20,-1
 215 107 l 2,21,22
 215 101 215 101 210 101 c 2,23,-1
 174 101 l 2,24,25
 169 101 169 101 169 107 c 2,26,-1
 169 249 l 1,0,-1
EndSplineSet
EndChar

StartChar: comma
Encoding: 44 44 14
Width: 137
GlyphClass: 1
Flags: W
LayerCount: 2
Fore
SplineSet
74 68 m 256,0,1
 91 68 91 68 103 56 c 128,-1,2
 115 44 115 44 115 24 c 0,3,4
 115 -11 115 -11 94 -45 c 128,-1,5
 73 -79 73 -79 46 -101 c 0,6,7
 45 -104 45 -104 41 -100 c 0,8,9
 31 -90 31 -90 35.5 -79 c 128,-1,10
 40 -68 40 -68 44 -61 c 0,11,12
 49 -53 49 -53 56.5 -42 c 128,-1,13
 64 -31 64 -31 68 -16 c 1,14,15
 51 -13 51 -13 42 0 c 128,-1,16
 33 13 33 13 33 26 c 0,17,18
 33 43 33 43 45 55.5 c 128,-1,19
 57 68 57 68 74 68 c 256,0,1
EndSplineSet
EndChar

StartChar: hyphen
Encoding: 45 45 15
Width: 305
GlyphClass: 1
Flags: W
LayerCount: 2
Fore
SplineSet
46 180 m 2,0,1
 41 180 41 180 41 186 c 2,2,-1
 41 221 l 2,3,4
 41 227 41 227 46 227 c 2,5,-1
 260 227 l 2,6,7
 265 227 265 227 265 221 c 2,8,-1
 265 186 l 2,9,10
 265 180 265 180 260 180 c 2,11,-1
 46 180 l 2,0,1
EndSplineSet
EndChar

StartChar: period
Encoding: 46 46 16
Width: 137
GlyphClass: 1
Flags: W
LayerCount: 2
Fore
SplineSet
68 69 m 0,0,1
 85 69 85 69 97 56.5 c 128,-1,2
 109 44 109 44 109 27 c 0,3,4
 109 9 109 9 97 -3.5 c 128,-1,5
 85 -16 85 -16 68 -16 c 0,6,7
 52 -16 52 -16 39.5 -3.5 c 128,-1,8
 27 9 27 9 27 27 c 0,9,10
 27 44 27 44 39.5 56.5 c 128,-1,11
 52 69 52 69 68 69 c 0,0,1
EndSplineSet
PairPos2: "'kern' Horizontal Kerning lookup 1 subtable" quotedblright dx=0 dy=0 dh=-1 dv=0 dx=0 dy=0 dh=0 dv=0
PairPos2: "'kern' Horizontal Kerning lookup 1 subtable" quoteright dx=0 dy=0 dh=-1 dv=0 dx=0 dy=0 dh=0 dv=0
EndChar

StartChar: slash
Encoding: 47 47 17
Width: 271
GlyphClass: 1
Flags: W
LayerCount: 2
Fore
SplineSet
5 0 m 2,0,1
 0 0 0 0 3 6 c 2,2,-1
 233 549 l 2,3,4
 237 556 237 556 240 556 c 2,5,-1
 246 556 l 2,6,7
 264 556 264 556 269.5 542 c 128,-1,8
 275 528 275 528 265 503 c 2,9,-1
 55 6 l 2,10,11
 52 0 52 0 47 0 c 2,12,-1
 5 0 l 2,0,1
EndSplineSet
EndChar

StartChar: zero
Encoding: 48 48 18
Width: 498
GlyphClass: 1
Flags: W
LayerCount: 2
Fore
SplineSet
250 -10 m 0,0,1
 55 -10 55 -10 55 277 c 0,2,3
 55 420 55 420 105.5 493.5 c 128,-1,4
 156 567 156 567 250 567 c 0,5,6
 343 567 343 567 393.5 493.5 c 128,-1,7
 444 420 444 420 444 277 c 0,8,9
 444 135 444 135 394.5 62.5 c 128,-1,10
 345 -10 345 -10 250 -10 c 0,0,1
250 37 m 256,11,12
 292 37 292 37 324.5 58.5 c 128,-1,13
 357 80 357 80 375.5 132.5 c 128,-1,14
 394 185 394 185 394 277 c 0,15,16
 394 370 394 370 376 423 c 128,-1,17
 358 476 358 476 325.5 497.5 c 128,-1,18
 293 519 293 519 250 519 c 256,19,20
 207 519 207 519 174 497.5 c 128,-1,21
 141 476 141 476 123 423 c 128,-1,22
 105 370 105 370 105 277 c 0,23,24
 105 185 105 185 123.5 132.5 c 128,-1,25
 142 80 142 80 175 58.5 c 128,-1,26
 208 37 208 37 250 37 c 256,11,12
EndSplineSet
Substitution2: "'lnum' Lining Figures lookup 7 subtable" zero.tab
Substitution2: "'aalt' Access All Alternates lookup 0 subtable" zero.tab
EndChar

StartChar: one
Encoding: 49 49 19
Width: 340
GlyphClass: 1
Flags: W
LayerCount: 2
Fore
SplineSet
152 47 m 1,0,-1
 152 509 l 1,1,-1
 48 471 l 2,2,3
 46 470 46 470 44.5 471.5 c 128,-1,4
 43 473 43 473 43 474 c 2,5,-1
 43 513 l 2,6,7
 43 523 43 523 50 524 c 2,8,-1
 113 547 l 2,9,10
 127 552 127 552 137.5 554 c 128,-1,11
 148 556 148 556 159 556 c 2,12,-1
 167 556 l 2,13,14
 203 556 203 556 203 508 c 2,15,-1
 203 47 l 1,16,-1
 284 47 l 2,17,18
 314 47 314 47 314 18 c 2,19,-1
 314 7 l 2,20,21
 314 0 314 0 305 0 c 2,22,-1
 46 0 l 2,23,24
 41 0 41 0 41 6 c 2,25,-1
 41 41 l 2,26,27
 41 47 41 47 46 47 c 2,28,-1
 152 47 l 1,0,-1
EndSplineSet
Substitution2: "'lnum' Lining Figures lookup 7 subtable" one.tab
Substitution2: "'sups' Superscript lookup 3 subtable" onesuperior
AlternateSubs2: "'aalt' Access All Alternates lookup 1 subtable" onesuperior one.tab
EndChar

StartChar: two
Encoding: 50 50 20
Width: 436
GlyphClass: 1
Flags: W
LayerCount: 2
Fore
SplineSet
95 47 m 1,0,-1
 351 47 l 2,1,2
 381 47 381 47 381 18 c 2,3,-1
 381 7 l 2,4,5
 381 0 381 0 374 0 c 2,6,-1
 47 0 l 2,7,8
 42 0 42 0 42 6 c 0,9,10
 42 65 42 65 62.5 106.5 c 128,-1,11
 83 148 83 148 116 177.5 c 128,-1,12
 149 207 149 207 185.5 231 c 128,-1,13
 222 255 222 255 255 279.5 c 128,-1,14
 288 304 288 304 308.5 334.5 c 128,-1,15
 329 365 329 365 329 409 c 0,16,17
 329 462 329 462 297.5 490.5 c 128,-1,18
 266 519 266 519 208 519 c 0,19,20
 174 519 174 519 141 507 c 128,-1,21
 108 495 108 495 76 472 c 0,22,23
 69 466 69 466 63 466 c 0,24,25
 59 466 59 466 56 474 c 2,26,-1
 51 489 l 2,27,28
 47 504 47 504 55.5 514 c 128,-1,29
 64 524 64 524 83 533 c 0,30,31
 107 547 107 547 139 557 c 128,-1,32
 171 567 171 567 211 567 c 0,33,34
 292 567 292 567 335.5 525 c 128,-1,35
 379 483 379 483 379 409 c 0,36,37
 379 362 379 362 359 327 c 128,-1,38
 339 292 339 292 308 265 c 128,-1,39
 277 238 277 238 241.5 214.5 c 128,-1,40
 206 191 206 191 173.5 167 c 128,-1,41
 141 143 141 143 119.5 114 c 128,-1,42
 98 85 98 85 95 47 c 1,0,-1
EndSplineSet
Substitution2: "'lnum' Lining Figures lookup 7 subtable" two.tab
Substitution2: "'sups' Superscript lookup 3 subtable" twosuperior
AlternateSubs2: "'aalt' Access All Alternates lookup 1 subtable" twosuperior two.tab
EndChar

StartChar: three
Encoding: 51 51 21
Width: 434
GlyphClass: 1
Flags: W
LayerCount: 2
Fore
SplineSet
276 291 m 1,0,1
 296 288 296 288 322.5 273.5 c 128,-1,2
 349 259 349 259 368.5 229 c 128,-1,3
 388 199 388 199 388 151 c 0,4,5
 388 80 388 80 337.5 35 c 128,-1,6
 287 -10 287 -10 205 -10 c 0,7,8
 146 -10 146 -10 107 10.5 c 128,-1,9
 68 31 68 31 48.5 58 c 128,-1,10
 29 85 29 85 29 106 c 0,11,12
 29 113 29 113 32 119 c 128,-1,13
 35 125 35 125 41 125 c 0,14,15
 48 125 48 125 55 115 c 0,16,17
 109 37 109 37 201 37 c 0,18,19
 263 37 263 37 300 69 c 128,-1,20
 337 101 337 101 337 151 c 0,21,22
 337 196 337 196 315.5 222 c 128,-1,23
 294 248 294 248 261 259 c 128,-1,24
 228 270 228 270 192 270 c 2,25,-1
 140 270 l 2,26,27
 110 270 110 270 110 298 c 2,28,-1
 110 308 l 2,29,30
 110 316 110 316 118 316 c 2,31,-1
 206 316 l 2,32,33
 260 316 260 316 291 341.5 c 128,-1,34
 322 367 322 367 322 419 c 0,35,36
 322 458 322 458 304.5 480 c 128,-1,37
 287 502 287 502 259 510.5 c 128,-1,38
 231 519 231 519 199 519 c 0,39,40
 161 519 161 519 130 507 c 128,-1,41
 99 495 99 495 67 472 c 0,42,43
 58 466 58 466 54 466 c 256,44,45
 50 466 50 466 47 474 c 2,46,-1
 42 489 l 2,47,48
 38 504 38 504 47 513.5 c 128,-1,49
 56 523 56 523 74 533 c 0,50,51
 94 544 94 544 127 555.5 c 128,-1,52
 160 567 160 567 199 567 c 0,53,54
 279 567 279 567 325.5 528.5 c 128,-1,55
 372 490 372 490 372 423 c 0,56,57
 372 380 372 380 350 344.5 c 128,-1,58
 328 309 328 309 276 291 c 1,0,1
EndSplineSet
Substitution2: "'lnum' Lining Figures lookup 7 subtable" three.tab
Substitution2: "'sups' Superscript lookup 3 subtable" threesuperior
AlternateSubs2: "'aalt' Access All Alternates lookup 1 subtable" threesuperior three.tab
EndChar

StartChar: four
Encoding: 52 52 22
Width: 433
GlyphClass: 1
Flags: W
LayerCount: 2
Fore
SplineSet
281 139 m 1,0,-1
 24 139 l 2,1,2
 19 139 19 139 19 145 c 2,3,-1
 19 171 l 2,4,5
 19 181 19 181 20.5 186.5 c 128,-1,6
 22 192 22 192 29 202 c 2,7,-1
 259 539 l 2,8,9
 264 547 264 547 270.5 551.5 c 128,-1,10
 277 556 277 556 286 556 c 2,11,-1
 300 556 l 2,12,13
 312 556 312 556 322 548.5 c 128,-1,14
 332 541 332 541 332 518 c 2,15,-1
 332 186 l 1,16,-1
 376 186 l 2,17,18
 406 186 406 186 406 157 c 2,19,-1
 406 146 l 2,20,21
 406 139 406 139 398 139 c 2,22,-1
 332 139 l 1,23,-1
 332 6 l 2,24,25
 332 0 332 0 327 0 c 2,26,-1
 286 0 l 2,27,28
 281 0 281 0 281 6 c 2,29,-1
 281 139 l 1,0,-1
70 186 m 1,30,-1
 281 186 l 1,31,-1
 281 498 l 1,32,-1
 70 186 l 1,30,-1
EndSplineSet
Substitution2: "'lnum' Lining Figures lookup 7 subtable" four.tab
Substitution2: "'aalt' Access All Alternates lookup 0 subtable" four.tab
EndChar

StartChar: five
Encoding: 53 53 23
Width: 439
GlyphClass: 1
Flags: W
LayerCount: 2
Fore
SplineSet
112 508 m 1,0,-1
 112 329 l 1,1,2
 132 334 132 334 157 339 c 128,-1,3
 182 344 182 344 216 344 c 0,4,5
 298 344 298 344 345 298 c 128,-1,6
 392 252 392 252 392 172 c 0,7,8
 392 119 392 119 368 77.5 c 128,-1,9
 344 36 344 36 302 13 c 128,-1,10
 260 -10 260 -10 205 -10 c 256,11,12
 150 -10 150 -10 111.5 9.5 c 128,-1,13
 73 29 73 29 53.5 56 c 128,-1,14
 34 83 34 83 34 106 c 0,15,16
 34 114 34 114 37.5 119.5 c 128,-1,17
 41 125 41 125 47 125 c 256,18,19
 53 125 53 125 60 115 c 0,20,21
 88 75 88 75 123.5 56 c 128,-1,22
 159 37 159 37 201 37 c 0,23,24
 266 37 266 37 303.5 73.5 c 128,-1,25
 341 110 341 110 341 168 c 0,26,27
 341 298 341 298 214 298 c 0,28,29
 175 298 175 298 138.5 289.5 c 128,-1,30
 102 281 102 281 72 270 c 0,31,32
 62 266 62 266 62 276 c 2,33,-1
 62 549 l 2,34,35
 62 556 62 556 67 556 c 2,36,-1
 329 556 l 2,37,38
 359 556 359 556 359 527 c 2,39,-1
 359 516 l 2,40,41
 359 508 359 508 351 508 c 2,42,-1
 112 508 l 1,0,-1
EndSplineSet
Substitution2: "'lnum' Lining Figures lookup 7 subtable" five.tab
Substitution2: "'aalt' Access All Alternates lookup 0 subtable" five.tab
EndChar

StartChar: six
Encoding: 54 54 24
Width: 449
GlyphClass: 1
Flags: W
LayerCount: 2
Fore
SplineSet
162 328 m 1,0,1
 176 336 176 336 196 342 c 128,-1,2
 216 348 216 348 243 348 c 0,3,4
 290 348 290 348 327.5 325.5 c 128,-1,5
 365 303 365 303 387 263.5 c 128,-1,6
 409 224 409 224 409 174 c 0,7,8
 409 84 409 84 357 37 c 128,-1,9
 305 -10 305 -10 228 -10 c 0,10,11
 176 -10 176 -10 135.5 12 c 128,-1,12
 95 34 95 34 71.5 74 c 128,-1,13
 48 114 48 114 48 167 c 0,14,15
 48 218 48 218 67 259 c 128,-1,16
 86 300 86 300 109 340 c 2,17,-1
 241 558 l 2,18,19
 247 567 247 567 253 567 c 0,20,21
 270 567 270 567 276 547.5 c 128,-1,22
 282 528 282 528 264 497 c 2,23,-1
 162 328 l 1,0,1
229 37 m 0,24,25
 291 37 291 37 324.5 74 c 128,-1,26
 358 111 358 111 358 169 c 0,27,28
 358 226 358 226 324.5 263.5 c 128,-1,29
 291 301 291 301 229 301 c 0,30,31
 171 301 171 301 134.5 264.5 c 128,-1,32
 98 228 98 228 98 169 c 0,33,34
 98 111 98 111 132 74 c 128,-1,35
 166 37 166 37 229 37 c 0,24,25
EndSplineSet
Substitution2: "'lnum' Lining Figures lookup 7 subtable" six.tab
Substitution2: "'aalt' Access All Alternates lookup 0 subtable" six.tab
EndChar

StartChar: seven
Encoding: 55 55 25
Width: 427
GlyphClass: 1
Flags: W
LayerCount: 2
Fore
SplineSet
330 508 m 1,0,-1
 36 508 l 2,1,2
 31 508 31 508 31 514 c 2,3,-1
 31 549 l 2,4,5
 31 556 31 556 36 556 c 2,6,-1
 352 556 l 2,7,8
 382 556 382 556 382 527 c 2,9,-1
 382 518 l 2,10,11
 382 507 382 507 379.5 498.5 c 128,-1,12
 377 490 377 490 372 478 c 2,13,-1
 155 11 l 2,14,15
 150 0 150 0 139 0 c 2,16,-1
 100 0 l 2,17,18
 94 0 94 0 96 6 c 2,19,-1
 330 508 l 1,0,-1
EndSplineSet
Substitution2: "'lnum' Lining Figures lookup 7 subtable" seven.tab
Substitution2: "'aalt' Access All Alternates lookup 0 subtable" seven.tab
EndChar

StartChar: eight
Encoding: 56 56 26
Width: 446
GlyphClass: 1
Flags: W
LayerCount: 2
Fore
SplineSet
151 297 m 1,0,1
 114 312 114 312 87 342 c 128,-1,2
 60 372 60 372 60 424 c 0,3,4
 60 469 60 469 82.5 501 c 128,-1,5
 105 533 105 533 142 550 c 128,-1,6
 179 567 179 567 223 567 c 256,7,8
 267 567 267 567 303.5 550 c 128,-1,9
 340 533 340 533 362.5 501 c 128,-1,10
 385 469 385 469 385 424 c 0,11,12
 385 372 385 372 358 342 c 128,-1,13
 331 312 331 312 294 297 c 1,14,15
 349 278 349 278 376.5 239.5 c 128,-1,16
 404 201 404 201 404 153 c 0,17,18
 404 80 404 80 355 34.5 c 128,-1,19
 306 -11 306 -11 223 -11 c 256,20,21
 140 -11 140 -11 90.5 34.5 c 128,-1,22
 41 80 41 80 41 153 c 0,23,24
 41 201 41 201 69 239.5 c 128,-1,25
 97 278 97 278 151 297 c 1,0,1
108 418 m 0,26,27
 108 377 108 377 140 348 c 128,-1,28
 172 319 172 319 223 319 c 0,29,30
 273 319 273 319 305 348 c 128,-1,31
 337 377 337 377 337 418 c 0,32,33
 337 469 337 469 303 494 c 128,-1,34
 269 519 269 519 223 519 c 256,35,36
 177 519 177 519 142.5 494 c 128,-1,37
 108 469 108 469 108 418 c 0,26,27
92 153 m 0,38,39
 92 98 92 98 127.5 67 c 128,-1,40
 163 36 163 36 223 36 c 0,41,42
 282 36 282 36 318 67 c 128,-1,43
 354 98 354 98 354 153 c 0,44,45
 354 192 354 192 335 219 c 128,-1,46
 316 246 316 246 286.5 260 c 128,-1,47
 257 274 257 274 223 274 c 256,48,49
 189 274 189 274 159 260 c 128,-1,50
 129 246 129 246 110.5 219 c 128,-1,51
 92 192 92 192 92 153 c 0,38,39
EndSplineSet
Substitution2: "'lnum' Lining Figures lookup 7 subtable" eight.tab
Substitution2: "'aalt' Access All Alternates lookup 0 subtable" eight.tab
EndChar

StartChar: nine
Encoding: 57 57 27
Width: 449
GlyphClass: 1
Flags: W
LayerCount: 2
Fore
SplineSet
289 232 m 1,0,1
 275 222 275 222 256 215.5 c 128,-1,2
 237 209 237 209 212 209 c 0,3,4
 165 209 165 209 126 230.5 c 128,-1,5
 87 252 87 252 64 291.5 c 128,-1,6
 41 331 41 331 41 383 c 0,7,8
 41 443 41 443 66 484 c 128,-1,9
 91 525 91 525 132.5 546 c 128,-1,10
 174 567 174 567 225 567 c 0,11,12
 277 567 277 567 316.5 545 c 128,-1,13
 356 523 356 523 379 483 c 128,-1,14
 402 443 402 443 402 389 c 0,15,16
 402 339 402 339 383 298 c 128,-1,17
 364 257 364 257 340 217 c 2,18,-1
 209 -1 l 2,19,20
 205 -10 205 -10 196 -10 c 0,21,22
 177 -10 177 -10 173.5 11.5 c 128,-1,23
 170 33 170 33 185 58 c 2,24,-1
 289 232 l 1,0,1
220 256 m 0,25,26
 279 256 279 256 314.5 292.5 c 128,-1,27
 350 329 350 329 350 388 c 0,28,29
 350 445 350 445 318 482 c 128,-1,30
 286 519 286 519 224 519 c 256,31,32
 162 519 162 519 127 482 c 128,-1,33
 92 445 92 445 92 388 c 0,34,35
 92 327 92 327 126 291.5 c 128,-1,36
 160 256 160 256 220 256 c 0,25,26
EndSplineSet
Substitution2: "'lnum' Lining Figures lookup 7 subtable" nine.tab
Substitution2: "'aalt' Access All Alternates lookup 0 subtable" nine.tab
EndChar

StartChar: colon
Encoding: 58 58 28
Width: 157
GlyphClass: 1
Flags: W
LayerCount: 2
Fore
SplineSet
78 289 m 0,0,1
 95 289 95 289 107 276.5 c 128,-1,2
 119 264 119 264 119 247 c 0,3,4
 119 229 119 229 107 216.5 c 128,-1,5
 95 204 95 204 78 204 c 0,6,7
 62 204 62 204 49.5 216.5 c 128,-1,8
 37 229 37 229 37 247 c 0,9,10
 37 264 37 264 49.5 276.5 c 128,-1,11
 62 289 62 289 78 289 c 0,0,1
78 69 m 0,12,13
 95 69 95 69 107 56.5 c 128,-1,14
 119 44 119 44 119 27 c 0,15,16
 119 9 119 9 107 -3.5 c 128,-1,17
 95 -16 95 -16 78 -16 c 0,18,19
 62 -16 62 -16 49.5 -3.5 c 128,-1,20
 37 9 37 9 37 27 c 0,21,22
 37 44 37 44 49.5 56.5 c 128,-1,23
 62 69 62 69 78 69 c 0,12,13
EndSplineSet
EndChar

StartChar: semicolon
Encoding: 59 59 29
Width: 157
GlyphClass: 1
Flags: W
LayerCount: 2
Fore
SplineSet
84 204 m 256,0,1
 67 204 67 204 55 216.5 c 128,-1,2
 43 229 43 229 43 246 c 256,3,4
 43 263 43 263 55 275.5 c 128,-1,5
 67 288 67 288 84 288 c 256,6,7
 101 288 101 288 113 275.5 c 128,-1,8
 125 263 125 263 125 246 c 256,9,10
 125 229 125 229 113 216.5 c 128,-1,11
 101 204 101 204 84 204 c 256,0,1
84 68 m 256,12,13
 101 68 101 68 113 56 c 128,-1,14
 125 44 125 44 125 24 c 0,15,16
 125 -11 125 -11 104 -45 c 128,-1,17
 83 -79 83 -79 56 -101 c 0,18,19
 55 -104 55 -104 51 -100 c 0,20,21
 41 -90 41 -90 45.5 -79 c 128,-1,22
 50 -68 50 -68 54 -61 c 0,23,24
 59 -53 59 -53 66.5 -42 c 128,-1,25
 74 -31 74 -31 78 -16 c 1,26,27
 61 -13 61 -13 52 0 c 128,-1,28
 43 13 43 13 43 26 c 0,29,30
 43 43 43 43 55 55.5 c 128,-1,31
 67 68 67 68 84 68 c 256,12,13
EndSplineSet
EndChar

StartChar: less
Encoding: 60 60 30
Width: 449
GlyphClass: 1
Flags: W
LayerCount: 2
Fore
SplineSet
110 272 m 1,0,-1
 364 169 l 2,1,2
 383 162 383 162 391.5 147.5 c 128,-1,3
 400 133 400 133 400 115 c 2,4,-1
 400 108 l 2,5,6
 400 99 400 99 394 102 c 2,7,-1
 46 246 l 2,8,9
 41 249 41 249 41 254 c 2,10,-1
 41 287 l 2,11,12
 41 293 41 293 46 295 c 2,13,-1
 394 438 l 2,14,15
 400 440 400 440 400 433 c 2,16,-1
 400 398 l 2,17,18
 400 386 400 386 387 381 c 2,19,-1
 110 272 l 1,0,-1
EndSplineSet
EndChar

StartChar: equal
Encoding: 61 61 31
Width: 384
GlyphClass: 1
Flags: W
LayerCount: 2
Fore
SplineSet
46 333 m 2,0,1
 41 333 41 333 41 339 c 2,2,-1
 41 374 l 2,3,4
 41 379 41 379 46 379 c 2,5,-1
 305 379 l 2,6,7
 324 379 324 379 334 369 c 128,-1,8
 344 359 344 359 344 344 c 2,9,-1
 344 339 l 2,10,11
 344 333 344 333 339 333 c 2,12,-1
 46 333 l 2,0,1
46 159 m 2,13,14
 41 159 41 159 41 165 c 2,15,-1
 41 200 l 2,16,17
 41 206 41 206 46 206 c 2,18,-1
 305 206 l 2,19,20
 324 206 324 206 334 195.5 c 128,-1,21
 344 185 344 185 344 170 c 2,22,-1
 344 165 l 2,23,24
 344 159 344 159 339 159 c 2,25,-1
 46 159 l 2,13,14
EndSplineSet
EndChar

StartChar: greater
Encoding: 62 62 32
Width: 449
GlyphClass: 1
Flags: W
LayerCount: 2
Fore
SplineSet
338 272 m 1,0,-1
 62 381 l 2,1,2
 48 386 48 386 48 398 c 2,3,-1
 48 433 l 2,4,5
 48 440 48 440 55 438 c 2,6,-1
 403 295 l 2,7,8
 408 293 408 293 408 287 c 2,9,-1
 408 254 l 2,10,11
 408 249 408 249 403 246 c 2,12,-1
 55 102 l 2,13,14
 48 99 48 99 48 108 c 2,15,-1
 48 115 l 2,16,17
 48 133 48 133 56.5 147.5 c 128,-1,18
 65 162 65 162 84 169 c 2,19,-1
 338 272 l 1,0,-1
EndSplineSet
EndChar

StartChar: question
Encoding: 63 63 33
Width: 388
GlyphClass: 1
Flags: W
LayerCount: 2
Fore
SplineSet
152 141 m 2,0,-1
 152 183 l 2,1,2
 152 213 152 213 167 234 c 128,-1,3
 182 255 182 255 204.5 272 c 128,-1,4
 227 289 227 289 249 307.5 c 128,-1,5
 271 326 271 326 286 350 c 128,-1,6
 301 374 301 374 301 409 c 0,7,8
 301 460 301 460 269 489 c 128,-1,9
 237 518 237 518 180 518 c 0,10,11
 112 518 112 518 49 474 c 0,12,13
 41 469 41 469 36 469 c 0,14,15
 32 469 32 469 29 477 c 2,16,-1
 24 493 l 2,17,18
 20 508 20 508 28.5 517.5 c 128,-1,19
 37 527 37 527 56 537 c 0,20,21
 80 549 80 549 110.5 558 c 128,-1,22
 141 567 141 567 179 567 c 0,23,24
 262 567 262 567 307 525.5 c 128,-1,25
 352 484 352 484 352 409 c 0,26,27
 352 370 352 370 332.5 339 c 128,-1,28
 313 308 313 308 282 281.5 c 128,-1,29
 251 255 251 255 218 228 c 0,30,31
 205 218 205 218 201.5 207.5 c 128,-1,32
 198 197 198 197 198 179 c 2,33,-1
 198 141 l 2,34,35
 198 135 198 135 193 135 c 2,36,-1
 157 135 l 2,37,38
 152 135 152 135 152 141 c 2,0,-1
174 69 m 0,39,40
 191 69 191 69 203 56.5 c 128,-1,41
 215 44 215 44 215 27 c 0,42,43
 215 9 215 9 203 -3.5 c 128,-1,44
 191 -16 191 -16 174 -16 c 0,45,46
 158 -16 158 -16 145.5 -3.5 c 128,-1,47
 133 9 133 9 133 27 c 0,48,49
 133 44 133 44 145.5 56.5 c 128,-1,50
 158 69 158 69 174 69 c 0,39,40
EndSplineSet
EndChar

StartChar: at
Encoding: 64 64 34
Width: 771
GlyphClass: 1
Flags: W
LayerCount: 2
Fore
SplineSet
487 108 m 1,0,1
 471 81 471 81 436.5 59 c 128,-1,2
 402 37 402 37 355 37 c 0,3,4
 313 37 313 37 277.5 59 c 128,-1,5
 242 81 242 81 221 121 c 128,-1,6
 200 161 200 161 200 214 c 0,7,8
 200 270 200 270 225 315 c 128,-1,9
 250 360 250 360 293.5 386.5 c 128,-1,10
 337 413 337 413 391 413 c 0,11,12
 430 413 430 413 460.5 397.5 c 128,-1,13
 491 382 491 382 509 354 c 1,14,15
 514 404 514 404 551 404 c 2,16,-1
 560 404 l 2,17,18
 565 404 565 404 565 399 c 2,19,-1
 543 162 l 2,20,21
 542 148 542 148 541 138 c 128,-1,22
 540 128 540 128 540 119 c 0,23,24
 540 103 540 103 549.5 93 c 128,-1,25
 559 83 559 83 574 83 c 0,26,27
 616 83 616 83 644 127.5 c 128,-1,28
 672 172 672 172 672 275 c 0,29,30
 672 354 672 354 636.5 409.5 c 128,-1,31
 601 465 601 465 539.5 494 c 128,-1,32
 478 523 478 523 400 523 c 0,33,34
 311 523 311 523 243 483.5 c 128,-1,35
 175 444 175 444 137.5 375.5 c 128,-1,36
 100 307 100 307 100 221 c 0,37,38
 100 129 100 129 138.5 61.5 c 128,-1,39
 177 -6 177 -6 244.5 -42 c 128,-1,40
 312 -78 312 -78 400 -78 c 0,41,42
 453 -78 453 -78 494.5 -67.5 c 128,-1,43
 536 -57 536 -57 564.5 -42.5 c 128,-1,44
 593 -28 593 -28 607 -17 c 0,45,46
 612 -13 612 -13 615.5 -11 c 128,-1,47
 619 -9 619 -9 623 -9 c 0,48,49
 631 -9 631 -9 631 -21 c 0,50,51
 631 -36 631 -36 601.5 -60.5 c 128,-1,52
 572 -85 572 -85 518.5 -104.5 c 128,-1,53
 465 -124 465 -124 394 -124 c 0,54,55
 294 -124 294 -124 215.5 -81 c 128,-1,56
 137 -38 137 -38 92.5 40 c 128,-1,57
 48 118 48 118 48 224 c 0,58,59
 48 295 48 295 74.5 357.5 c 128,-1,60
 101 420 101 420 148 467.5 c 128,-1,61
 195 515 195 515 258.5 541.5 c 128,-1,62
 322 568 322 568 397 568 c 0,63,64
 489 568 489 568 563 533 c 128,-1,65
 637 498 637 498 680.5 433 c 128,-1,66
 724 368 724 368 724 277 c 0,67,68
 724 168 724 168 681.5 103 c 128,-1,69
 639 38 639 38 564 38 c 0,70,71
 532 38 532 38 510.5 59 c 128,-1,72
 489 80 489 80 487 108 c 1,0,1
359 85 m 0,73,74
 426 85 426 85 464 128 c 128,-1,75
 502 171 502 171 502 246 c 0,76,77
 502 302 502 302 472 334 c 128,-1,78
 442 366 442 366 389 366 c 0,79,80
 328 366 328 366 289.5 322 c 128,-1,81
 251 278 251 278 251 207 c 0,82,83
 251 150 251 150 280.5 117.5 c 128,-1,84
 310 85 310 85 359 85 c 0,73,74
EndSplineSet
EndChar

StartChar: A
Encoding: 65 65 35
Width: 498
GlyphClass: 1
Flags: W
LayerCount: 2
Fore
SplineSet
126 169 m 1,0,-1
 69 12 l 2,1,2
 66 5 66 5 64 2.5 c 128,-1,3
 62 0 62 0 54 0 c 2,4,-1
 17 0 l 2,5,6
 10 0 10 0 13 7 c 2,7,-1
 224 549 l 2,8,9
 228 556 228 556 233 556 c 2,10,-1
 238 556 l 2,11,12
 258 556 258 556 269.5 548.5 c 128,-1,13
 281 541 281 541 288 521 c 2,14,-1
 487 7 l 2,15,16
 490 0 490 0 483 0 c 2,17,-1
 444 0 l 2,18,19
 437 0 437 0 434 2.5 c 128,-1,20
 431 5 431 5 429 12 c 2,21,-1
 370 169 l 1,22,-1
 126 169 l 1,0,-1
144 216 m 1,23,-1
 352 216 l 1,24,-1
 248 493 l 1,25,-1
 144 216 l 1,23,-1
EndSplineSet
Substitution2: "Single Substitution lookup 2 subtable" ordfeminine
EndChar

StartChar: B
Encoding: 66 66 36
Width: 486
GlyphClass: 1
Flags: W
LayerCount: 2
Fore
SplineSet
338 295 m 1,0,1
 385 286 385 286 418 249 c 128,-1,2
 451 212 451 212 451 157 c 0,3,4
 451 85 451 85 405.5 42.5 c 128,-1,5
 360 0 360 0 278 0 c 2,6,-1
 78 0 l 2,7,8
 73 0 73 0 73 6 c 2,9,-1
 73 549 l 2,10,11
 73 556 73 556 78 556 c 2,12,-1
 263 556 l 2,13,14
 339 556 339 556 382 520 c 128,-1,15
 425 484 425 484 425 419 c 0,16,17
 425 367 425 367 400 338 c 128,-1,18
 375 309 375 309 338 295 c 1,0,1
123 317 m 1,19,-1
 276 317 l 2,20,21
 323 317 323 317 349.5 343 c 128,-1,22
 376 369 376 369 376 418 c 0,23,24
 376 462 376 462 347.5 485 c 128,-1,25
 319 508 319 508 267 508 c 2,26,-1
 123 508 l 1,27,-1
 123 317 l 1,19,-1
123 47 m 1,28,-1
 272 47 l 2,29,30
 303 47 303 47 332 55 c 128,-1,31
 361 63 361 63 380 87.5 c 128,-1,32
 399 112 399 112 399 161 c 0,33,34
 399 208 399 208 368.5 239.5 c 128,-1,35
 338 271 338 271 273 271 c 2,36,-1
 123 271 l 1,37,-1
 123 47 l 1,28,-1
EndSplineSet
EndChar

StartChar: C
Encoding: 67 67 37
Width: 513
GlyphClass: 1
Flags: W
LayerCount: 2
Fore
SplineSet
300 -11 m 0,0,1
 228 -11 228 -11 173 23 c 128,-1,2
 118 57 118 57 87.5 122 c 128,-1,3
 57 187 57 187 57 278 c 0,4,5
 57 368 57 368 89 432.5 c 128,-1,6
 121 497 121 497 178 532 c 128,-1,7
 235 567 235 567 310 567 c 0,8,9
 352 567 352 567 384 557.5 c 128,-1,10
 416 548 416 548 444 534 c 0,11,12
 462 526 462 526 472 515 c 128,-1,13
 482 504 482 504 478 489 c 2,14,-1
 474 473 l 2,15,16
 472 464 472 464 466 464 c 0,17,18
 465 464 465 464 454 471 c 0,19,20
 423 494 423 494 386.5 506.5 c 128,-1,21
 350 519 350 519 309 519 c 0,22,23
 215 519 215 519 160.5 454.5 c 128,-1,24
 106 390 106 390 106 276 c 0,25,26
 106 163 106 163 159 99.5 c 128,-1,27
 212 36 212 36 306 36 c 0,28,29
 364 36 364 36 401.5 58.5 c 128,-1,30
 439 81 439 81 464 115 c 0,31,32
 470 125 470 125 476 125 c 0,33,34
 483 125 483 125 486 120 c 128,-1,35
 489 115 489 115 489 109 c 0,36,37
 489 97 489 97 479 77 c 128,-1,38
 469 57 469 57 446.5 37 c 128,-1,39
 424 17 424 17 388 3 c 128,-1,40
 352 -11 352 -11 300 -11 c 0,0,1
EndSplineSet
EndChar

StartChar: D
Encoding: 68 68 38
Width: 553
GlyphClass: 1
Flags: W
LayerCount: 2
Fore
SplineSet
78 0 m 2,0,1
 73 0 73 0 73 6 c 2,2,-1
 73 549 l 2,3,4
 73 556 73 556 78 556 c 2,5,-1
 227 556 l 2,6,7
 359 556 359 556 427.5 486 c 128,-1,8
 496 416 496 416 496 286 c 0,9,10
 496 187 496 187 461.5 123.5 c 128,-1,11
 427 60 427 60 365 30 c 128,-1,12
 303 0 303 0 220 0 c 2,13,-1
 78 0 l 2,0,1
123 47 m 1,14,-1
 226 47 l 2,15,16
 445 47 445 47 445 284 c 0,17,18
 445 408 445 408 388.5 458 c 128,-1,19
 332 508 332 508 221 508 c 2,20,-1
 123 508 l 1,21,-1
 123 47 l 1,14,-1
EndSplineSet
EndChar

StartChar: E
Encoding: 69 69 39
Width: 404
GlyphClass: 1
Flags: W
LayerCount: 2
Fore
SplineSet
124 47 m 1,0,-1
 342 47 l 2,1,2
 372 47 372 47 372 18 c 2,3,-1
 372 7 l 2,4,5
 372 0 372 0 364 0 c 2,6,-1
 78 0 l 2,7,8
 73 0 73 0 73 6 c 2,9,-1
 73 549 l 2,10,11
 73 556 73 556 78 556 c 2,12,-1
 332 556 l 2,13,14
 362 556 362 556 362 527 c 2,15,-1
 362 516 l 2,16,17
 362 509 362 509 354 509 c 2,18,-1
 124 509 l 1,19,-1
 124 298 l 1,20,-1
 314 298 l 2,21,22
 344 298 344 298 344 269 c 2,23,-1
 344 257 l 2,24,25
 344 251 344 251 336 251 c 2,26,-1
 124 251 l 1,27,-1
 124 47 l 1,0,-1
EndSplineSet
EndChar

StartChar: F
Encoding: 70 70 40
Width: 389
GlyphClass: 1
Flags: W
LayerCount: 2
Fore
SplineSet
123 251 m 1,0,-1
 123 6 l 2,1,2
 123 0 123 0 118 0 c 2,3,-1
 78 0 l 2,4,5
 73 0 73 0 73 6 c 2,6,-1
 73 549 l 2,7,8
 73 556 73 556 78 556 c 2,9,-1
 332 556 l 2,10,11
 362 556 362 556 362 527 c 2,12,-1
 362 516 l 2,13,14
 362 508 362 508 354 508 c 2,15,-1
 123 508 l 1,16,-1
 123 298 l 1,17,-1
 314 298 l 2,18,19
 344 298 344 298 344 270 c 2,20,-1
 344 258 l 2,21,22
 344 251 344 251 336 251 c 2,23,-1
 123 251 l 1,0,-1
EndSplineSet
EndChar

StartChar: G
Encoding: 71 71 41
Width: 564
GlyphClass: 1
Flags: W
LayerCount: 2
Fore
SplineSet
459 96 m 1,0,-1
 459 238 l 1,1,-1
 328 238 l 2,2,3
 298 238 298 238 298 267 c 2,4,-1
 298 277 l 2,5,6
 298 284 298 284 305 284 c 2,7,-1
 504 284 l 2,8,9
 509 284 509 284 509 278 c 2,10,-1
 509 105 l 2,11,12
 509 92 509 92 506.5 85.5 c 128,-1,13
 504 79 504 79 493 68 c 0,14,15
 460 34 460 34 410.5 11.5 c 128,-1,16
 361 -11 361 -11 305 -11 c 0,17,18
 231 -11 231 -11 175 25 c 128,-1,19
 119 61 119 61 88 126 c 128,-1,20
 57 191 57 191 57 278 c 0,21,22
 57 366 57 366 88 430.5 c 128,-1,23
 119 495 119 495 176 531 c 128,-1,24
 233 567 233 567 310 567 c 0,25,26
 356 567 356 567 391 557.5 c 128,-1,27
 426 548 426 548 454 534 c 0,28,29
 472 526 472 526 482 515 c 128,-1,30
 492 504 492 504 488 489 c 2,31,-1
 484 473 l 2,32,33
 482 464 482 464 476 464 c 0,34,35
 473 464 473 464 464 471 c 0,36,37
 433 494 433 494 393.5 506.5 c 128,-1,38
 354 519 354 519 310 519 c 0,39,40
 213 519 213 519 159.5 456 c 128,-1,41
 106 393 106 393 106 276 c 0,42,43
 106 163 106 163 159 99.5 c 128,-1,44
 212 36 212 36 306 36 c 0,45,46
 345 36 345 36 384 49 c 128,-1,47
 423 62 423 62 459 96 c 1,0,-1
EndSplineSet
EndChar

StartChar: H
Encoding: 72 72 42
Width: 522
GlyphClass: 1
Flags: W
LayerCount: 2
Fore
SplineSet
123 252 m 1,0,-1
 123 6 l 2,1,2
 123 0 123 0 118 0 c 2,3,-1
 78 0 l 2,4,5
 73 0 73 0 73 6 c 2,6,-1
 73 549 l 2,7,8
 73 556 73 556 78 556 c 2,9,-1
 83 556 l 2,10,11
 100 556 100 556 111.5 542 c 128,-1,12
 123 528 123 528 123 503 c 2,13,-1
 123 298 l 1,14,-1
 400 298 l 1,15,-1
 400 549 l 2,16,17
 400 556 400 556 405 556 c 2,18,-1
 409 556 l 2,19,20
 427 556 427 556 438.5 542 c 128,-1,21
 450 528 450 528 450 503 c 2,22,-1
 450 6 l 2,23,24
 450 0 450 0 445 0 c 2,25,-1
 405 0 l 2,26,27
 400 0 400 0 400 6 c 2,28,-1
 400 252 l 1,29,-1
 123 252 l 1,0,-1
EndSplineSet
EndChar

StartChar: I
Encoding: 73 73 43
Width: 196
GlyphClass: 1
Flags: W
LayerCount: 2
Fore
SplineSet
78 0 m 2,0,1
 73 0 73 0 73 6 c 2,2,-1
 73 549 l 2,3,4
 73 556 73 556 78 556 c 2,5,-1
 82 556 l 2,6,7
 100 556 100 556 112 542 c 128,-1,8
 124 528 124 528 124 504 c 2,9,-1
 124 6 l 2,10,11
 124 0 124 0 119 0 c 2,12,-1
 78 0 l 2,0,1
EndSplineSet
EndChar

StartChar: J
Encoding: 74 74 44
Width: 280
GlyphClass: 1
Flags: W
LayerCount: 2
Fore
SplineSet
8 75 m 0,0,1
 8 87 8 87 16 87 c 0,2,3
 20 87 20 87 24 82 c 0,4,5
 43 57 43 57 60.5 46 c 128,-1,6
 78 35 78 35 99 35 c 0,7,8
 130 35 130 35 145 54 c 128,-1,9
 160 73 160 73 160 96 c 2,10,-1
 160 549 l 2,11,12
 160 556 160 556 165 556 c 2,13,-1
 169 556 l 2,14,15
 187 556 187 556 198.5 542 c 128,-1,16
 210 528 210 528 210 503 c 2,17,-1
 210 94 l 2,18,19
 210 51 210 51 184 20.5 c 128,-1,20
 158 -10 158 -10 104 -10 c 0,21,22
 63 -10 63 -10 35.5 16 c 128,-1,23
 8 42 8 42 8 75 c 0,0,1
EndSplineSet
EndChar

StartChar: K
Encoding: 75 75 45
Width: 473
GlyphClass: 1
Flags: W
LayerCount: 2
Fore
SplineSet
123 178 m 1,0,-1
 123 6 l 2,1,2
 123 0 123 0 118 0 c 2,3,-1
 78 0 l 2,4,5
 73 0 73 0 73 6 c 2,6,-1
 73 549 l 2,7,8
 73 556 73 556 78 556 c 2,9,-1
 83 556 l 2,10,11
 100 556 100 556 111.5 542 c 128,-1,12
 123 528 123 528 123 503 c 2,13,-1
 123 245 l 1,14,-1
 379 547 l 2,15,16
 384 552 384 552 387 554 c 128,-1,17
 390 556 390 556 397 556 c 2,18,-1
 435 556 l 2,19,20
 439 556 439 556 439.5 553 c 128,-1,21
 440 550 440 550 438 548 c 2,22,-1
 254 331 l 1,23,-1
 458 8 l 2,24,25
 462 0 462 0 453 0 c 2,26,-1
 414 0 l 2,27,28
 407 0 407 0 404 2 c 128,-1,29
 401 4 401 4 397 10 c 2,30,-1
 220 291 l 1,31,-1
 123 178 l 1,0,-1
EndSplineSet
EndChar

StartChar: L
Encoding: 76 76 46
Width: 362
GlyphClass: 1
Flags: W
LayerCount: 2
Fore
SplineSet
123 47 m 1,0,-1
 311 47 l 2,1,2
 341 47 341 47 341 18 c 2,3,-1
 341 7 l 2,4,5
 341 0 341 0 333 0 c 2,6,-1
 78 0 l 2,7,8
 73 0 73 0 73 6 c 2,9,-1
 73 549 l 2,10,11
 73 556 73 556 78 556 c 2,12,-1
 83 556 l 2,13,14
 100 556 100 556 111.5 542 c 128,-1,15
 123 528 123 528 123 503 c 2,16,-1
 123 47 l 1,0,-1
EndSplineSet
EndChar

StartChar: M
Encoding: 77 77 47
Width: 604
GlyphClass: 1
Flags: W
LayerCount: 2
Fore
SplineSet
301 65 m 1,0,-1
 471 549 l 2,1,2
 473 556 473 556 478 556 c 2,3,-1
 481 556 l 2,4,5
 499 556 499 556 511 543.5 c 128,-1,6
 523 531 523 531 524 508 c 2,7,-1
 552 6 l 2,8,9
 552 0 552 0 547 0 c 2,10,-1
 506 0 l 2,11,12
 501 0 501 0 501 6 c 2,13,-1
 478 434 l 1,14,-1
 326 7 l 2,15,16
 323 0 323 0 316 0 c 2,17,-1
 281 0 l 2,18,19
 277 0 277 0 274 7 c 2,20,-1
 126 427 l 1,21,-1
 103 6 l 2,22,23
 103 0 103 0 98 0 c 2,24,-1
 58 0 l 2,25,26
 53 0 53 0 53 6 c 2,27,-1
 82 549 l 2,28,29
 82 556 82 556 88 556 c 2,30,-1
 91 556 l 2,31,32
 117 556 117 556 127 546 c 128,-1,33
 137 536 137 536 144 516 c 2,34,-1
 301 65 l 1,0,-1
EndSplineSet
EndChar

StartChar: N
Encoding: 78 78 48
Width: 522
GlyphClass: 1
Flags: W
LayerCount: 2
Fore
SplineSet
400 89 m 1,0,-1
 400 549 l 2,1,2
 400 556 400 556 405 556 c 2,3,-1
 410 556 l 2,4,5
 428 556 428 556 439 542 c 128,-1,6
 450 528 450 528 450 504 c 2,7,-1
 450 6 l 2,8,9
 450 0 450 0 445 0 c 2,10,-1
 411 0 l 2,11,12
 397 0 397 0 389 13 c 2,13,-1
 124 445 l 1,14,-1
 124 6 l 2,15,16
 124 0 124 0 119 0 c 2,17,-1
 78 0 l 2,18,19
 73 0 73 0 73 6 c 2,20,-1
 73 549 l 2,21,22
 73 556 73 556 78 556 c 2,23,-1
 82 556 l 2,24,25
 108 556 108 556 118 545.5 c 128,-1,26
 128 535 128 535 139 515 c 2,27,-1
 400 89 l 1,0,-1
EndSplineSet
EndChar

StartChar: O
Encoding: 79 79 49
Width: 597
GlyphClass: 1
Flags: W
LayerCount: 2
Fore
SplineSet
299 -10 m 0,0,1
 184 -10 184 -10 120.5 67.5 c 128,-1,2
 57 145 57 145 57 277 c 0,3,4
 57 365 57 365 86 430 c 128,-1,5
 115 495 115 495 169.5 531 c 128,-1,6
 224 567 224 567 299 567 c 0,7,8
 375 567 375 567 428.5 531 c 128,-1,9
 482 495 482 495 511 430 c 128,-1,10
 540 365 540 365 540 277 c 0,11,12
 540 145 540 145 477.5 67.5 c 128,-1,13
 415 -10 415 -10 299 -10 c 0,0,1
299 37 m 0,14,15
 334 37 334 37 367.5 48.5 c 128,-1,16
 401 60 401 60 428.5 86.5 c 128,-1,17
 456 113 456 113 472.5 159.5 c 128,-1,18
 489 206 489 206 489 277 c 256,19,20
 489 348 489 348 472.5 395 c 128,-1,21
 456 442 456 442 428 469.5 c 128,-1,22
 400 497 400 497 366.5 508.5 c 128,-1,23
 333 520 333 520 299 520 c 256,24,25
 265 520 265 520 231 508.5 c 128,-1,26
 197 497 197 497 169 469.5 c 128,-1,27
 141 442 141 442 124.5 395 c 128,-1,28
 108 348 108 348 108 277 c 256,29,30
 108 206 108 206 124.5 159 c 128,-1,31
 141 112 141 112 169 85.5 c 128,-1,32
 197 59 197 59 231 48 c 128,-1,33
 265 37 265 37 299 37 c 0,14,15
EndSplineSet
Substitution2: "Single Substitution lookup 2 subtable" ordmasculine
EndChar

StartChar: P
Encoding: 80 80 50
Width: 484
GlyphClass: 1
Flags: W
LayerCount: 2
Fore
SplineSet
123 215 m 1,0,-1
 123 6 l 2,1,2
 123 0 123 0 118 0 c 2,3,-1
 78 0 l 2,4,5
 73 0 73 0 73 6 c 2,6,-1
 73 549 l 2,7,8
 73 556 73 556 78 556 c 2,9,-1
 267 556 l 2,10,11
 349 556 349 556 399 511 c 128,-1,12
 449 466 449 466 449 387 c 0,13,14
 449 307 449 307 401 261 c 128,-1,15
 353 215 353 215 269 215 c 2,16,-1
 123 215 l 1,0,-1
123 262 m 1,17,-1
 267 262 l 2,18,19
 298 262 298 262 327.5 272.5 c 128,-1,20
 357 283 357 283 377 310.5 c 128,-1,21
 397 338 397 338 397 388 c 0,22,23
 397 444 397 444 362 476 c 128,-1,24
 327 508 327 508 271 508 c 2,25,-1
 123 508 l 1,26,-1
 123 262 l 1,17,-1
EndSplineSet
EndChar

StartChar: Q
Encoding: 81 81 51
Width: 597
GlyphClass: 1
Flags: W
LayerCount: 2
Fore
SplineSet
261 -8 m 1,0,1
 164 5 164 5 110.5 80.5 c 128,-1,2
 57 156 57 156 57 277 c 0,3,4
 57 366 57 366 85.5 431 c 128,-1,5
 114 496 114 496 168 531.5 c 128,-1,6
 222 567 222 567 298 567 c 256,7,8
 374 567 374 567 428 531.5 c 128,-1,9
 482 496 482 496 510.5 431 c 128,-1,10
 539 366 539 366 539 277 c 0,11,12
 539 150 539 150 481.5 74 c 128,-1,13
 424 -2 424 -2 318 -9 c 1,14,15
 327 -31 327 -31 346.5 -46 c 128,-1,16
 366 -61 366 -61 401 -61 c 0,17,18
 431 -61 431 -61 454.5 -49 c 128,-1,19
 478 -37 478 -37 503 -10 c 0,20,21
 507 -5 507 -5 513 -5 c 0,22,23
 523 -5 523 -5 523 -16 c 0,24,25
 523 -35 523 -35 506.5 -56 c 128,-1,26
 490 -77 490 -77 461 -91.5 c 128,-1,27
 432 -106 432 -106 393 -106 c 0,28,29
 338 -106 338 -106 305 -77.5 c 128,-1,30
 272 -49 272 -49 261 -8 c 1,0,1
298 37 m 0,31,32
 333 37 333 37 366.5 48.5 c 128,-1,33
 400 60 400 60 427.5 86.5 c 128,-1,34
 455 113 455 113 471.5 159.5 c 128,-1,35
 488 206 488 206 488 277 c 256,36,37
 488 348 488 348 471.5 395 c 128,-1,38
 455 442 455 442 427 469 c 128,-1,39
 399 496 399 496 365.5 507.5 c 128,-1,40
 332 519 332 519 298 519 c 256,41,42
 264 519 264 519 230 507.5 c 128,-1,43
 196 496 196 496 168.5 469 c 128,-1,44
 141 442 141 442 124.5 395 c 128,-1,45
 108 348 108 348 108 277 c 256,46,47
 108 206 108 206 124.5 159 c 128,-1,48
 141 112 141 112 168.5 85.5 c 128,-1,49
 196 59 196 59 230 48 c 128,-1,50
 264 37 264 37 298 37 c 0,31,32
EndSplineSet
EndChar

StartChar: R
Encoding: 82 82 52
Width: 496
GlyphClass: 1
Flags: W
LayerCount: 2
Fore
SplineSet
123 215 m 1,0,-1
 123 6 l 2,1,2
 123 0 123 0 118 0 c 2,3,-1
 78 0 l 2,4,5
 73 0 73 0 73 6 c 2,6,-1
 73 549 l 2,7,8
 73 556 73 556 78 556 c 2,9,-1
 267 556 l 2,10,11
 353 556 353 556 401.5 510.5 c 128,-1,12
 450 465 450 465 450 384 c 0,13,14
 450 317 450 317 415 277.5 c 128,-1,15
 380 238 380 238 331 222 c 1,16,-1
 456 7 l 2,17,18
 458 5 458 5 457 2.5 c 128,-1,19
 456 0 456 0 452 0 c 2,20,-1
 414 0 l 2,21,22
 402 0 402 0 396 10 c 2,23,-1
 277 215 l 1,24,-1
 123 215 l 1,0,-1
123 262 m 1,25,-1
 267 262 l 2,26,27
 335 262 335 262 367 295.5 c 128,-1,28
 399 329 399 329 399 388 c 0,29,30
 399 445 399 445 364.5 476.5 c 128,-1,31
 330 508 330 508 273 508 c 2,32,-1
 123 508 l 1,33,-1
 123 262 l 1,25,-1
EndSplineSet
EndChar

StartChar: S
Encoding: 83 83 53
Width: 437
GlyphClass: 1
Flags: W
LayerCount: 2
Fore
SplineSet
24 108 m 0,0,1
 24 127 24 127 36 127 c 0,2,3
 44 127 44 127 51 117 c 0,4,5
 81 77 81 77 118 56.5 c 128,-1,6
 155 36 155 36 206 36 c 0,7,8
 274 36 274 36 313.5 65.5 c 128,-1,9
 353 95 353 95 353 146 c 0,10,11
 353 181 353 181 330.5 202.5 c 128,-1,12
 308 224 308 224 272 238.5 c 128,-1,13
 236 253 236 253 196.5 266.5 c 128,-1,14
 157 280 157 280 121 298.5 c 128,-1,15
 85 317 85 317 62.5 346 c 128,-1,16
 40 375 40 375 40 421 c 0,17,18
 40 463 40 463 62.5 496 c 128,-1,19
 85 529 85 529 125.5 548 c 128,-1,20
 166 567 166 567 220 567 c 0,21,22
 262 567 262 567 295.5 558 c 128,-1,23
 329 549 329 549 357 536 c 0,24,25
 376 527 376 527 386 516 c 128,-1,26
 396 505 396 505 392 490 c 2,27,-1
 388 473 l 2,28,29
 386 465 386 465 381 465 c 0,30,31
 377 465 377 465 368 471 c 0,32,33
 337 494 337 494 297 507 c 128,-1,34
 257 520 257 520 216 520 c 0,35,36
 160 520 160 520 125.5 493.5 c 128,-1,37
 91 467 91 467 91 423 c 0,38,39
 91 388 91 388 113.5 366 c 128,-1,40
 136 344 136 344 171.5 329.5 c 128,-1,41
 207 315 207 315 247 301.5 c 128,-1,42
 287 288 287 288 322.5 270.5 c 128,-1,43
 358 253 358 253 380.5 226 c 128,-1,44
 403 199 403 199 403 155 c 0,45,46
 403 81 403 81 352 35 c 128,-1,47
 301 -11 301 -11 210 -11 c 0,48,49
 145 -11 145 -11 104 10.5 c 128,-1,50
 63 32 63 32 43.5 60 c 128,-1,51
 24 88 24 88 24 108 c 0,0,1
EndSplineSet
EndChar

StartChar: T
Encoding: 84 84 54
Width: 401
GlyphClass: 1
Flags: W
LayerCount: 2
Fore
SplineSet
175 508 m 1,0,-1
 22 508 l 2,1,2
 17 508 17 508 17 514 c 2,3,-1
 17 549 l 2,4,5
 17 556 17 556 22 556 c 2,6,-1
 354 556 l 2,7,8
 384 556 384 556 384 527 c 2,9,-1
 384 516 l 2,10,11
 384 508 384 508 375 508 c 2,12,-1
 225 508 l 1,13,-1
 225 6 l 2,14,15
 225 0 225 0 220 0 c 2,16,-1
 180 0 l 2,17,18
 175 0 175 0 175 6 c 2,19,-1
 175 508 l 1,0,-1
EndSplineSet
EndChar

StartChar: U
Encoding: 85 85 55
Width: 516
GlyphClass: 1
Flags: W
LayerCount: 2
Fore
SplineSet
256 -10 m 0,0,1
 187 -10 187 -10 146 17.5 c 128,-1,2
 105 45 105 45 86.5 91.5 c 128,-1,3
 68 138 68 138 68 194 c 2,4,-1
 68 549 l 2,5,6
 68 556 68 556 73 556 c 2,7,-1
 78 556 l 2,8,9
 96 556 96 556 107.5 542 c 128,-1,10
 119 528 119 528 119 504 c 2,11,-1
 119 201 l 2,12,13
 119 154 119 154 131.5 117 c 128,-1,14
 144 80 144 80 173.5 58.5 c 128,-1,15
 203 37 203 37 255 37 c 0,16,17
 308 37 308 37 339 59.5 c 128,-1,18
 370 82 370 82 383.5 119.5 c 128,-1,19
 397 157 397 157 397 202 c 2,20,-1
 397 549 l 2,21,22
 397 556 397 556 402 556 c 2,23,-1
 406 556 l 2,24,25
 424 556 424 556 435.5 542 c 128,-1,26
 447 528 447 528 447 504 c 2,27,-1
 447 198 l 2,28,29
 447 164 447 164 438 127.5 c 128,-1,30
 429 91 429 91 407.5 59.5 c 128,-1,31
 386 28 386 28 349 9 c 128,-1,32
 312 -10 312 -10 256 -10 c 0,0,1
EndSplineSet
EndChar

StartChar: V
Encoding: 86 86 56
Width: 462
GlyphClass: 1
Flags: W
LayerCount: 2
Fore
SplineSet
234 59 m 1,0,-1
 392 543 l 2,1,2
 394 551 394 551 397 553.5 c 128,-1,3
 400 556 400 556 407 556 c 2,4,-1
 443 556 l 2,5,6
 450 556 450 556 447 548 c 2,7,-1
 261 6 l 2,8,9
 259 0 259 0 253 0 c 2,10,-1
 213 0 l 2,11,12
 207 0 207 0 205 6 c 2,13,-1
 18 548 l 2,14,15
 15 556 15 556 23 556 c 2,16,-1
 40 556 l 2,17,18
 53 556 53 556 63 550 c 128,-1,19
 73 544 73 544 80 524 c 2,20,-1
 234 59 l 1,0,-1
EndSplineSet
EndChar

StartChar: W
Encoding: 87 87 57
Width: 742
GlyphClass: 1
Flags: W
LayerCount: 2
Fore
SplineSet
209 70 m 1,0,-1
 343 543 l 2,1,2
 345 551 345 551 348 553.5 c 128,-1,3
 351 556 351 556 358 556 c 2,4,-1
 367 556 l 2,5,6
 379 556 379 556 387 549.5 c 128,-1,7
 395 543 395 543 401 524 c 2,8,-1
 538 70 l 1,9,-1
 662 543 l 2,10,11
 664 551 664 551 667 553.5 c 128,-1,12
 670 556 670 556 677 556 c 2,13,-1
 711 556 l 2,14,15
 717 556 717 556 715 548 c 2,16,-1
 567 6 l 2,17,18
 566 0 566 0 558 0 c 2,19,-1
 520 0 l 2,20,21
 514 0 514 0 512 6 c 2,22,-1
 368 478 l 1,23,-1
 232 6 l 2,24,25
 231 0 231 0 224 0 c 2,26,-1
 185 0 l 2,27,28
 179 0 179 0 177 6 c 2,29,-1
 30 548 l 2,30,31
 28 556 28 556 35 556 c 2,32,-1
 48 556 l 2,33,34
 61 556 61 556 72 550 c 128,-1,35
 83 544 83 544 88 524 c 2,36,-1
 209 70 l 1,0,-1
EndSplineSet
EndChar

StartChar: X
Encoding: 88 88 58
Width: 459
GlyphClass: 1
Flags: W
LayerCount: 2
Fore
SplineSet
232 257 m 1,0,-1
 72 12 l 2,1,2
 69 6 69 6 66 3 c 128,-1,3
 63 0 63 0 55 0 c 2,4,-1
 20 0 l 2,5,6
 12 0 12 0 16 7 c 2,7,-1
 201 289 l 1,8,-1
 39 548 l 2,9,10
 37 551 37 551 38 553.5 c 128,-1,11
 39 556 39 556 43 556 c 2,12,-1
 60 556 l 2,13,14
 74 556 74 556 85 549.5 c 128,-1,15
 96 543 96 543 106 526 c 2,16,-1
 236 322 l 1,17,-1
 375 543 l 2,18,19
 382 556 382 556 394 556 c 2,20,-1
 427 556 l 2,21,22
 430 556 430 556 432 554 c 128,-1,23
 434 552 434 552 431 548 c 2,24,-1
 267 288 l 1,25,-1
 450 7 l 2,26,27
 453 0 453 0 445 0 c 2,28,-1
 410 0 l 2,29,30
 403 0 403 0 399 3 c 128,-1,31
 395 6 395 6 391 12 c 2,32,-1
 232 257 l 1,0,-1
EndSplineSet
EndChar

StartChar: Y
Encoding: 89 89 59
Width: 422
GlyphClass: 1
Flags: W
LayerCount: 2
Fore
SplineSet
187 219 m 1,0,-1
 6 548 l 2,1,2
 2 556 2 556 10 556 c 2,3,-1
 26 556 l 2,4,5
 46 556 46 556 58 546 c 128,-1,6
 70 536 70 536 83 513 c 2,7,-1
 214 274 l 1,8,-1
 361 543 l 2,9,10
 364 550 364 550 367.5 553 c 128,-1,11
 371 556 371 556 378 556 c 2,12,-1
 411 556 l 2,13,14
 422 556 422 556 417 547 c 2,15,-1
 237 219 l 1,16,-1
 237 6 l 2,17,18
 237 0 237 0 232 0 c 2,19,-1
 192 0 l 2,20,21
 187 0 187 0 187 6 c 2,22,-1
 187 219 l 1,0,-1
EndSplineSet
EndChar

StartChar: Z
Encoding: 90 90 60
Width: 448
GlyphClass: 1
Flags: W
LayerCount: 2
Fore
SplineSet
97 47 m 1,0,-1
 378 47 l 2,1,2
 407 47 407 47 407 18 c 2,3,-1
 407 7 l 2,4,5
 407 0 407 0 400 0 c 2,6,-1
 44 0 l 2,7,8
 39 0 39 0 39 6 c 2,9,-1
 39 30 l 2,10,11
 39 41 39 41 41 47.5 c 128,-1,12
 43 54 43 54 50 64 c 2,13,-1
 361 509 l 1,14,-1
 52 509 l 2,15,16
 47 509 47 509 47 515 c 2,17,-1
 47 549 l 2,18,19
 47 556 47 556 52 556 c 2,20,-1
 358 556 l 2,21,22
 377 556 377 556 392 548 c 128,-1,23
 407 540 407 540 407 514 c 2,24,-1
 407 504 l 2,25,26
 407 493 407 493 404 486.5 c 128,-1,27
 401 480 401 480 393 468 c 2,28,-1
 97 47 l 1,0,-1
EndSplineSet
EndChar

StartChar: bracketleft
Encoding: 91 91 61
Width: 289
GlyphClass: 1
Flags: W
LayerCount: 2
Fore
SplineSet
228 -144 m 2,0,-1
 128 -144 l 2,1,2
 102 -144 102 -144 86 -128.5 c 128,-1,3
 70 -113 70 -113 70 -88 c 2,4,-1
 70 639 l 2,5,6
 70 665 70 665 86 680.5 c 128,-1,7
 102 696 102 696 128 696 c 2,8,-1
 228 696 l 2,9,10
 236 696 236 696 236 689 c 2,11,-1
 236 686 l 2,12,13
 236 671 236 671 225.5 661.5 c 128,-1,14
 215 652 215 652 197 652 c 2,15,-1
 141 652 l 2,16,17
 118 652 118 652 118 628 c 2,18,-1
 118 -77 l 2,19,20
 118 -87 118 -87 123.5 -94 c 128,-1,21
 129 -101 129 -101 141 -101 c 2,22,-1
 197 -101 l 2,23,24
 215 -101 215 -101 225.5 -110 c 128,-1,25
 236 -119 236 -119 236 -134 c 2,26,-1
 236 -137 l 2,27,28
 236 -144 236 -144 228 -144 c 2,0,-1
EndSplineSet
PairPos2: "'kern' Horizontal Kerning lookup 2 per glyph data 1" uni0632 dx=4 dy=0 dh=4 dv=0 dx=0 dy=0 dh=0 dv=0
EndChar

StartChar: backslash
Encoding: 92 92 62
Width: 283
GlyphClass: 1
Flags: W
LayerCount: 2
Fore
SplineSet
230 6 m 2,0,-1
 1 548 l 2,1,2
 -1 556 -1 556 5 556 c 2,3,-1
 10 556 l 2,4,5
 30 556 30 556 43.5 547 c 128,-1,6
 57 538 57 538 67 513 c 2,7,-1
 281 6 l 2,8,9
 284 0 284 0 279 0 c 2,10,-1
 238 0 l 2,11,12
 233 0 233 0 230 6 c 2,0,-1
EndSplineSet
EndChar

StartChar: bracketright
Encoding: 93 93 63
Width: 289
GlyphClass: 1
Flags: W
LayerCount: 2
Fore
SplineSet
161 -144 m 2,0,-1
 61 -144 l 2,1,2
 53 -144 53 -144 53 -137 c 2,3,-1
 53 -134 l 2,4,5
 53 -119 53 -119 64 -110 c 128,-1,6
 75 -101 75 -101 92 -101 c 2,7,-1
 149 -101 l 2,8,9
 160 -101 160 -101 165.5 -94 c 128,-1,10
 171 -87 171 -87 171 -77 c 2,11,-1
 171 628 l 2,12,13
 171 652 171 652 149 652 c 2,14,-1
 92 652 l 2,15,16
 75 652 75 652 64 661.5 c 128,-1,17
 53 671 53 671 53 686 c 2,18,-1
 53 689 l 2,19,20
 53 696 53 696 61 696 c 2,21,-1
 161 696 l 2,22,23
 187 696 187 696 203 680.5 c 128,-1,24
 219 665 219 665 219 639 c 2,25,-1
 219 -88 l 2,26,27
 219 -113 219 -113 203 -128.5 c 128,-1,28
 187 -144 187 -144 161 -144 c 2,0,-1
EndSplineSet
PairPos2: "'kern' Horizontal Kerning lookup 2 per glyph data 1" uni0698 dx=-9 dy=0 dh=-9 dv=0 dx=0 dy=0 dh=0 dv=0
PairPos2: "'kern' Horizontal Kerning lookup 2 per glyph data 1" uni0695 dx=-9 dy=0 dh=-9 dv=0 dx=0 dy=0 dh=0 dv=0
PairPos2: "'kern' Horizontal Kerning lookup 2 per glyph data 1" uni0694 dx=-9 dy=0 dh=-9 dv=0 dx=0 dy=0 dh=0 dv=0
PairPos2: "'kern' Horizontal Kerning lookup 2 per glyph data 1" uni0691 dx=-5 dy=0 dh=-5 dv=0 dx=0 dy=0 dh=0 dv=0
PairPos2: "'kern' Horizontal Kerning lookup 2 per glyph data 1" uni0671 dx=51 dy=0 dh=51 dv=0 dx=0 dy=0 dh=0 dv=0
PairPos2: "'kern' Horizontal Kerning lookup 2 per glyph data 1" uni0632 dx=-9 dy=0 dh=-9 dv=0 dx=0 dy=0 dh=0 dv=0
PairPos2: "'kern' Horizontal Kerning lookup 2 per glyph data 1" uni0631 dx=-9 dy=0 dh=-9 dv=0 dx=0 dy=0 dh=0 dv=0
PairPos2: "'kern' Horizontal Kerning lookup 2 per glyph data 1" uni0625 dx=17 dy=0 dh=17 dv=0 dx=0 dy=0 dh=0 dv=0
PairPos2: "'kern' Horizontal Kerning lookup 2 per glyph data 1" uni0623 dx=43 dy=0 dh=43 dv=0 dx=0 dy=0 dh=0 dv=0
PairPos2: "'kern' Horizontal Kerning lookup 2 per glyph data 1" uni0622 dx=43 dy=0 dh=43 dv=0 dx=0 dy=0 dh=0 dv=0
EndChar

StartChar: asciicircum
Encoding: 94 94 64
Width: 403
GlyphClass: 1
Flags: W
LayerCount: 2
Fore
SplineSet
203 503 m 1,0,-1
 85 283 l 2,1,2
 82 278 82 278 79.5 276 c 128,-1,3
 77 274 77 274 69 274 c 2,4,-1
 35 274 l 2,5,6
 28 274 28 274 31 279 c 2,7,-1
 173 546 l 2,8,9
 176 551 176 551 179 553.5 c 128,-1,10
 182 556 182 556 189 556 c 0,11,12
 206 556 206 556 221 546.5 c 128,-1,13
 236 537 236 537 247 517 c 2,14,-1
 374 279 l 2,15,16
 376 274 376 274 370 274 c 2,17,-1
 336 274 l 2,18,19
 329 274 329 274 326 276 c 128,-1,20
 323 278 323 278 320 283 c 2,21,-1
 203 503 l 1,0,-1
EndSplineSet
EndChar

StartChar: underscore
Encoding: 95 95 65
Width: 409
GlyphClass: 1
Flags: W
LayerCount: 2
Fore
SplineSet
-4 -178 m 2,0,1
 -9 -178 -9 -178 -9 -172 c 2,2,-1
 -9 -139 l 2,3,4
 -9 -133 -9 -133 -4 -133 c 2,5,-1
 412 -133 l 2,6,7
 417 -133 417 -133 417 -139 c 2,8,-1
 417 -172 l 2,9,10
 417 -178 417 -178 412 -178 c 2,11,-1
 -4 -178 l 2,0,1
EndSplineSet
EndChar

StartChar: grave
Encoding: 96 96 66
Width: 139
GlyphClass: 1
Flags: W
LayerCount: 2
Fore
SplineSet
1 496 m 2,0,1
 0 498 0 498 0.5 500 c 128,-1,2
 1 502 1 502 4 502 c 2,3,-1
 54 502 l 2,4,5
 62 502 62 502 66 500 c 128,-1,6
 70 498 70 498 75 493 c 2,7,-1
 137 436 l 2,8,9
 139 435 139 435 138 433 c 128,-1,10
 137 431 137 431 135 431 c 2,11,-1
 97 431 l 2,12,13
 85 431 85 431 73 440 c 2,14,-1
 1 496 l 2,0,1
EndSplineSet
EndChar

StartChar: a
Encoding: 97 97 67
Width: 454
GlyphClass: 1
Flags: W
LayerCount: 2
Fore
SplineSet
344 57 m 1,0,1
 322 22 322 22 288 6.5 c 128,-1,2
 254 -9 254 -9 216 -9 c 0,3,4
 162 -9 162 -9 123.5 16.5 c 128,-1,5
 85 42 85 42 64.5 84.5 c 128,-1,6
 44 127 44 127 44 178 c 0,7,8
 44 233 44 233 66.5 275.5 c 128,-1,9
 89 318 89 318 128.5 342.5 c 128,-1,10
 168 367 168 367 219 367 c 0,11,12
 259 367 259 367 292.5 350.5 c 128,-1,13
 326 334 326 334 345 305 c 1,14,15
 345 334 345 334 356 347 c 128,-1,16
 367 360 367 360 385 360 c 2,17,-1
 390 360 l 2,18,19
 395 360 395 360 395 354 c 2,20,-1
 395 6 l 2,21,22
 395 0 395 0 390 0 c 2,23,-1
 349 0 l 2,24,25
 344 0 344 0 344 6 c 2,26,-1
 344 57 l 1,0,1
214 38 m 0,27,28
 247 38 247 38 276.5 51 c 128,-1,29
 306 64 306 64 325 94.5 c 128,-1,30
 344 125 344 125 344 178 c 0,31,32
 344 233 344 233 324.5 263.5 c 128,-1,33
 305 294 305 294 276.5 307 c 128,-1,34
 248 320 248 320 219 320 c 0,35,36
 161 320 161 320 128 280 c 128,-1,37
 95 240 95 240 95 178 c 0,38,39
 95 131 95 131 112.5 100 c 128,-1,40
 130 69 130 69 157 53.5 c 128,-1,41
 184 38 184 38 214 38 c 0,27,28
EndSplineSet
Substitution2: "Single Substitution lookup 2 subtable" ordfeminine
EndChar

StartChar: b
Encoding: 98 98 68
Width: 454
GlyphClass: 1
Flags: W
LayerCount: 2
Fore
SplineSet
110 54 m 1,0,-1
 110 6 l 2,1,2
 110 0 110 0 105 0 c 2,3,-1
 65 0 l 2,4,5
 60 0 60 0 60 6 c 2,6,-1
 60 549 l 2,7,8
 60 556 60 556 65 556 c 2,9,-1
 70 556 l 2,10,11
 87 556 87 556 98.5 542 c 128,-1,12
 110 528 110 528 110 503 c 2,13,-1
 110 302 l 1,14,15
 130 332 130 332 163 349.5 c 128,-1,16
 196 367 196 367 241 367 c 0,17,18
 318 367 318 367 364.5 314.5 c 128,-1,19
 411 262 411 262 411 178 c 0,20,21
 411 126 411 126 390.5 83.5 c 128,-1,22
 370 41 370 41 332 16 c 128,-1,23
 294 -9 294 -9 242 -9 c 0,24,25
 201 -9 201 -9 166 6 c 128,-1,26
 131 21 131 21 110 54 c 1,0,-1
237 38 m 0,27,28
 286 38 286 38 322.5 73 c 128,-1,29
 359 108 359 108 359 178 c 0,30,31
 359 241 359 241 326 280.5 c 128,-1,32
 293 320 293 320 236 320 c 0,33,34
 207 320 207 320 178 307 c 128,-1,35
 149 294 149 294 129.5 263.5 c 128,-1,36
 110 233 110 233 110 178 c 0,37,38
 110 126 110 126 129.5 95 c 128,-1,39
 149 64 149 64 178.5 51 c 128,-1,40
 208 38 208 38 237 38 c 0,27,28
EndSplineSet
EndChar

StartChar: c
Encoding: 99 99 69
Width: 362
GlyphClass: 1
Flags: W
LayerCount: 2
Fore
SplineSet
218 -10 m 0,0,1
 139 -10 139 -10 91.5 40.5 c 128,-1,2
 44 91 44 91 44 177 c 0,3,4
 44 233 44 233 66.5 276 c 128,-1,5
 89 319 89 319 128 343 c 128,-1,6
 167 367 167 367 218 367 c 0,7,8
 271 367 271 367 307 349 c 0,9,10
 335 338 335 338 328 313 c 2,11,-1
 324 298 l 2,12,13
 323 292 323 292 319 292 c 0,14,15
 317 292 317 292 313 294 c 0,16,17
 291 307 291 307 270 313.5 c 128,-1,18
 249 320 249 320 218 320 c 0,19,20
 163 320 163 320 129 282 c 128,-1,21
 95 244 95 244 95 178 c 256,22,23
 95 112 95 112 129 74.5 c 128,-1,24
 163 37 163 37 223 37 c 0,25,26
 260 37 260 37 282 50 c 128,-1,27
 304 63 304 63 320 82 c 0,28,29
 322 84 322 84 324 86.5 c 128,-1,30
 326 89 326 89 330 89 c 0,31,32
 340 89 340 89 340 74 c 0,33,34
 340 54 340 54 324.5 34.5 c 128,-1,35
 309 15 309 15 281.5 2.5 c 128,-1,36
 254 -10 254 -10 218 -10 c 0,0,1
EndSplineSet
EndChar

StartChar: d
Encoding: 100 100 70
Width: 454
GlyphClass: 1
Flags: W
LayerCount: 2
Fore
SplineSet
345 305 m 1,0,-1
 345 549 l 2,1,2
 345 556 345 556 350 556 c 2,3,-1
 354 556 l 2,4,5
 372 556 372 556 383.5 542 c 128,-1,6
 395 528 395 528 395 503 c 2,7,-1
 395 6 l 2,8,9
 395 0 395 0 390 0 c 2,10,-1
 350 0 l 2,11,12
 345 0 345 0 345 6 c 2,13,-1
 345 57 l 1,14,15
 323 22 323 22 289 6.5 c 128,-1,16
 255 -9 255 -9 216 -9 c 0,17,18
 162 -9 162 -9 123.5 16.5 c 128,-1,19
 85 42 85 42 64.5 84.5 c 128,-1,20
 44 127 44 127 44 178 c 0,21,22
 44 233 44 233 66.5 275.5 c 128,-1,23
 89 318 89 318 128.5 342.5 c 128,-1,24
 168 367 168 367 219 367 c 0,25,26
 259 367 259 367 292.5 350.5 c 128,-1,27
 326 334 326 334 345 305 c 1,0,-1
214 38 m 0,28,29
 247 38 247 38 276.5 51 c 128,-1,30
 306 64 306 64 325 94.5 c 128,-1,31
 344 125 344 125 344 178 c 0,32,33
 344 233 344 233 324.5 263.5 c 128,-1,34
 305 294 305 294 276.5 307 c 128,-1,35
 248 320 248 320 219 320 c 0,36,37
 161 320 161 320 127.5 280.5 c 128,-1,38
 94 241 94 241 94 178 c 0,39,40
 94 132 94 132 111.5 100.5 c 128,-1,41
 129 69 129 69 156.5 53.5 c 128,-1,42
 184 38 184 38 214 38 c 0,28,29
EndSplineSet
EndChar

StartChar: e
Encoding: 101 101 71
Width: 406
GlyphClass: 1
Flags: W
LayerCount: 2
Fore
SplineSet
95 160 m 1,0,1
 100 95 100 95 136.5 66 c 128,-1,2
 173 37 173 37 226 37 c 0,3,4
 274 37 274 37 299 51.5 c 128,-1,5
 324 66 324 66 340 82 c 0,6,7
 342 85 342 85 345 88.5 c 128,-1,8
 348 92 348 92 352 92 c 0,9,10
 357 92 357 92 358.5 87.5 c 128,-1,11
 360 83 360 83 360 78 c 0,12,13
 360 57 360 57 342 37 c 128,-1,14
 324 17 324 17 293 4 c 128,-1,15
 262 -9 262 -9 222 -9 c 0,16,17
 180 -9 180 -9 139 9 c 128,-1,18
 98 27 98 27 71 68.5 c 128,-1,19
 44 110 44 110 44 178 c 0,20,21
 44 233 44 233 65 275.5 c 128,-1,22
 86 318 86 318 123.5 342.5 c 128,-1,23
 161 367 161 367 208 367 c 0,24,25
 265 367 265 367 299.5 343 c 128,-1,26
 334 319 334 319 349.5 281.5 c 128,-1,27
 365 244 365 244 365 201 c 0,28,29
 365 192 365 192 365 184.5 c 128,-1,30
 365 177 365 177 364 171 c 0,31,32
 363 160 363 160 351 160 c 2,33,-1
 95 160 l 1,0,1
95 203 m 1,34,-1
 314 203 l 1,35,36
 315 232 315 232 306 259 c 128,-1,37
 297 286 297 286 273.5 303.5 c 128,-1,38
 250 321 250 321 207 321 c 0,39,40
 160 321 160 321 130.5 290 c 128,-1,41
 101 259 101 259 95 203 c 1,34,-1
EndSplineSet
EndChar

StartChar: f
Encoding: 102 102 72
Width: 268
GlyphClass: 1
Flags: W
LayerCount: 2
Fore
SplineSet
84 315 m 1,0,-1
 21 315 l 2,1,2
 16 315 16 315 16 321 c 2,3,-1
 16 354 l 2,4,5
 16 360 16 360 21 360 c 2,6,-1
 84 360 l 1,7,-1
 84 464 l 2,8,9
 84 514 84 514 109 538 c 128,-1,10
 134 562 134 562 170 562 c 0,11,12
 197 562 197 562 213.5 549.5 c 128,-1,13
 230 537 230 537 237.5 521.5 c 128,-1,14
 245 506 245 506 245 495 c 0,15,16
 245 485 245 485 238 485 c 0,17,18
 234 485 234 485 230 489 c 0,19,20
 221 499 221 499 207.5 507.5 c 128,-1,21
 194 516 194 516 177 516 c 256,22,23
 160 516 160 516 147 504 c 128,-1,24
 134 492 134 492 134 461 c 2,25,-1
 134 360 l 1,26,-1
 223 360 l 2,27,28
 228 360 228 360 228 354 c 2,29,-1
 228 321 l 2,30,31
 228 315 228 315 223 315 c 2,32,-1
 134 315 l 1,33,-1
 134 6 l 2,34,35
 134 0 134 0 129 0 c 2,36,-1
 89 0 l 2,37,38
 84 0 84 0 84 6 c 2,39,-1
 84 315 l 1,0,-1
EndSplineSet
EndChar

StartChar: g
Encoding: 103 103 73
Width: 454
GlyphClass: 1
Flags: W
LayerCount: 2
Fore
SplineSet
345 57 m 1,0,1
 323 22 323 22 289 6.5 c 128,-1,2
 255 -9 255 -9 216 -9 c 0,3,4
 162 -9 162 -9 123.5 16.5 c 128,-1,5
 85 42 85 42 64.5 84.5 c 128,-1,6
 44 127 44 127 44 178 c 0,7,8
 44 233 44 233 66.5 275.5 c 128,-1,9
 89 318 89 318 128.5 342.5 c 128,-1,10
 168 367 168 367 219 367 c 0,11,12
 259 367 259 367 292.5 350.5 c 128,-1,13
 326 334 326 334 345 305 c 1,14,15
 345 334 345 334 356 346.5 c 128,-1,16
 367 359 367 359 385 359 c 2,17,-1
 390 359 l 2,18,19
 395 359 395 359 395 354 c 2,20,-1
 395 7 l 2,21,22
 395 -73 395 -73 349.5 -122 c 128,-1,23
 304 -171 304 -171 214 -171 c 0,24,25
 169 -171 169 -171 135.5 -156 c 128,-1,26
 102 -141 102 -141 83 -120 c 128,-1,27
 64 -99 64 -99 64 -81 c 0,28,29
 64 -76 64 -76 66 -71.5 c 128,-1,30
 68 -67 68 -67 72 -67 c 256,31,32
 76 -67 76 -67 78 -69 c 128,-1,33
 80 -71 80 -71 83 -74 c 0,34,35
 104 -95 104 -95 134.5 -108 c 128,-1,36
 165 -121 165 -121 211 -121 c 0,37,38
 282 -121 282 -121 313.5 -88 c 128,-1,39
 345 -55 345 -55 345 7 c 2,40,-1
 345 57 l 1,0,1
214 38 m 0,41,42
 247 38 247 38 276.5 51 c 128,-1,43
 306 64 306 64 325 94.5 c 128,-1,44
 344 125 344 125 344 178 c 0,45,46
 344 233 344 233 324.5 263.5 c 128,-1,47
 305 294 305 294 276.5 307 c 128,-1,48
 248 320 248 320 219 320 c 0,49,50
 161 320 161 320 127.5 280.5 c 128,-1,51
 94 241 94 241 94 178 c 0,52,53
 94 132 94 132 111.5 100.5 c 128,-1,54
 129 69 129 69 156.5 53.5 c 128,-1,55
 184 38 184 38 214 38 c 0,41,42
EndSplineSet
EndChar

StartChar: h
Encoding: 104 104 74
Width: 439
GlyphClass: 1
Flags: W
LayerCount: 2
Fore
SplineSet
110 307 m 1,0,1
 124 330 124 330 155 348.5 c 128,-1,2
 186 367 186 367 232 367 c 0,3,4
 302 367 302 367 341.5 323.5 c 128,-1,5
 381 280 381 280 381 215 c 2,6,-1
 381 6 l 2,7,8
 381 0 381 0 376 0 c 2,9,-1
 336 0 l 2,10,11
 331 0 331 0 331 6 c 2,12,-1
 331 200 l 2,13,14
 331 257 331 257 303 288.5 c 128,-1,15
 275 320 275 320 224 320 c 0,16,17
 110 320 110 320 110 193 c 2,18,-1
 110 6 l 2,19,20
 110 0 110 0 105 0 c 2,21,-1
 65 0 l 2,22,23
 60 0 60 0 60 6 c 2,24,-1
 60 549 l 2,25,26
 60 556 60 556 65 556 c 2,27,-1
 70 556 l 2,28,29
 87 556 87 556 98.5 542 c 128,-1,30
 110 528 110 528 110 503 c 2,31,-1
 110 307 l 1,0,1
EndSplineSet
EndChar

StartChar: i
Encoding: 105 105 75
Width: 170
GlyphClass: 1
Flags: W
LayerCount: 2
Fore
SplineSet
53 458 m 0,0,1
 53 472 53 472 63 482 c 128,-1,2
 73 492 73 492 86 492 c 0,3,4
 100 492 100 492 110 482 c 128,-1,5
 120 472 120 472 120 458 c 0,6,7
 120 445 120 445 110 435.5 c 128,-1,8
 100 426 100 426 86 426 c 0,9,10
 73 426 73 426 63 435.5 c 128,-1,11
 53 445 53 445 53 458 c 0,0,1
65 0 m 2,12,13
 60 0 60 0 60 6 c 2,14,-1
 60 354 l 2,15,16
 60 360 60 360 65 360 c 2,17,-1
 69 360 l 2,18,19
 86 360 86 360 98 346 c 128,-1,20
 110 332 110 332 110 308 c 2,21,-1
 110 6 l 2,22,23
 110 0 110 0 105 0 c 2,24,-1
 65 0 l 2,12,13
EndSplineSet
EndChar

StartChar: j
Encoding: 106 106 76
Width: 170
GlyphClass: 1
Flags: W
LayerCount: 2
Fore
SplineSet
53 459 m 0,0,1
 53 473 53 473 63 482.5 c 128,-1,2
 73 492 73 492 86 492 c 0,3,4
 100 492 100 492 109.5 482.5 c 128,-1,5
 119 473 119 473 119 459 c 0,6,7
 119 446 119 446 109.5 436 c 128,-1,8
 100 426 100 426 86 426 c 0,9,10
 73 426 73 426 63 436 c 128,-1,11
 53 446 53 446 53 459 c 0,0,1
-33 -93 m 0,12,13
 -22 -106 -22 -106 -9.5 -115 c 128,-1,14
 3 -124 3 -124 20 -124 c 0,15,16
 43 -124 43 -124 51.5 -108 c 128,-1,17
 60 -92 60 -92 60 -61 c 2,18,-1
 60 354 l 2,19,20
 60 359 60 359 65 359 c 2,21,-1
 70 359 l 2,22,23
 87 359 87 359 98.5 345.5 c 128,-1,24
 110 332 110 332 110 308 c 2,25,-1
 110 -67 l 2,26,27
 110 -118 110 -118 89.5 -144.5 c 128,-1,28
 69 -171 69 -171 31 -171 c 0,29,30
 3 -171 3 -171 -14.5 -157 c 128,-1,31
 -32 -143 -32 -143 -40 -126 c 128,-1,32
 -48 -109 -48 -109 -48 -100 c 0,33,34
 -48 -90 -48 -90 -41 -90 c 0,35,36
 -37 -90 -37 -90 -33 -93 c 0,12,13
EndSplineSet
EndChar

StartChar: k
Encoding: 107 107 77
Width: 354
GlyphClass: 1
Flags: W
LayerCount: 2
Fore
SplineSet
110 148 m 1,0,-1
 110 6 l 2,1,2
 110 0 110 0 105 0 c 2,3,-1
 65 0 l 2,4,5
 60 0 60 0 60 6 c 2,6,-1
 60 549 l 2,7,8
 60 556 60 556 65 556 c 2,9,-1
 70 556 l 2,10,11
 87 556 87 556 98.5 542 c 128,-1,12
 110 528 110 528 110 503 c 2,13,-1
 110 207 l 1,14,-1
 259 351 l 2,15,16
 267 359 267 359 279 359 c 2,17,-1
 318 359 l 2,18,19
 321 359 321 359 322 357.5 c 128,-1,20
 323 356 323 356 321 354 c 2,21,-1
 194 230 l 1,22,-1
 339 6 l 2,23,24
 343 0 343 0 336 0 c 2,25,-1
 296 0 l 2,26,27
 284 0 284 0 278 10 c 2,28,-1
 159 196 l 1,29,-1
 110 148 l 1,0,-1
EndSplineSet
EndChar

StartChar: l
Encoding: 108 108 78
Width: 220
GlyphClass: 1
Flags: W
LayerCount: 2
Fore
SplineSet
141 -9 m 0,0,1
 104 -9 104 -9 81.5 14 c 128,-1,2
 59 37 59 37 59 89 c 2,3,-1
 59 549 l 2,4,5
 59 556 59 556 64 556 c 2,6,-1
 69 556 l 2,7,8
 87 556 87 556 98 542 c 128,-1,9
 109 528 109 528 109 504 c 2,10,-1
 109 92 l 2,11,12
 109 41 109 41 150 41 c 0,13,14
 179 41 179 41 201 71 c 0,15,16
 204 73 204 73 205.5 75 c 128,-1,17
 207 77 207 77 209 77 c 0,18,19
 217 77 217 77 217 63 c 0,20,21
 217 52 217 52 209.5 34.5 c 128,-1,22
 202 17 202 17 185.5 4 c 128,-1,23
 169 -9 169 -9 141 -9 c 0,0,1
EndSplineSet
EndChar

StartChar: m
Encoding: 109 109 79
Width: 697
GlyphClass: 1
Flags: W
LayerCount: 2
Fore
SplineSet
110 307 m 1,0,1
 124 330 124 330 153.5 348.5 c 128,-1,2
 183 367 183 367 229 367 c 0,3,4
 274 367 274 367 306.5 348 c 128,-1,5
 339 329 339 329 356 297 c 1,6,7
 373 323 373 323 405 345 c 128,-1,8
 437 367 437 367 489 367 c 0,9,10
 562 367 562 367 600.5 323.5 c 128,-1,11
 639 280 639 280 639 215 c 2,12,-1
 639 6 l 2,13,14
 639 0 639 0 634 0 c 2,15,-1
 594 0 l 2,16,17
 589 0 589 0 589 6 c 2,18,-1
 589 200 l 2,19,20
 589 257 589 257 562.5 288.5 c 128,-1,21
 536 320 536 320 484 320 c 0,22,23
 374 320 374 320 374 193 c 2,24,-1
 374 6 l 2,25,26
 374 0 374 0 369 0 c 2,27,-1
 330 0 l 2,28,29
 325 0 325 0 325 6 c 2,30,-1
 325 200 l 2,31,32
 325 257 325 257 298.5 288.5 c 128,-1,33
 272 320 272 320 221 320 c 0,34,35
 110 320 110 320 110 193 c 2,36,-1
 110 6 l 2,37,38
 110 0 110 0 105 0 c 2,39,-1
 65 0 l 2,40,41
 60 0 60 0 60 6 c 2,42,-1
 60 354 l 2,43,44
 60 360 60 360 65 360 c 2,45,-1
 70 360 l 2,46,47
 87 360 87 360 98.5 345.5 c 128,-1,48
 110 331 110 331 110 307 c 1,0,1
EndSplineSet
EndChar

StartChar: n
Encoding: 110 110 80
Width: 439
GlyphClass: 1
Flags: W
LayerCount: 2
Fore
SplineSet
110 307 m 1,0,1
 124 330 124 330 155 348.5 c 128,-1,2
 186 367 186 367 231 367 c 0,3,4
 302 367 302 367 341 323.5 c 128,-1,5
 380 280 380 280 380 214 c 2,6,-1
 380 6 l 2,7,8
 380 0 380 0 375 0 c 2,9,-1
 335 0 l 2,10,11
 330 0 330 0 330 6 c 2,12,-1
 330 200 l 2,13,14
 330 257 330 257 302 288.5 c 128,-1,15
 274 320 274 320 222 320 c 0,16,17
 109 320 109 320 109 193 c 2,18,-1
 109 6 l 2,19,20
 109 0 109 0 104 0 c 2,21,-1
 64 0 l 2,22,23
 59 0 59 0 59 6 c 2,24,-1
 59 354 l 2,25,26
 59 360 59 360 64 360 c 2,27,-1
 69 360 l 2,28,29
 87 360 87 360 98.5 345.5 c 128,-1,30
 110 331 110 331 110 307 c 1,0,1
EndSplineSet
EndChar

StartChar: o
Encoding: 111 111 81
Width: 443
GlyphClass: 1
Flags: W
LayerCount: 2
Fore
SplineSet
221 -9 m 0,0,1
 142 -9 142 -9 93 41.5 c 128,-1,2
 44 92 44 92 44 178 c 0,3,4
 44 235 44 235 66.5 277.5 c 128,-1,5
 89 320 89 320 128.5 343.5 c 128,-1,6
 168 367 168 367 220 367 c 0,7,8
 301 367 301 367 349.5 315 c 128,-1,9
 398 263 398 263 398 179 c 256,10,11
 398 95 398 95 349.5 43 c 128,-1,12
 301 -9 301 -9 221 -9 c 0,0,1
220 38 m 256,13,14
 278 38 278 38 313 76 c 128,-1,15
 348 114 348 114 348 178 c 256,16,17
 348 242 348 242 312 281 c 128,-1,18
 276 320 276 320 220 320 c 0,19,20
 162 320 162 320 128.5 281 c 128,-1,21
 95 242 95 242 95 179 c 0,22,23
 95 115 95 115 128.5 76.5 c 128,-1,24
 162 38 162 38 220 38 c 256,13,14
EndSplineSet
Substitution2: "Single Substitution lookup 2 subtable" ordmasculine
EndChar

StartChar: p
Encoding: 112 112 82
Width: 454
GlyphClass: 1
Flags: W
LayerCount: 2
Fore
SplineSet
110 54 m 1,0,-1
 110 -154 l 2,1,2
 110 -160 110 -160 105 -160 c 2,3,-1
 65 -160 l 2,4,5
 60 -160 60 -160 60 -154 c 2,6,-1
 60 354 l 2,7,8
 60 360 60 360 65 360 c 2,9,-1
 70 360 l 2,10,11
 87 360 87 360 98.5 346.5 c 128,-1,12
 110 333 110 333 110 308 c 2,13,-1
 110 302 l 1,14,15
 130 332 130 332 163 349.5 c 128,-1,16
 196 367 196 367 241 367 c 0,17,18
 318 367 318 367 364.5 314.5 c 128,-1,19
 411 262 411 262 411 178 c 0,20,21
 411 126 411 126 390.5 83.5 c 128,-1,22
 370 41 370 41 332 16 c 128,-1,23
 294 -9 294 -9 242 -9 c 0,24,25
 201 -9 201 -9 166 6 c 128,-1,26
 131 21 131 21 110 54 c 1,0,-1
239 38 m 0,27,28
 270 38 270 38 297 53.5 c 128,-1,29
 324 69 324 69 341.5 100.5 c 128,-1,30
 359 132 359 132 359 178 c 0,31,32
 359 241 359 241 326 280.5 c 128,-1,33
 293 320 293 320 236 320 c 0,34,35
 207 320 207 320 178 307 c 128,-1,36
 149 294 149 294 129.5 263.5 c 128,-1,37
 110 233 110 233 110 178 c 0,38,39
 110 126 110 126 130 95.5 c 128,-1,40
 150 65 150 65 180 51.5 c 128,-1,41
 210 38 210 38 239 38 c 0,27,28
EndSplineSet
EndChar

StartChar: q
Encoding: 113 113 83
Width: 454
GlyphClass: 1
Flags: W
LayerCount: 2
Fore
SplineSet
345 57 m 1,0,1
 323 22 323 22 289 6.5 c 128,-1,2
 255 -9 255 -9 216 -9 c 0,3,4
 162 -9 162 -9 123.5 16.5 c 128,-1,5
 85 42 85 42 64.5 84.5 c 128,-1,6
 44 127 44 127 44 178 c 0,7,8
 44 233 44 233 66.5 275.5 c 128,-1,9
 89 318 89 318 128.5 342.5 c 128,-1,10
 168 367 168 367 219 367 c 0,11,12
 259 367 259 367 292.5 350.5 c 128,-1,13
 326 334 326 334 345 305 c 1,14,15
 345 334 345 334 356 347 c 128,-1,16
 367 360 367 360 385 360 c 2,17,-1
 390 360 l 2,18,19
 395 360 395 360 395 354 c 2,20,-1
 395 -154 l 2,21,22
 395 -160 395 -160 390 -160 c 2,23,-1
 350 -160 l 2,24,25
 345 -160 345 -160 345 -154 c 2,26,-1
 345 57 l 1,0,1
214 38 m 0,27,28
 247 38 247 38 276.5 51 c 128,-1,29
 306 64 306 64 325 94.5 c 128,-1,30
 344 125 344 125 344 178 c 0,31,32
 344 233 344 233 324.5 263.5 c 128,-1,33
 305 294 305 294 276.5 307 c 128,-1,34
 248 320 248 320 219 320 c 0,35,36
 161 320 161 320 127.5 280.5 c 128,-1,37
 94 241 94 241 94 178 c 0,38,39
 94 132 94 132 111.5 100.5 c 128,-1,40
 129 69 129 69 156.5 53.5 c 128,-1,41
 184 38 184 38 214 38 c 0,27,28
EndSplineSet
EndChar

StartChar: r
Encoding: 114 114 84
Width: 267
GlyphClass: 1
Flags: W
LayerCount: 2
Fore
SplineSet
70 360 m 2,0,1
 87 360 87 360 98.5 346.5 c 128,-1,2
 110 333 110 333 110 309 c 1,3,4
 127 339 127 339 155 349.5 c 128,-1,5
 183 360 183 360 220 360 c 2,6,-1
 231 360 l 2,7,8
 236 360 236 360 236 354 c 2,9,-1
 236 316 l 2,10,11
 236 309 236 309 231 309 c 2,12,-1
 210 309 l 2,13,14
 158 309 158 309 134 282 c 128,-1,15
 110 255 110 255 110 192 c 2,16,-1
 110 6 l 2,17,18
 110 0 110 0 105 0 c 2,19,-1
 65 0 l 2,20,21
 60 0 60 0 60 6 c 2,22,-1
 60 354 l 2,23,24
 60 360 60 360 65 360 c 2,25,-1
 70 360 l 2,0,1
EndSplineSet
EndChar

StartChar: s
Encoding: 115 115 85
Width: 309
GlyphClass: 1
Flags: W
LayerCount: 2
Fore
SplineSet
44 82 m 0,0,1
 58 65 58 65 82.5 50.5 c 128,-1,2
 107 36 107 36 147 36 c 0,3,4
 190 36 190 36 211.5 51.5 c 128,-1,5
 233 67 233 67 233 94 c 0,6,7
 233 117 233 117 212.5 131 c 128,-1,8
 192 145 192 145 162.5 155.5 c 128,-1,9
 133 166 133 166 103 179.5 c 128,-1,10
 73 193 73 193 52.5 213 c 128,-1,11
 32 233 32 233 32 267 c 0,12,13
 32 308 32 308 66 337.5 c 128,-1,14
 100 367 100 367 156 367 c 0,15,16
 209 367 209 367 246 349 c 0,17,18
 273 335 273 335 266 312 c 2,19,-1
 262 297 l 2,20,21
 261 291 261 291 257 291 c 0,22,23
 254 291 254 291 252 293 c 0,24,25
 230 306 230 306 207 313 c 128,-1,26
 184 320 184 320 156 320 c 0,27,28
 122 320 122 320 102 307 c 128,-1,29
 82 294 82 294 82 271 c 0,30,31
 82 249 82 249 102.5 235.5 c 128,-1,32
 123 222 123 222 153 211.5 c 128,-1,33
 183 201 183 201 212.5 188 c 128,-1,34
 242 175 242 175 262.5 154.5 c 128,-1,35
 283 134 283 134 283 99 c 0,36,37
 283 50 283 50 247.5 19.5 c 128,-1,38
 212 -11 212 -11 149 -11 c 0,39,40
 109 -11 109 -11 81 3.5 c 128,-1,41
 53 18 53 18 39 37.5 c 128,-1,42
 25 57 25 57 25 73 c 0,43,44
 25 88 25 88 35 88 c 0,45,46
 41 88 41 88 44 82 c 0,0,1
EndSplineSet
EndChar

StartChar: t
Encoding: 116 116 86
Width: 249
GlyphClass: 1
Flags: W
LayerCount: 2
Fore
SplineSet
92 315 m 1,0,-1
 24 315 l 2,1,2
 19 315 19 315 19 321 c 2,3,-1
 19 354 l 2,4,5
 19 360 19 360 24 360 c 2,6,-1
 92 360 l 1,7,-1
 92 484 l 2,8,9
 92 491 92 491 96 491 c 2,10,-1
 101 491 l 2,11,12
 119 491 119 491 130.5 477 c 128,-1,13
 142 463 142 463 142 439 c 2,14,-1
 142 360 l 1,15,-1
 216 360 l 2,16,17
 221 360 221 360 221 354 c 2,18,-1
 221 321 l 2,19,20
 221 315 221 315 216 315 c 2,21,-1
 142 315 l 1,22,-1
 142 6 l 2,23,24
 142 0 142 0 137 0 c 2,25,-1
 96 0 l 2,26,27
 92 0 92 0 92 6 c 2,28,-1
 92 315 l 1,0,-1
EndSplineSet
EndChar

StartChar: u
Encoding: 117 117 87
Width: 423
GlyphClass: 1
Flags: W
LayerCount: 2
Fore
SplineSet
211 -10 m 0,0,1
 139 -10 139 -10 99 34 c 128,-1,2
 59 78 59 78 59 159 c 2,3,-1
 59 354 l 2,4,5
 59 360 59 360 63 360 c 2,6,-1
 68 360 l 2,7,8
 86 360 86 360 98 346 c 128,-1,9
 110 332 110 332 110 308 c 2,10,-1
 110 156 l 2,11,12
 110 100 110 100 136 68 c 128,-1,13
 162 36 162 36 211 36 c 256,14,15
 260 36 260 36 287 64.5 c 128,-1,16
 314 93 314 93 314 153 c 2,17,-1
 314 354 l 2,18,19
 314 360 314 360 319 360 c 2,20,-1
 323 360 l 2,21,22
 341 360 341 360 352.5 346 c 128,-1,23
 364 332 364 332 364 308 c 2,24,-1
 364 156 l 2,25,26
 364 77 364 77 323 33.5 c 128,-1,27
 282 -10 282 -10 211 -10 c 0,0,1
EndSplineSet
EndChar

StartChar: v
Encoding: 118 118 88
Width: 329
GlyphClass: 1
Flags: W
LayerCount: 2
Fore
SplineSet
165 70 m 1,0,-1
 258 350 l 2,1,2
 260 357 260 357 263.5 358.5 c 128,-1,3
 267 360 267 360 274 360 c 2,4,-1
 307 360 l 2,5,6
 313 360 313 360 311 354 c 2,7,-1
 189 5 l 2,8,9
 187 0 187 0 182 0 c 2,10,-1
 147 0 l 2,11,12
 142 0 142 0 140 5 c 2,13,-1
 18 354 l 2,14,15
 16 360 16 360 23 360 c 2,16,-1
 35 360 l 2,17,18
 52 360 52 360 64 351.5 c 128,-1,19
 76 343 76 343 83 321 c 2,20,-1
 165 70 l 1,0,-1
EndSplineSet
EndChar

StartChar: w
Encoding: 119 119 89
Width: 551
GlyphClass: 1
Flags: W
LayerCount: 2
Fore
SplineSet
158 72 m 1,0,-1
 249 353 l 2,1,2
 251 360 251 360 259 360 c 2,3,-1
 268 360 l 2,4,5
 283 360 283 360 294 351 c 128,-1,6
 305 342 305 342 312 319 c 2,7,-1
 394 72 l 1,8,-1
 474 350 l 2,9,10
 476 357 476 357 479.5 358.5 c 128,-1,11
 483 360 483 360 490 360 c 2,12,-1
 523 360 l 2,13,14
 529 360 529 360 527 354 c 2,15,-1
 417 5 l 2,16,17
 415 0 415 0 410 0 c 2,18,-1
 376 0 l 2,19,20
 371 0 371 0 369 5 c 2,21,-1
 275 291 l 1,22,-1
 180 5 l 2,23,24
 178 0 178 0 173 0 c 2,25,-1
 139 0 l 2,26,27
 134 0 134 0 132 5 c 2,28,-1
 24 354 l 2,29,30
 22 360 22 360 28 360 c 2,31,-1
 39 360 l 2,32,33
 56 360 56 360 68.5 350.5 c 128,-1,34
 81 341 81 341 87 321 c 2,35,-1
 158 72 l 1,0,-1
EndSplineSet
EndChar

StartChar: x
Encoding: 120 120 90
Width: 336
GlyphClass: 1
Flags: W
LayerCount: 2
Fore
SplineSet
166 159 m 1,0,-1
 72 10 l 2,1,2
 66 0 66 0 56 0 c 2,3,-1
 18 0 l 2,4,5
 11 0 11 0 15 6 c 2,6,-1
 135 191 l 1,7,-1
 31 354 l 2,8,9
 27 360 27 360 35 360 c 2,10,-1
 51 360 l 2,11,12
 72 360 72 360 84.5 349 c 128,-1,13
 97 338 97 338 111 316 c 2,14,-1
 167 228 l 1,15,-1
 244 349 l 2,16,17
 248 355 248 355 251.5 357.5 c 128,-1,18
 255 360 255 360 262 360 c 2,19,-1
 296 360 l 2,20,21
 303 360 303 360 299 354 c 2,22,-1
 197 194 l 1,23,-1
 321 6 l 2,24,25
 323 0 323 0 317 0 c 2,26,-1
 280 0 l 2,27,28
 270 0 270 0 264 10 c 2,29,-1
 166 159 l 1,0,-1
EndSplineSet
EndChar

StartChar: y
Encoding: 121 121 91
Width: 329
GlyphClass: 1
Flags: W
LayerCount: 2
Fore
SplineSet
140 -5 m 1,0,-1
 18 354 l 2,1,2
 16 360 16 360 22 360 c 2,3,-1
 35 360 l 2,4,5
 51 360 51 360 63.5 351.5 c 128,-1,6
 76 343 76 343 83 320 c 2,7,-1
 165 63 l 1,8,-1
 258 350 l 2,9,10
 260 357 260 357 263 358.5 c 128,-1,11
 266 360 266 360 273 360 c 2,12,-1
 307 360 l 2,13,14
 313 360 313 360 311 354 c 2,15,-1
 180 -19 l 2,16,17
 154 -92 154 -92 129.5 -131.5 c 128,-1,18
 105 -171 105 -171 58 -171 c 0,19,20
 30 -171 30 -171 8.5 -151 c 128,-1,21
 -13 -131 -13 -131 -13 -106 c 0,22,23
 -13 -93 -13 -93 -4 -93 c 0,24,25
 -1 -93 -1 -93 1 -94.5 c 128,-1,26
 3 -96 3 -96 5 -98 c 0,27,28
 18 -111 18 -111 28.5 -117.5 c 128,-1,29
 39 -124 39 -124 55 -124 c 0,30,31
 72 -124 72 -124 84.5 -115 c 128,-1,32
 97 -106 97 -106 109.5 -80 c 128,-1,33
 122 -54 122 -54 140 -5 c 1,0,-1
EndSplineSet
EndChar

StartChar: z
Encoding: 122 122 92
Width: 323
GlyphClass: 1
Flags: W
LayerCount: 2
Fore
SplineSet
92 45 m 1,0,-1
 279 45 l 2,1,2
 284 44 284 44 284 39 c 2,3,-1
 284 6 l 2,4,5
 284 0 284 0 279 0 c 2,6,-1
 40 0 l 2,7,8
 35 0 35 0 35 6 c 2,9,-1
 35 36 l 2,10,11
 35 44 35 44 38 48 c 128,-1,12
 41 52 41 52 48 62 c 2,13,-1
 247 315 l 1,14,-1
 44 315 l 2,15,16
 39 315 39 315 39 321 c 2,17,-1
 39 354 l 2,18,19
 39 360 39 360 44 360 c 2,20,-1
 241 360 l 2,21,22
 267 360 267 360 277 350 c 128,-1,23
 287 340 287 340 287 315 c 0,24,25
 287 302 287 302 284.5 293.5 c 128,-1,26
 282 285 282 285 273 274 c 2,27,-1
 92 45 l 1,0,-1
EndSplineSet
EndChar

StartChar: braceleft
Encoding: 123 123 93
Width: 326
GlyphClass: 1
Flags: W
LayerCount: 2
Fore
SplineSet
266 -144 m 2,0,-1
 165 -144 l 2,1,2
 140 -144 140 -144 124 -128.5 c 128,-1,3
 108 -113 108 -113 108 -88 c 2,4,-1
 108 216 l 2,5,6
 108 241 108 241 94 247.5 c 128,-1,7
 80 254 80 254 69 255 c 0,8,9
 60 257 60 257 60 264 c 2,10,-1
 60 288 l 2,11,12
 60 297 60 297 69 297 c 0,13,14
 80 298 80 298 94 305 c 128,-1,15
 108 312 108 312 108 337 c 2,16,-1
 108 639 l 2,17,18
 108 665 108 665 124 680.5 c 128,-1,19
 140 696 140 696 165 696 c 2,20,-1
 266 696 l 2,21,22
 273 696 273 696 273 689 c 2,23,-1
 273 686 l 2,24,25
 273 671 273 671 262.5 661.5 c 128,-1,26
 252 652 252 652 234 652 c 2,27,-1
 178 652 l 2,28,29
 155 652 155 652 155 628 c 2,30,-1
 155 334 l 2,31,32
 155 306 155 306 145.5 293.5 c 128,-1,33
 136 281 136 281 131 276 c 1,34,35
 136 272 136 272 145.5 259.5 c 128,-1,36
 155 247 155 247 155 218 c 2,37,-1
 155 -77 l 2,38,39
 155 -87 155 -87 161 -94 c 128,-1,40
 167 -101 167 -101 178 -101 c 2,41,-1
 234 -101 l 2,42,43
 252 -101 252 -101 262.5 -110 c 128,-1,44
 273 -119 273 -119 273 -134 c 2,45,-1
 273 -137 l 2,46,47
 273 -144 273 -144 266 -144 c 2,0,-1
EndSplineSet
EndChar

StartChar: bar
Encoding: 124 124 94
Width: 184
GlyphClass: 1
Flags: W
LayerCount: 2
Fore
SplineSet
74 -149 m 2,0,1
 69 -149 69 -149 69 -143 c 2,2,-1
 69 561 l 2,3,4
 69 567 69 567 74 567 c 0,5,6
 91 567 91 567 103 553 c 128,-1,7
 115 539 115 539 115 514 c 2,8,-1
 115 -143 l 2,9,10
 115 -149 115 -149 110 -149 c 2,11,-1
 74 -149 l 2,0,1
EndSplineSet
EndChar

StartChar: braceright
Encoding: 125 125 95
Width: 326
GlyphClass: 1
Flags: W
LayerCount: 2
Fore
SplineSet
161 -144 m 2,0,-1
 60 -144 l 2,1,2
 53 -144 53 -144 53 -137 c 2,3,-1
 53 -134 l 2,4,5
 53 -119 53 -119 64 -110 c 128,-1,6
 75 -101 75 -101 92 -101 c 2,7,-1
 149 -101 l 2,8,9
 160 -101 160 -101 165.5 -94 c 128,-1,10
 171 -87 171 -87 171 -77 c 2,11,-1
 171 218 l 2,12,13
 171 247 171 247 180.5 259.5 c 128,-1,14
 190 272 190 272 196 276 c 1,15,16
 190 281 190 281 180.5 293.5 c 128,-1,17
 171 306 171 306 171 334 c 2,18,-1
 171 628 l 2,19,20
 171 652 171 652 149 652 c 2,21,-1
 92 652 l 2,22,23
 75 652 75 652 64 661.5 c 128,-1,24
 53 671 53 671 53 686 c 2,25,-1
 53 689 l 2,26,27
 53 696 53 696 60 696 c 2,28,-1
 161 696 l 2,29,30
 187 696 187 696 203 680.5 c 128,-1,31
 219 665 219 665 219 639 c 2,32,-1
 219 337 l 2,33,34
 219 312 219 312 233 305 c 128,-1,35
 247 298 247 298 257 297 c 0,36,37
 266 297 266 297 266 288 c 2,38,-1
 266 264 l 2,39,40
 266 257 266 257 257 255 c 0,41,42
 247 254 247 254 233 247.5 c 128,-1,43
 219 241 219 241 219 216 c 2,44,-1
 219 -88 l 2,45,46
 219 -113 219 -113 203 -128.5 c 128,-1,47
 187 -144 187 -144 161 -144 c 2,0,-1
EndSplineSet
PairPos2: "'kern' Horizontal Kerning lookup 2 per glyph data 1" uni0698 dx=-9 dy=0 dh=-9 dv=0 dx=0 dy=0 dh=0 dv=0
PairPos2: "'kern' Horizontal Kerning lookup 2 per glyph data 1" uni0695 dx=-9 dy=0 dh=-9 dv=0 dx=0 dy=0 dh=0 dv=0
PairPos2: "'kern' Horizontal Kerning lookup 2 per glyph data 1" uni0694 dx=-9 dy=0 dh=-9 dv=0 dx=0 dy=0 dh=0 dv=0
PairPos2: "'kern' Horizontal Kerning lookup 2 per glyph data 1" uni0691 dx=-5 dy=0 dh=-5 dv=0 dx=0 dy=0 dh=0 dv=0
PairPos2: "'kern' Horizontal Kerning lookup 2 per glyph data 1" uni0671 dx=51 dy=0 dh=51 dv=0 dx=0 dy=0 dh=0 dv=0
PairPos2: "'kern' Horizontal Kerning lookup 2 per glyph data 1" uni0632 dx=-9 dy=0 dh=-9 dv=0 dx=0 dy=0 dh=0 dv=0
PairPos2: "'kern' Horizontal Kerning lookup 2 per glyph data 1" uni0631 dx=-9 dy=0 dh=-9 dv=0 dx=0 dy=0 dh=0 dv=0
PairPos2: "'kern' Horizontal Kerning lookup 2 per glyph data 1" uni0625 dx=17 dy=0 dh=17 dv=0 dx=0 dy=0 dh=0 dv=0
PairPos2: "'kern' Horizontal Kerning lookup 2 per glyph data 1" uni0623 dx=43 dy=0 dh=43 dv=0 dx=0 dy=0 dh=0 dv=0
PairPos2: "'kern' Horizontal Kerning lookup 2 per glyph data 1" uni0622 dx=43 dy=0 dh=43 dv=0 dx=0 dy=0 dh=0 dv=0
EndChar

StartChar: asciitilde
Encoding: 126 126 96
Width: 368
GlyphClass: 1
Flags: W
LayerCount: 2
Fore
SplineSet
48 215 m 2,0,-1
 48 240 l 2,1,2
 48 250 48 250 49 255.5 c 128,-1,3
 50 261 50 261 57 265 c 0,4,5
 74 276 74 276 89.5 282 c 128,-1,6
 105 288 105 288 126 288 c 0,7,8
 159 288 159 288 185 276.5 c 128,-1,9
 211 265 211 265 242 265 c 0,10,11
 266 265 266 265 279.5 271 c 128,-1,12
 293 277 293 277 313 293 c 0,13,14
 316 295 316 295 318 294 c 128,-1,15
 320 293 320 293 320 291 c 2,16,-1
 320 267 l 2,17,18
 320 257 320 257 318.5 252 c 128,-1,19
 317 247 317 247 311 242 c 0,20,21
 295 229 295 229 281 223.5 c 128,-1,22
 267 218 267 218 242 218 c 0,23,24
 209 218 209 218 183 230 c 128,-1,25
 157 242 157 242 126 242 c 0,26,27
 103 242 103 242 89 236 c 128,-1,28
 75 230 75 230 55 213 c 0,29,30
 53 211 53 211 50.5 211.5 c 128,-1,31
 48 212 48 212 48 215 c 2,0,-1
EndSplineSet
EndChar

StartChar: exclamdown
Encoding: 161 161 97
Width: 143
GlyphClass: 1
Flags: W
LayerCount: 2
Fore
SplineSet
72 287 m 256,0,1
 55 287 55 287 43 300 c 128,-1,2
 31 313 31 313 31 329 c 0,3,4
 31 347 31 347 43 359.5 c 128,-1,5
 55 372 55 372 72 372 c 256,6,7
 89 372 89 372 101 359.5 c 128,-1,8
 113 347 113 347 113 329 c 0,9,10
 113 313 113 313 101 300 c 128,-1,11
 89 287 89 287 72 287 c 256,0,1
92 -199 m 2,12,-1
 52 -199 l 2,13,14
 47 -199 47 -199 47 -193 c 2,15,-1
 49 216 l 2,16,17
 49 222 49 222 54 222 c 0,18,19
 72 222 72 222 82.5 208 c 128,-1,20
 93 194 93 194 93 170 c 2,21,-1
 97 -193 l 2,22,23
 97 -199 97 -199 92 -199 c 2,12,-1
EndSplineSet
EndChar

StartChar: cent
Encoding: 162 162 98
Width: 359
GlyphClass: 1
Flags: W
LayerCount: 2
Fore
SplineSet
232 -9 m 1,0,-1
 232 -65 l 2,1,2
 232 -71 232 -71 227 -71 c 2,3,-1
 190 -71 l 2,4,5
 185 -71 185 -71 185 -65 c 2,6,-1
 185 -8 l 1,7,8
 118 1 118 1 79 50 c 128,-1,9
 40 99 40 99 40 177 c 0,10,11
 40 253 40 253 80 304 c 128,-1,12
 120 355 120 355 185 364 c 1,13,-1
 185 421 l 2,14,15
 185 427 185 427 190 427 c 2,16,-1
 227 427 l 2,17,18
 232 427 232 427 232 421 c 2,19,-1
 232 367 l 1,20,21
 253 366 253 366 270 361.5 c 128,-1,22
 287 357 287 357 303 349 c 0,23,24
 331 338 331 338 324 313 c 2,25,-1
 320 298 l 2,26,27
 319 292 319 292 315 292 c 0,28,29
 313 292 313 292 309 294 c 0,30,31
 290 305 290 305 272.5 311.5 c 128,-1,32
 255 318 255 318 232 319 c 1,33,-1
 232 38 l 1,34,35
 263 40 263 40 282.5 52.5 c 128,-1,36
 302 65 302 65 316 82 c 0,37,38
 318 84 318 84 320 86.5 c 128,-1,39
 322 89 322 89 326 89 c 0,40,41
 336 89 336 89 336 74 c 0,42,43
 336 46 336 46 307 21 c 128,-1,44
 278 -4 278 -4 232 -9 c 1,0,-1
185 41 m 1,45,-1
 185 317 l 1,46,47
 142 307 142 307 116.5 271 c 128,-1,48
 91 235 91 235 91 178 c 256,49,50
 91 121 91 121 115.5 86 c 128,-1,51
 140 51 140 51 185 41 c 1,45,-1
EndSplineSet
EndChar

StartChar: sterling
Encoding: 163 163 99
Width: 473
GlyphClass: 1
Flags: W
LayerCount: 2
Fore
SplineSet
185 47 m 1,0,-1
 399 47 l 2,1,2
 429 47 429 47 429 18 c 2,3,-1
 429 7 l 2,4,5
 429 0 429 0 422 0 c 2,6,-1
 56 0 l 2,7,8
 51 0 51 0 51 6 c 2,9,-1
 51 41 l 2,10,11
 51 47 51 47 56 47 c 2,12,-1
 139 47 l 1,13,14
 150 70 150 70 163 109.5 c 128,-1,15
 176 149 176 149 176 193 c 0,16,17
 176 210 176 210 171.5 225.5 c 128,-1,18
 167 241 167 241 154 262 c 1,19,-1
 56 262 l 2,20,21
 51 262 51 262 51 268 c 2,22,-1
 51 302 l 2,23,24
 51 308 51 308 56 308 c 2,25,-1
 129 308 l 1,26,27
 113 336 113 336 105 360 c 128,-1,28
 97 384 97 384 97 417 c 0,29,30
 97 486 97 486 144 526.5 c 128,-1,31
 191 567 191 567 265 567 c 0,32,33
 306 567 306 567 336.5 558 c 128,-1,34
 367 549 367 549 392 536 c 0,35,36
 411 526 411 526 419.5 516 c 128,-1,37
 428 506 428 506 424 492 c 2,38,-1
 419 476 l 2,39,40
 417 468 417 468 412 468 c 0,41,42
 405 468 405 468 399 474 c 0,43,44
 366 496 366 496 334.5 507.5 c 128,-1,45
 303 519 303 519 270 519 c 0,46,47
 217 519 217 519 182 492.5 c 128,-1,48
 147 466 147 466 147 417 c 0,49,50
 147 385 147 385 157 361 c 128,-1,51
 167 337 167 337 183 308 c 1,52,-1
 348 308 l 2,53,54
 378 308 378 308 378 279 c 2,55,-1
 378 269 l 2,56,57
 378 262 378 262 369 262 c 2,58,-1
 207 262 l 1,59,60
 215 244 215 244 219.5 228.5 c 128,-1,61
 224 213 224 213 224 193 c 0,62,63
 224 147 224 147 211 111.5 c 128,-1,64
 198 76 198 76 185 47 c 1,0,-1
EndSplineSet
EndChar

StartChar: yen
Encoding: 165 165 100
Width: 449
GlyphClass: 1
Flags: W
LayerCount: 2
Fore
SplineSet
200 133 m 1,0,-1
 47 133 l 2,1,2
 42 133 42 133 42 139 c 2,3,-1
 42 172 l 2,4,5
 42 178 42 178 47 178 c 2,6,-1
 200 178 l 1,7,-1
 200 219 l 1,8,-1
 182 251 l 1,9,-1
 47 251 l 2,10,11
 42 251 42 251 42 257 c 2,12,-1
 42 289 l 2,13,14
 42 295 42 295 47 295 c 2,15,-1
 157 295 l 1,16,-1
 20 548 l 2,17,18
 16 556 16 556 24 556 c 2,19,-1
 40 556 l 2,20,21
 60 556 60 556 72 546 c 128,-1,22
 84 536 84 536 96 513 c 2,23,-1
 227 275 l 1,24,-1
 375 543 l 2,25,26
 378 550 378 550 381 553 c 128,-1,27
 384 556 384 556 391 556 c 2,28,-1
 425 556 l 2,29,30
 436 556 436 556 430 547 c 2,31,-1
 291 295 l 1,32,-1
 399 295 l 2,33,34
 404 295 404 295 404 289 c 2,35,-1
 404 257 l 2,36,37
 404 251 404 251 399 251 c 2,38,-1
 269 251 l 1,39,-1
 251 219 l 1,40,-1
 251 178 l 1,41,-1
 399 178 l 2,42,43
 404 178 404 178 404 172 c 2,44,-1
 404 139 l 2,45,46
 404 133 404 133 399 133 c 2,47,-1
 251 133 l 1,48,-1
 251 6 l 2,49,50
 251 0 251 0 246 0 c 2,51,-1
 205 0 l 2,52,53
 200 0 200 0 200 6 c 2,54,-1
 200 133 l 1,0,-1
EndSplineSet
EndChar

StartChar: brokenbar
Encoding: 166 166 101
Width: 184
GlyphClass: 1
Flags: W
LayerCount: 2
Fore
SplineSet
74 272 m 2,0,1
 69 272 69 272 69 277 c 2,2,-1
 69 561 l 2,3,4
 69 567 69 567 74 567 c 0,5,6
 91 567 91 567 103 553 c 128,-1,7
 115 539 115 539 115 514 c 2,8,-1
 115 277 l 2,9,10
 115 272 115 272 110 272 c 2,11,-1
 74 272 l 2,0,1
74 -149 m 2,12,13
 69 -149 69 -149 69 -143 c 2,14,-1
 69 140 l 2,15,16
 69 146 69 146 74 146 c 2,17,-1
 110 146 l 2,18,19
 115 146 115 146 115 140 c 2,20,-1
 115 -143 l 2,21,22
 115 -149 115 -149 110 -149 c 2,23,-1
 74 -149 l 2,12,13
EndSplineSet
EndChar

StartChar: section
Encoding: 167 167 102
Width: 404
GlyphClass: 1
Flags: W
LayerCount: 2
Fore
SplineSet
258 124 m 1,0,1
 288 104 288 104 309 80.5 c 128,-1,2
 330 57 330 57 330 23 c 0,3,4
 330 -28 330 -28 291.5 -62.5 c 128,-1,5
 253 -97 253 -97 194 -97 c 0,6,7
 157 -97 157 -97 128.5 -86 c 128,-1,8
 100 -75 100 -75 85 -62 c 0,9,10
 72 -51 72 -51 66.5 -40.5 c 128,-1,11
 61 -30 61 -30 65 -19 c 2,12,-1
 69 -8 l 2,13,14
 72 2 72 2 80 -4 c 0,15,16
 103 -25 103 -25 129.5 -38 c 128,-1,17
 156 -51 156 -51 191 -51 c 0,18,19
 232 -51 232 -51 255.5 -32 c 128,-1,20
 279 -13 279 -13 279 18 c 0,21,22
 279 45 279 45 257 65.5 c 128,-1,23
 235 86 235 86 202 105 c 128,-1,24
 169 124 169 124 136 144 c 128,-1,25
 103 164 103 164 81 190 c 128,-1,26
 59 216 59 216 59 251 c 0,27,28
 59 284 59 284 74.5 307.5 c 128,-1,29
 90 331 90 331 112.5 348.5 c 128,-1,30
 135 366 135 366 155 377 c 1,31,32
 129 394 129 394 109 414.5 c 128,-1,33
 89 435 89 435 89 467 c 0,34,35
 89 513 89 513 123 540.5 c 128,-1,36
 157 568 157 568 213 568 c 0,37,38
 264 568 264 568 299 549 c 0,39,40
 315 542 315 542 319 533 c 128,-1,41
 323 524 323 524 320 513 c 2,42,-1
 316 498 l 2,43,44
 315 492 315 492 311 492 c 0,45,46
 310 492 310 492 308.5 492.5 c 128,-1,47
 307 493 307 493 305 493 c 0,48,49
 283 507 283 507 261 514 c 128,-1,50
 239 521 239 521 215 521 c 0,51,52
 139 521 139 521 139 469 c 0,53,54
 139 446 139 446 160 428.5 c 128,-1,55
 181 411 181 411 211.5 395.5 c 128,-1,56
 242 380 242 380 273 362 c 128,-1,57
 304 344 304 344 325 319 c 128,-1,58
 346 294 346 294 346 259 c 0,59,60
 346 227 346 227 332 201 c 128,-1,61
 318 175 318 175 297.5 156 c 128,-1,62
 277 137 277 137 258 124 c 1,0,1
224 144 m 1,63,64
 248 163 248 163 273 190 c 128,-1,65
 298 217 298 217 298 255 c 0,66,67
 298 279 298 279 280.5 297 c 128,-1,68
 263 315 263 315 237.5 329.5 c 128,-1,69
 212 344 212 344 188 357 c 1,70,71
 160 342 160 342 133 316.5 c 128,-1,72
 106 291 106 291 106 255 c 0,73,74
 106 230 106 230 123 211 c 128,-1,75
 140 192 140 192 167 176 c 128,-1,76
 194 160 194 160 224 144 c 1,63,64
EndSplineSet
EndChar

StartChar: dieresis
Encoding: 168 168 103
Width: 179
GlyphClass: 1
Flags: W
LayerCount: 2
Fore
SplineSet
0 458 m 0,0,1
 0 472 0 472 10 482 c 128,-1,2
 20 492 20 492 33 492 c 0,3,4
 47 492 47 492 57 482 c 128,-1,5
 67 472 67 472 67 458 c 0,6,7
 67 445 67 445 57 435.5 c 128,-1,8
 47 426 47 426 33 426 c 0,9,10
 20 426 20 426 10 435.5 c 128,-1,11
 0 445 0 445 0 458 c 0,0,1
112 458 m 0,12,13
 112 472 112 472 122 482 c 128,-1,14
 132 492 132 492 145 492 c 0,15,16
 159 492 159 492 169 482 c 128,-1,17
 179 472 179 472 179 458 c 0,18,19
 179 445 179 445 169 435.5 c 128,-1,20
 159 426 159 426 145 426 c 0,21,22
 132 426 132 426 122 435.5 c 128,-1,23
 112 445 112 445 112 458 c 0,12,13
EndSplineSet
EndChar

StartChar: copyright
Encoding: 169 169 104
Width: 512
GlyphClass: 1
Flags: W
LayerCount: 2
Fore
SplineSet
33 340 m 256,0,1
 33 407 33 407 60.5 457 c 128,-1,2
 88 507 88 507 138.5 535 c 128,-1,3
 189 563 189 563 256 563 c 256,4,5
 323 563 323 563 373 535 c 128,-1,6
 423 507 423 507 451 457 c 128,-1,7
 479 407 479 407 479 340 c 256,8,9
 479 273 479 273 451 223 c 128,-1,10
 423 173 423 173 373 145 c 128,-1,11
 323 117 323 117 256 117 c 256,12,13
 189 117 189 117 138.5 145 c 128,-1,14
 88 173 88 173 60.5 223 c 128,-1,15
 33 273 33 273 33 340 c 256,0,1
256 153 m 256,16,17
 341 153 341 153 391.5 204 c 128,-1,18
 442 255 442 255 442 340 c 256,19,20
 442 425 442 425 391.5 476 c 128,-1,21
 341 527 341 527 256 527 c 256,22,23
 171 527 171 527 121 476 c 128,-1,24
 71 425 71 425 71 340 c 256,25,26
 71 255 71 255 121 204 c 128,-1,27
 171 153 171 153 256 153 c 256,16,17
333 413 m 2,28,29
 333 409 333 409 330 409 c 0,30,31
 328 409 328 409 325 412 c 0,32,33
 312 421 312 421 296.5 427 c 128,-1,34
 281 433 281 433 264 433 c 0,35,36
 230 433 230 433 208.5 408 c 128,-1,37
 187 383 187 383 187 339 c 0,38,39
 187 294 187 294 207.5 271 c 128,-1,40
 228 248 228 248 263 248 c 0,41,42
 289 248 289 248 305 258.5 c 128,-1,43
 321 269 321 269 331 283 c 0,44,45
 335 288 335 288 337 288 c 0,46,47
 342 288 342 288 342 281 c 0,48,49
 342 257 342 257 317.5 237 c 128,-1,50
 293 217 293 217 260 217 c 0,51,52
 213 217 213 217 182 249.5 c 128,-1,53
 151 282 151 282 151 340 c 256,54,55
 151 398 151 398 183.5 430.5 c 128,-1,56
 216 463 216 463 264 463 c 0,57,58
 296 463 296 463 320 451 c 0,59,60
 337 443 337 443 335 431 c 2,61,-1
 333 413 l 2,28,29
EndSplineSet
EndChar

StartChar: ordfeminine
Encoding: 170 170 105
Width: 328
GlyphClass: 1
Flags: W
LayerCount: 2
Fore
SplineSet
260 308 m 1,0,1
 242 281 242 281 215.5 269 c 128,-1,2
 189 257 189 257 158 257 c 0,3,4
 115 257 115 257 84.5 277 c 128,-1,5
 54 297 54 297 37 330.5 c 128,-1,6
 20 364 20 364 20 404 c 0,7,8
 20 448 20 448 38.5 481.5 c 128,-1,9
 57 515 57 515 88.5 534 c 128,-1,10
 120 553 120 553 160 553 c 0,11,12
 192 553 192 553 218 540 c 128,-1,13
 244 527 244 527 260 504 c 1,14,15
 260 527 260 527 269 537.5 c 128,-1,16
 278 548 278 548 291 548 c 2,17,-1
 297 548 l 2,18,19
 301 548 301 548 301 543 c 2,20,-1
 301 269 l 2,21,22
 301 264 301 264 297 264 c 2,23,-1
 263 264 l 2,24,25
 260 264 260 264 260 269 c 2,26,-1
 260 308 l 1,0,1
156 296 m 0,27,28
 182 296 182 296 205 306 c 128,-1,29
 228 316 228 316 242.5 339.5 c 128,-1,30
 257 363 257 363 257 404 c 0,31,32
 257 446 257 446 242 469.5 c 128,-1,33
 227 493 227 493 205 503 c 128,-1,34
 183 513 183 513 160 513 c 0,35,36
 116 513 116 513 90.5 482.5 c 128,-1,37
 65 452 65 452 65 404 c 0,38,39
 65 350 65 350 93.5 323 c 128,-1,40
 122 296 122 296 156 296 c 0,27,28
EndSplineSet
EndChar

StartChar: guillemotleft
Encoding: 171 171 106
Width: 361
GlyphClass: 1
Flags: W
LayerCount: 2
Fore
SplineSet
228 184 m 1,0,-1
 332 47 l 2,1,2
 337 40 337 40 329 40 c 2,3,-1
 285 40 l 2,4,5
 276 40 276 40 270 48 c 2,6,-1
 174 170 l 2,7,8
 167 179 167 179 167 184 c 256,9,10
 167 189 167 189 174 198 c 2,11,-1
 270 320 l 2,12,13
 276 328 276 328 285 328 c 2,14,-1
 329 328 l 2,15,16
 337 328 337 328 332 321 c 2,17,-1
 228 184 l 1,0,-1
90 184 m 1,18,-1
 194 47 l 2,19,20
 199 40 199 40 191 40 c 2,21,-1
 147 40 l 2,22,23
 137 40 137 40 131 48 c 2,24,-1
 36 170 l 2,25,26
 29 179 29 179 29 184 c 256,27,28
 29 189 29 189 36 198 c 2,29,-1
 131 320 l 2,30,31
 137 328 137 328 147 328 c 2,32,-1
 191 328 l 2,33,34
 199 328 199 328 194 321 c 2,35,-1
 90 184 l 1,18,-1
EndSplineSet
EndChar

StartChar: uni00AD
Encoding: 173 173 107
Width: 305
GlyphClass: 1
Flags: W
LayerCount: 2
Fore
SplineSet
46 180 m 2,0,1
 41 180 41 180 41 186 c 2,2,-1
 41 221 l 2,3,4
 41 227 41 227 46 227 c 2,5,-1
 260 227 l 2,6,7
 265 227 265 227 265 221 c 2,8,-1
 265 186 l 2,9,10
 265 180 265 180 260 180 c 2,11,-1
 46 180 l 2,0,1
EndSplineSet
EndChar

StartChar: registered
Encoding: 174 174 108
Width: 512
GlyphClass: 1
Flags: W
LayerCount: 2
Fore
SplineSet
33 340 m 256,0,1
 33 407 33 407 60.5 457 c 128,-1,2
 88 507 88 507 138.5 535 c 128,-1,3
 189 563 189 563 256 563 c 256,4,5
 323 563 323 563 373 535 c 128,-1,6
 423 507 423 507 451 457 c 128,-1,7
 479 407 479 407 479 340 c 256,8,9
 479 273 479 273 451 223 c 128,-1,10
 423 173 423 173 373 145 c 128,-1,11
 323 117 323 117 256 117 c 256,12,13
 189 117 189 117 138.5 145 c 128,-1,14
 88 173 88 173 60.5 223 c 128,-1,15
 33 273 33 273 33 340 c 256,0,1
256 153 m 256,16,17
 341 153 341 153 391.5 204 c 128,-1,18
 442 255 442 255 442 340 c 256,19,20
 442 425 442 425 391.5 476 c 128,-1,21
 341 527 341 527 256 527 c 256,22,23
 171 527 171 527 121 476 c 128,-1,24
 71 425 71 425 71 340 c 256,25,26
 71 255 71 255 121 204 c 128,-1,27
 171 153 171 153 256 153 c 256,16,17
207 308 m 1,28,-1
 207 225 l 2,29,30
 207 222 207 222 205 222 c 2,31,-1
 173 222 l 2,32,33
 171 222 171 222 171 225 c 2,34,-1
 171 457 l 2,35,36
 171 459 171 459 173 459 c 2,37,-1
 262 459 l 2,38,39
 303 459 303 459 325.5 440 c 128,-1,40
 348 421 348 421 348 386 c 0,41,42
 348 358 348 358 334 338.5 c 128,-1,43
 320 319 320 319 297 311 c 1,44,-1
 353 225 l 2,45,46
 356 222 356 222 351 222 c 2,47,-1
 322 222 l 2,48,49
 316 222 316 222 313 226 c 2,50,-1
 261 308 l 1,51,-1
 207 308 l 1,28,-1
207 340 m 1,52,-1
 250 340 l 2,53,54
 312 340 312 340 312 388 c 0,55,56
 312 413 312 413 296 420.5 c 128,-1,57
 280 428 280 428 254 428 c 2,58,-1
 207 428 l 1,59,-1
 207 340 l 1,52,-1
EndSplineSet
EndChar

StartChar: macron
Encoding: 175 175 109
Width: 202
GlyphClass: 1
Flags: W
LayerCount: 2
Fore
SplineSet
5 431 m 2,0,1
 0 431 0 431 0 437 c 2,2,-1
 0 464 l 2,3,4
 0 469 0 469 5 469 c 2,5,-1
 197 469 l 2,6,7
 202 469 202 469 202 464 c 2,8,-1
 202 437 l 2,9,10
 202 431 202 431 197 431 c 2,11,-1
 5 431 l 2,0,1
EndSplineSet
EndChar

StartChar: degree
Encoding: 176 176 110
Width: 261
GlyphClass: 1
Flags: W
LayerCount: 2
Fore
SplineSet
130 369 m 0,0,1
 84 369 84 369 55 400 c 128,-1,2
 26 431 26 431 26 474 c 0,3,4
 26 521 26 521 55 550 c 128,-1,5
 84 579 84 579 130 579 c 0,6,7
 177 579 177 579 206 550 c 128,-1,8
 235 521 235 521 235 474 c 0,9,10
 235 431 235 431 206 400 c 128,-1,11
 177 369 177 369 130 369 c 0,0,1
130 407 m 0,12,13
 159 407 159 407 176 427 c 128,-1,14
 193 447 193 447 193 474 c 0,15,16
 193 503 193 503 176 523 c 128,-1,17
 159 543 159 543 130 543 c 0,18,19
 102 543 102 543 85 523 c 128,-1,20
 68 503 68 503 68 474 c 0,21,22
 68 447 68 447 85 427 c 128,-1,23
 102 407 102 407 130 407 c 0,12,13
EndSplineSet
EndChar

StartChar: plusminus
Encoding: 177 177 111
Width: 384
GlyphClass: 1
Flags: W
LayerCount: 2
Fore
SplineSet
169 249 m 1,0,-1
 46 249 l 2,1,2
 41 249 41 249 41 255 c 2,3,-1
 41 289 l 2,4,5
 41 295 41 295 46 295 c 2,6,-1
 169 295 l 1,7,-1
 169 437 l 2,8,9
 169 443 169 443 174 443 c 0,10,11
 215 443 215 443 215 397 c 2,12,-1
 215 295 l 1,13,-1
 339 295 l 2,14,15
 344 295 344 295 344 289 c 2,16,-1
 344 255 l 2,17,18
 344 249 344 249 339 249 c 2,19,-1
 215 249 l 1,20,-1
 215 107 l 2,21,22
 215 101 215 101 210 101 c 2,23,-1
 174 101 l 2,24,25
 169 101 169 101 169 107 c 2,26,-1
 169 249 l 1,0,-1
46 0 m 2,27,28
 41 0 41 0 41 6 c 2,29,-1
 41 41 l 2,30,31
 41 47 41 47 46 47 c 2,32,-1
 305 47 l 2,33,34
 324 47 324 47 334 36.5 c 128,-1,35
 344 26 344 26 344 11 c 2,36,-1
 344 6 l 2,37,38
 344 0 344 0 339 0 c 2,39,-1
 46 0 l 2,27,28
EndSplineSet
EndChar

StartChar: twosuperior
Encoding: 178 178 112
Width: 284
GlyphClass: 1
Flags: W
LayerCount: 2
Fore
SplineSet
83 279 m 1,0,-1
 232 279 l 2,1,2
 250 279 250 279 250 263 c 2,3,-1
 250 243 l 2,4,5
 250 239 250 239 245 239 c 2,6,-1
 37 239 l 2,7,8
 34 239 34 239 34 242 c 0,9,10
 34 285 34 285 51.5 312.5 c 128,-1,11
 69 340 69 340 94.5 358 c 128,-1,12
 120 376 120 376 145.5 391 c 128,-1,13
 171 406 171 406 188.5 423.5 c 128,-1,14
 206 441 206 441 206 469 c 0,15,16
 206 495 206 495 189.5 508.5 c 128,-1,17
 173 522 173 522 133 522 c 0,18,19
 92 522 92 522 54 494 c 0,20,21
 52 493 52 493 50 492 c 128,-1,22
 48 491 48 491 46 491 c 0,23,24
 42 491 42 491 42 496 c 2,25,-1
 39 518 l 2,26,27
 36 533 36 533 58 543 c 0,28,29
 73 551 73 551 92 556.5 c 128,-1,30
 111 562 111 562 135 562 c 0,31,32
 187 562 187 562 219 536.5 c 128,-1,33
 251 511 251 511 251 471 c 0,34,35
 251 440 251 440 236 418.5 c 128,-1,36
 221 397 221 397 198 380.5 c 128,-1,37
 175 364 175 364 151 349.5 c 128,-1,38
 127 335 127 335 108 318.5 c 128,-1,39
 89 302 89 302 83 279 c 1,0,-1
EndSplineSet
EndChar

StartChar: threesuperior
Encoding: 179 179 113
Width: 301
GlyphClass: 1
Flags: W
LayerCount: 2
Fore
SplineSet
202 404 m 1,0,1
 231 397 231 397 248 379.5 c 128,-1,2
 265 362 265 362 265 327 c 0,3,4
 265 287 265 287 235 260 c 128,-1,5
 205 233 205 233 149 233 c 0,6,7
 112 233 112 233 86.5 247.5 c 128,-1,8
 61 262 61 262 48.5 280.5 c 128,-1,9
 36 299 36 299 36 311 c 0,10,11
 36 315 36 315 38 318.5 c 128,-1,12
 40 322 40 322 44 322 c 256,13,14
 48 322 48 322 52 316 c 0,15,16
 84 272 84 272 142 272 c 0,17,18
 220 272 220 272 220 325 c 0,19,20
 220 354 220 354 197.5 370 c 128,-1,21
 175 386 175 386 134 386 c 2,22,-1
 103 386 l 2,23,24
 86 386 86 386 86 403 c 2,25,-1
 86 421 l 2,26,27
 86 424 86 424 90 424 c 2,28,-1
 142 424 l 2,29,30
 175 424 175 424 193.5 436 c 128,-1,31
 212 448 212 448 212 477 c 0,32,33
 212 523 212 523 138 523 c 0,34,35
 116 523 116 523 96.5 516 c 128,-1,36
 77 509 77 509 59 497 c 0,37,38
 55 493 55 493 51 493 c 256,39,40
 47 493 47 493 47 498 c 2,41,-1
 44 518 l 2,42,43
 43 526 43 526 48 531 c 128,-1,44
 53 536 53 536 63 543 c 0,45,46
 76 550 76 550 97.5 556 c 128,-1,47
 119 562 119 562 142 562 c 0,48,49
 195 562 195 562 225 540 c 128,-1,50
 255 518 255 518 255 479 c 0,51,52
 255 456 255 456 244 435.5 c 128,-1,53
 233 415 233 415 202 404 c 1,0,1
EndSplineSet
EndChar

StartChar: acute
Encoding: 180 180 114
Width: 139
GlyphClass: 1
Flags: W
LayerCount: 2
Fore
SplineSet
3 436 m 2,0,-1
 66 493 l 2,1,2
 71 498 71 498 75 500 c 128,-1,3
 79 502 79 502 87 502 c 2,4,-1
 136 502 l 2,5,6
 140 502 140 502 140.5 500 c 128,-1,7
 141 498 141 498 139 496 c 2,8,-1
 68 440 l 2,9,10
 56 431 56 431 43 431 c 2,11,-1
 6 431 l 2,12,13
 3 431 3 431 2 433 c 128,-1,14
 1 435 1 435 3 436 c 2,0,-1
EndSplineSet
EndChar

StartChar: paragraph
Encoding: 182 182 115
Width: 433
GlyphClass: 1
Flags: W
LayerCount: 2
Fore
SplineSet
211 221 m 1,0,-1
 207 221 l 2,1,2
 134 221 134 221 87 266.5 c 128,-1,3
 40 312 40 312 40 391 c 0,4,5
 40 464 40 464 84.5 510 c 128,-1,6
 129 556 129 556 231 556 c 2,7,-1
 302 556 l 2,8,9
 363 556 363 556 363 491 c 2,10,-1
 363 6 l 2,11,12
 363 0 363 0 358 0 c 2,13,-1
 328 0 l 2,14,15
 323 0 323 0 323 6 c 2,16,-1
 323 514 l 1,17,-1
 251 514 l 1,18,-1
 251 6 l 2,19,20
 251 0 251 0 246 0 c 2,21,-1
 216 0 l 2,22,23
 211 0 211 0 211 6 c 2,24,-1
 211 221 l 1,0,-1
EndSplineSet
EndChar

StartChar: periodcentered
Encoding: 183 183 116
Width: 137
GlyphClass: 1
Flags: W
LayerCount: 2
Fore
SplineSet
68 322 m 0,0,1
 85 322 85 322 97 309 c 128,-1,2
 109 296 109 296 109 279 c 256,3,4
 109 262 109 262 97 249.5 c 128,-1,5
 85 237 85 237 68 237 c 0,6,7
 52 237 52 237 39.5 249.5 c 128,-1,8
 27 262 27 262 27 279 c 256,9,10
 27 296 27 296 39.5 309 c 128,-1,11
 52 322 52 322 68 322 c 0,0,1
EndSplineSet
EndChar

StartChar: cedilla
Encoding: 184 184 117
Width: 98
GlyphClass: 1
Flags: W
LayerCount: 2
Fore
SplineSet
97 -1 m 2,0,-1
 58 -77 l 2,1,2
 54 -86 54 -86 37 -86 c 2,3,-1
 4 -86 l 2,4,5
 -3 -86 -3 -86 1 -80 c 2,6,-1
 48 -5 l 2,7,8
 53 2 53 2 58.5 3.5 c 128,-1,9
 64 5 64 5 71 5 c 2,10,-1
 93 5 l 2,11,12
 99 5 99 5 97 -1 c 2,0,-1
EndSplineSet
EndChar

StartChar: onesuperior
Encoding: 185 185 118
Width: 194
GlyphClass: 1
Flags: W
LayerCount: 2
Fore
SplineSet
93 514 m 1,0,-1
 31 493 l 2,1,2
 28 492 28 492 28 494 c 2,3,-1
 28 532 l 2,4,5
 28 536 28 536 33 538 c 2,6,-1
 71 551 l 2,7,8
 79 553 79 553 85.5 554.5 c 128,-1,9
 92 556 92 556 98 556 c 2,10,-1
 116 556 l 2,11,12
 138 556 138 556 138 528 c 2,13,-1
 138 245 l 2,14,15
 138 239 138 239 133 239 c 2,16,-1
 98 239 l 2,17,18
 93 239 93 239 93 245 c 2,19,-1
 93 514 l 1,0,-1
EndSplineSet
EndChar

StartChar: ordmasculine
Encoding: 186 186 119
Width: 320
GlyphClass: 1
Flags: W
LayerCount: 2
Fore
SplineSet
159 257 m 0,0,1
 98 257 98 257 59 297 c 128,-1,2
 20 337 20 337 20 404 c 256,3,4
 20 471 20 471 59 512 c 128,-1,5
 98 553 98 553 159 553 c 0,6,7
 224 553 224 553 262 512 c 128,-1,8
 300 471 300 471 300 404 c 0,9,10
 300 338 300 338 262 297.5 c 128,-1,11
 224 257 224 257 159 257 c 0,0,1
159 296 m 256,12,13
 203 296 203 296 229.5 325.5 c 128,-1,14
 256 355 256 355 256 404 c 256,15,16
 256 453 256 453 229 483 c 128,-1,17
 202 513 202 513 159 513 c 0,18,19
 115 513 115 513 90 483 c 128,-1,20
 65 453 65 453 65 404 c 0,21,22
 65 356 65 356 90 326 c 128,-1,23
 115 296 115 296 159 296 c 256,12,13
EndSplineSet
EndChar

StartChar: guillemotright
Encoding: 187 187 120
Width: 361
GlyphClass: 1
Flags: W
LayerCount: 2
Fore
SplineSet
134 184 m 1,0,-1
 30 321 l 2,1,2
 25 328 25 328 33 328 c 2,3,-1
 77 328 l 2,4,5
 87 328 87 328 93 320 c 2,6,-1
 188 198 l 2,7,8
 195 189 195 189 195 184 c 256,9,10
 195 179 195 179 188 170 c 2,11,-1
 93 48 l 2,12,13
 87 40 87 40 77 40 c 2,14,-1
 33 40 l 2,15,16
 25 40 25 40 30 47 c 2,17,-1
 134 184 l 1,0,-1
273 184 m 1,18,-1
 168 321 l 2,19,20
 163 328 163 328 171 328 c 2,21,-1
 215 328 l 2,22,23
 220 328 220 328 223.5 326.5 c 128,-1,24
 227 325 227 325 231 320 c 2,25,-1
 326 198 l 2,26,27
 333 189 333 189 333 184 c 256,28,29
 333 179 333 179 326 170 c 2,30,-1
 231 48 l 2,31,32
 227 43 227 43 223.5 41.5 c 128,-1,33
 220 40 220 40 215 40 c 2,34,-1
 171 40 l 2,35,36
 163 40 163 40 168 47 c 2,37,-1
 273 184 l 1,18,-1
EndSplineSet
EndChar

StartChar: onequarter
Encoding: 188 188 121
Width: 601
GlyphClass: 1
Flags: W
LayerCount: 2
Fore
SplineSet
113 0 m 2,0,1
 108 0 108 0 111 6 c 2,2,-1
 411 549 l 2,3,4
 415 556 415 556 418 556 c 2,5,-1
 424 556 l 2,6,7
 442 556 442 556 446 542 c 128,-1,8
 450 528 450 528 436 503 c 2,9,-1
 163 6 l 2,10,11
 160 0 160 0 155 0 c 2,12,-1
 113 0 l 2,0,1
93 514 m 1,13,-1
 31 493 l 2,14,15
 28 492 28 492 28 494 c 2,16,-1
 28 532 l 2,17,18
 28 536 28 536 33 538 c 2,19,-1
 71 551 l 2,20,21
 79 553 79 553 85.5 554.5 c 128,-1,22
 92 556 92 556 98 556 c 2,23,-1
 116 556 l 2,24,25
 138 556 138 556 138 528 c 2,26,-1
 138 245 l 2,27,28
 138 239 138 239 133 239 c 2,29,-1
 98 239 l 2,30,31
 93 239 93 239 93 245 c 2,32,-1
 93 514 l 1,13,-1
479 79 m 1,33,-1
 320 79 l 2,34,35
 317 79 317 79 317 82 c 2,36,-1
 317 97 l 2,37,38
 317 102 317 102 318 105.5 c 128,-1,39
 319 109 319 109 323 115 c 2,40,-1
 460 308 l 2,41,42
 466 317 466 317 477 317 c 2,43,-1
 502 317 l 2,44,45
 510 317 510 317 516 313 c 128,-1,46
 522 309 522 309 522 296 c 2,47,-1
 522 117 l 1,48,-1
 548 117 l 2,49,50
 566 117 566 117 566 100 c 2,51,-1
 566 83 l 2,52,53
 566 79 566 79 561 79 c 2,54,-1
 522 79 l 1,55,-1
 522 3 l 2,56,57
 522 0 522 0 519 0 c 2,58,-1
 482 0 l 2,59,60
 479 0 479 0 479 3 c 2,61,-1
 479 79 l 1,33,-1
367 117 m 1,62,-1
 479 117 l 1,63,-1
 479 275 l 1,64,-1
 367 117 l 1,62,-1
EndSplineSet
Ligature2: "'frac' Diagonal Fractions lookup 4 subtable" one fraction four
Ligature2: "'frac' Diagonal Fractions lookup 4 subtable" one slash four
EndChar

StartChar: onehalf
Encoding: 189 189 122
Width: 672
GlyphClass: 1
Flags: W
LayerCount: 2
Fore
SplineSet
113 0 m 2,0,1
 108 0 108 0 111 6 c 2,2,-1
 411 549 l 2,3,4
 415 556 415 556 418 556 c 2,5,-1
 424 556 l 2,6,7
 442 556 442 556 446 542 c 128,-1,8
 450 528 450 528 436 503 c 2,9,-1
 163 6 l 2,10,11
 160 0 160 0 155 0 c 2,12,-1
 113 0 l 2,0,1
93 514 m 1,13,-1
 31 493 l 2,14,15
 28 492 28 492 28 494 c 2,16,-1
 28 532 l 2,17,18
 28 536 28 536 33 538 c 2,19,-1
 71 551 l 2,20,21
 79 553 79 553 85.5 554.5 c 128,-1,22
 92 556 92 556 98 556 c 2,23,-1
 116 556 l 2,24,25
 138 556 138 556 138 528 c 2,26,-1
 138 245 l 2,27,28
 138 239 138 239 133 239 c 2,29,-1
 98 239 l 2,30,31
 93 239 93 239 93 245 c 2,32,-1
 93 514 l 1,13,-1
444 41 m 1,33,-1
 593 41 l 2,34,35
 611 41 611 41 611 24 c 2,36,-1
 611 4 l 2,37,38
 611 0 611 0 606 0 c 2,39,-1
 398 0 l 2,40,41
 395 0 395 0 395 3 c 0,42,43
 395 46 395 46 412.5 73.5 c 128,-1,44
 430 101 430 101 455.5 119 c 128,-1,45
 481 137 481 137 506.5 152 c 128,-1,46
 532 167 532 167 549.5 185 c 128,-1,47
 567 203 567 203 567 231 c 0,48,49
 567 257 567 257 550.5 270 c 128,-1,50
 534 283 534 283 494 283 c 0,51,52
 453 283 453 283 415 257 c 0,53,54
 413 256 413 256 411 254.5 c 128,-1,55
 409 253 409 253 407 253 c 0,56,57
 403 253 403 253 403 258 c 2,58,-1
 400 279 l 2,59,60
 398 294 398 294 419 304 c 0,61,62
 434 312 434 312 453 317.5 c 128,-1,63
 472 323 472 323 496 323 c 0,64,65
 548 323 548 323 580 298 c 128,-1,66
 612 273 612 273 612 233 c 0,67,68
 612 202 612 202 597 180.5 c 128,-1,69
 582 159 582 159 559 142.5 c 128,-1,70
 536 126 536 126 512 111 c 128,-1,71
 488 96 488 96 469 79.5 c 128,-1,72
 450 63 450 63 444 41 c 1,33,-1
EndSplineSet
Ligature2: "'frac' Diagonal Fractions lookup 4 subtable" one fraction two
Ligature2: "'frac' Diagonal Fractions lookup 4 subtable" one slash two
EndChar

StartChar: threequarters
Encoding: 190 190 123
Width: 683
GlyphClass: 1
Flags: W
LayerCount: 2
Fore
SplineSet
202 404 m 1,0,1
 231 397 231 397 248 379.5 c 128,-1,2
 265 362 265 362 265 327 c 0,3,4
 265 287 265 287 235 260 c 128,-1,5
 205 233 205 233 149 233 c 0,6,7
 112 233 112 233 86.5 247.5 c 128,-1,8
 61 262 61 262 48.5 280.5 c 128,-1,9
 36 299 36 299 36 311 c 0,10,11
 36 315 36 315 38 318.5 c 128,-1,12
 40 322 40 322 44 322 c 256,13,14
 48 322 48 322 52 316 c 0,15,16
 84 272 84 272 142 272 c 0,17,18
 220 272 220 272 220 325 c 0,19,20
 220 354 220 354 197.5 370 c 128,-1,21
 175 386 175 386 134 386 c 2,22,-1
 103 386 l 2,23,24
 86 386 86 386 86 403 c 2,25,-1
 86 421 l 2,26,27
 86 424 86 424 90 424 c 2,28,-1
 142 424 l 2,29,30
 175 424 175 424 193.5 436 c 128,-1,31
 212 448 212 448 212 477 c 0,32,33
 212 523 212 523 138 523 c 0,34,35
 116 523 116 523 96.5 516 c 128,-1,36
 77 509 77 509 59 497 c 0,37,38
 55 493 55 493 51 493 c 256,39,40
 47 493 47 493 47 498 c 2,41,-1
 44 518 l 2,42,43
 43 526 43 526 48 531 c 128,-1,44
 53 536 53 536 63 543 c 0,45,46
 76 550 76 550 97.5 556 c 128,-1,47
 119 562 119 562 142 562 c 0,48,49
 195 562 195 562 225 540 c 128,-1,50
 255 518 255 518 255 479 c 0,51,52
 255 456 255 456 244 435.5 c 128,-1,53
 233 415 233 415 202 404 c 1,0,1
197 0 m 2,54,55
 192 0 192 0 195 6 c 2,56,-1
 493 549 l 2,57,58
 497 556 497 556 500 556 c 2,59,-1
 507 556 l 2,60,61
 524 556 524 556 528 542 c 128,-1,62
 532 528 532 528 518 503 c 2,63,-1
 247 6 l 2,64,65
 244 0 244 0 239 0 c 2,66,-1
 197 0 l 2,54,55
563 79 m 1,67,-1
 404 79 l 2,68,69
 400 79 400 79 400 82 c 2,70,-1
 400 97 l 2,71,72
 400 102 400 102 401 105.5 c 128,-1,73
 402 109 402 109 407 115 c 2,74,-1
 543 308 l 2,75,76
 551 317 551 317 560 317 c 2,77,-1
 585 317 l 2,78,79
 593 317 593 317 599 313 c 128,-1,80
 605 309 605 309 605 296 c 2,81,-1
 605 117 l 1,82,-1
 632 117 l 2,83,84
 648 117 648 117 648 100 c 2,85,-1
 648 83 l 2,86,87
 648 79 648 79 644 79 c 2,88,-1
 605 79 l 1,89,-1
 605 3 l 2,90,91
 605 0 605 0 603 0 c 2,92,-1
 565 0 l 2,93,94
 563 0 563 0 563 3 c 2,95,-1
 563 79 l 1,67,-1
450 117 m 1,96,-1
 563 117 l 1,97,-1
 563 275 l 1,98,-1
 450 117 l 1,96,-1
EndSplineSet
Ligature2: "'frac' Diagonal Fractions lookup 4 subtable" three fraction four
Ligature2: "'frac' Diagonal Fractions lookup 4 subtable" three slash four
EndChar

StartChar: questiondown
Encoding: 191 191 124
Width: 325
GlyphClass: 1
Flags: W
LayerCount: 2
Fore
SplineSet
189 287 m 256,0,1
 172 287 172 287 160 300 c 128,-1,2
 148 313 148 313 148 329 c 0,3,4
 148 347 148 347 160 359.5 c 128,-1,5
 172 372 172 372 189 372 c 256,6,7
 206 372 206 372 218 359.5 c 128,-1,8
 230 347 230 347 230 329 c 0,9,10
 230 313 230 313 218 300 c 128,-1,11
 206 287 206 287 189 287 c 256,0,1
12 -52 m 0,12,13
 12 -13 12 -13 32 17.5 c 128,-1,14
 52 48 52 48 82.5 75 c 128,-1,15
 113 102 113 102 146 129 c 0,16,17
 159 140 159 140 162.5 150 c 128,-1,18
 166 160 166 160 166 178 c 2,19,-1
 166 216 l 2,20,21
 166 222 166 222 171 222 c 2,22,-1
 176 222 l 2,23,24
 211 222 211 222 211 176 c 0,25,26
 211 146 211 146 196 125 c 128,-1,27
 181 104 181 104 159 86.5 c 128,-1,28
 137 69 137 69 115 50.5 c 128,-1,29
 93 32 93 32 78 7.5 c 128,-1,30
 63 -17 63 -17 63 -52 c 0,31,32
 63 -103 63 -103 95 -132.5 c 128,-1,33
 127 -162 127 -162 184 -162 c 0,34,35
 256 -162 256 -162 315 -119 c 0,36,37
 321 -114 321 -114 328 -114 c 0,38,39
 333 -114 333 -114 335 -121 c 2,40,-1
 345 -151 l 2,41,42
 347 -156 347 -156 341 -159 c 0,43,44
 306 -184 306 -184 268 -197 c 128,-1,45
 230 -210 230 -210 185 -210 c 0,46,47
 103 -210 103 -210 57.5 -169 c 128,-1,48
 12 -128 12 -128 12 -52 c 0,12,13
EndSplineSet
EndChar

StartChar: Agrave
Encoding: 192 192 125
Width: 498
GlyphClass: 1
Flags: W
LayerCount: 2
Fore
SplineSet
172 685 m 2,0,1
 170 687 170 687 170.5 689 c 128,-1,2
 171 691 171 691 174 691 c 2,3,-1
 224 691 l 2,4,5
 232 691 232 691 236 689 c 128,-1,6
 240 687 240 687 245 682 c 2,7,-1
 308 625 l 2,8,9
 310 624 310 624 309 621.5 c 128,-1,10
 308 619 308 619 305 619 c 2,11,-1
 268 619 l 2,12,13
 256 619 256 619 243 629 c 2,14,-1
 172 685 l 2,0,1
126 169 m 1,15,-1
 69 12 l 2,16,17
 66 5 66 5 64 2.5 c 128,-1,18
 62 0 62 0 54 0 c 2,19,-1
 17 0 l 2,20,21
 10 0 10 0 13 7 c 2,22,-1
 224 549 l 2,23,24
 228 556 228 556 233 556 c 2,25,-1
 238 556 l 2,26,27
 258 556 258 556 269.5 548.5 c 128,-1,28
 281 541 281 541 288 521 c 2,29,-1
 487 7 l 2,30,31
 490 0 490 0 483 0 c 2,32,-1
 444 0 l 2,33,34
 437 0 437 0 434 2.5 c 128,-1,35
 431 5 431 5 429 12 c 2,36,-1
 370 169 l 1,37,-1
 126 169 l 1,15,-1
144 216 m 1,38,-1
 352 216 l 1,39,-1
 248 493 l 1,40,-1
 144 216 l 1,38,-1
EndSplineSet
EndChar

StartChar: Aacute
Encoding: 193 193 126
Width: 498
GlyphClass: 1
Flags: W
LayerCount: 2
Fore
SplineSet
182 625 m 2,0,-1
 244 682 l 2,1,2
 249 687 249 687 253 689 c 128,-1,3
 257 691 257 691 265 691 c 2,4,-1
 314 691 l 2,5,6
 321 691 321 691 318 685 c 2,7,-1
 246 629 l 2,8,9
 233 619 233 619 221 619 c 2,10,-1
 184 619 l 2,11,12
 181 619 181 619 180 621.5 c 128,-1,13
 179 624 179 624 182 625 c 2,0,-1
126 169 m 1,14,-1
 69 12 l 2,15,16
 66 5 66 5 64 2.5 c 128,-1,17
 62 0 62 0 54 0 c 2,18,-1
 17 0 l 2,19,20
 10 0 10 0 13 7 c 2,21,-1
 224 549 l 2,22,23
 228 556 228 556 233 556 c 2,24,-1
 238 556 l 2,25,26
 258 556 258 556 269.5 548.5 c 128,-1,27
 281 541 281 541 288 521 c 2,28,-1
 487 7 l 2,29,30
 490 0 490 0 483 0 c 2,31,-1
 444 0 l 2,32,33
 437 0 437 0 434 2.5 c 128,-1,34
 431 5 431 5 429 12 c 2,35,-1
 370 169 l 1,36,-1
 126 169 l 1,14,-1
144 216 m 1,37,-1
 352 216 l 1,38,-1
 248 493 l 1,39,-1
 144 216 l 1,37,-1
EndSplineSet
EndChar

StartChar: Acircumflex
Encoding: 194 194 127
Width: 498
GlyphClass: 1
Flags: W
LayerCount: 2
Fore
SplineSet
247 664 m 1,0,-1
 209 629 l 2,1,2
 199 619 199 619 184 619 c 2,3,-1
 152 619 l 2,4,5
 149 619 149 619 147.5 621.5 c 128,-1,6
 146 624 146 624 149 625 c 2,7,-1
 211 682 l 2,8,9
 216 687 216 687 220 689 c 128,-1,10
 224 691 224 691 232 691 c 2,11,-1
 261 691 l 2,12,13
 269 691 269 691 273 689 c 128,-1,14
 277 687 277 687 282 682 c 2,15,-1
 344 625 l 2,16,17
 346 624 346 624 345 621.5 c 128,-1,18
 344 619 344 619 342 619 c 2,19,-1
 309 619 l 2,20,21
 295 619 295 619 284 629 c 2,22,-1
 247 664 l 1,0,-1
126 169 m 1,23,-1
 69 12 l 2,24,25
 66 5 66 5 64 2.5 c 128,-1,26
 62 0 62 0 54 0 c 2,27,-1
 17 0 l 2,28,29
 10 0 10 0 13 7 c 2,30,-1
 224 549 l 2,31,32
 228 556 228 556 233 556 c 2,33,-1
 238 556 l 2,34,35
 258 556 258 556 269.5 548.5 c 128,-1,36
 281 541 281 541 288 521 c 2,37,-1
 487 7 l 2,38,39
 490 0 490 0 483 0 c 2,40,-1
 444 0 l 2,41,42
 437 0 437 0 434 2.5 c 128,-1,43
 431 5 431 5 429 12 c 2,44,-1
 370 169 l 1,45,-1
 126 169 l 1,23,-1
144 216 m 1,46,-1
 352 216 l 1,47,-1
 248 493 l 1,48,-1
 144 216 l 1,46,-1
EndSplineSet
EndChar

StartChar: Atilde
Encoding: 195 195 128
Width: 498
GlyphClass: 1
Flags: W
LayerCount: 2
Fore
SplineSet
157 619 m 2,0,1
 151 619 151 619 151 625 c 0,2,3
 153 653 153 653 166.5 668.5 c 128,-1,4
 180 684 180 684 202 684 c 0,5,6
 218 684 218 684 233.5 677.5 c 128,-1,7
 249 671 249 671 263 664 c 128,-1,8
 277 657 277 657 287 657 c 0,9,10
 296 657 296 657 300.5 661 c 128,-1,11
 305 665 305 665 307 672 c 0,12,13
 310 680 310 680 316 680 c 2,14,-1
 343 680 l 2,15,16
 349 680 349 680 349 674 c 0,17,18
 347 646 347 646 330.5 631.5 c 128,-1,19
 314 617 314 617 291 617 c 0,20,21
 276 617 276 617 260.5 624 c 128,-1,22
 245 631 245 631 232 637.5 c 128,-1,23
 219 644 219 644 208 644 c 0,24,25
 194 644 194 644 191 627 c 0,26,27
 190 619 190 619 184 619 c 2,28,-1
 157 619 l 2,0,1
126 169 m 1,29,-1
 69 12 l 2,30,31
 66 5 66 5 64 2.5 c 128,-1,32
 62 0 62 0 54 0 c 2,33,-1
 17 0 l 2,34,35
 10 0 10 0 13 7 c 2,36,-1
 224 549 l 2,37,38
 228 556 228 556 233 556 c 2,39,-1
 238 556 l 2,40,41
 258 556 258 556 269.5 548.5 c 128,-1,42
 281 541 281 541 288 521 c 2,43,-1
 487 7 l 2,44,45
 490 0 490 0 483 0 c 2,46,-1
 444 0 l 2,47,48
 437 0 437 0 434 2.5 c 128,-1,49
 431 5 431 5 429 12 c 2,50,-1
 370 169 l 1,51,-1
 126 169 l 1,29,-1
144 216 m 1,52,-1
 352 216 l 1,53,-1
 248 493 l 1,54,-1
 144 216 l 1,52,-1
EndSplineSet
EndChar

StartChar: Adieresis
Encoding: 196 196 129
Width: 498
GlyphClass: 1
Flags: W
LayerCount: 2
Fore
SplineSet
157 647 m 0,0,1
 157 661 157 661 167 671 c 128,-1,2
 177 681 177 681 190 681 c 0,3,4
 204 681 204 681 214 671 c 128,-1,5
 224 661 224 661 224 647 c 0,6,7
 224 634 224 634 214 624 c 128,-1,8
 204 614 204 614 190 614 c 0,9,10
 177 614 177 614 167 624 c 128,-1,11
 157 634 157 634 157 647 c 0,0,1
269 647 m 0,12,13
 269 661 269 661 279 671 c 128,-1,14
 289 681 289 681 302 681 c 0,15,16
 316 681 316 681 326 671 c 128,-1,17
 336 661 336 661 336 647 c 0,18,19
 336 634 336 634 326 624 c 128,-1,20
 316 614 316 614 302 614 c 0,21,22
 289 614 289 614 279 624 c 128,-1,23
 269 634 269 634 269 647 c 0,12,13
126 169 m 1,24,-1
 69 12 l 2,25,26
 66 5 66 5 64 2.5 c 128,-1,27
 62 0 62 0 54 0 c 2,28,-1
 17 0 l 2,29,30
 10 0 10 0 13 7 c 2,31,-1
 224 549 l 2,32,33
 228 556 228 556 233 556 c 2,34,-1
 238 556 l 2,35,36
 258 556 258 556 269.5 548.5 c 128,-1,37
 281 541 281 541 288 521 c 2,38,-1
 487 7 l 2,39,40
 490 0 490 0 483 0 c 2,41,-1
 444 0 l 2,42,43
 437 0 437 0 434 2.5 c 128,-1,44
 431 5 431 5 429 12 c 2,45,-1
 370 169 l 1,46,-1
 126 169 l 1,24,-1
144 216 m 1,47,-1
 352 216 l 1,48,-1
 248 493 l 1,49,-1
 144 216 l 1,47,-1
EndSplineSet
EndChar

StartChar: Aring
Encoding: 197 197 130
Width: 498
GlyphClass: 1
Flags: W
LayerCount: 2
Fore
SplineSet
185 673 m 0,0,1
 185 700 185 700 204.5 718.5 c 128,-1,2
 224 737 224 737 250 737 c 0,3,4
 277 737 277 737 296.5 718.5 c 128,-1,5
 316 700 316 700 316 673 c 0,6,7
 316 647 316 647 296.5 628 c 128,-1,8
 277 609 277 609 250 609 c 0,9,10
 224 609 224 609 204.5 628 c 128,-1,11
 185 647 185 647 185 673 c 0,0,1
250 639 m 0,12,13
 265 639 265 639 274 649 c 128,-1,14
 283 659 283 659 283 673 c 0,15,16
 283 688 283 688 274 698 c 128,-1,17
 265 708 265 708 250 708 c 0,18,19
 237 708 237 708 227.5 698 c 128,-1,20
 218 688 218 688 218 673 c 0,21,22
 218 659 218 659 227.5 649 c 128,-1,23
 237 639 237 639 250 639 c 0,12,13
126 169 m 1,24,-1
 69 12 l 2,25,26
 66 5 66 5 64 2.5 c 128,-1,27
 62 0 62 0 54 0 c 2,28,-1
 17 0 l 2,29,30
 10 0 10 0 13 7 c 2,31,-1
 224 549 l 2,32,33
 228 556 228 556 233 556 c 2,34,-1
 238 556 l 2,35,36
 258 556 258 556 269.5 548.5 c 128,-1,37
 281 541 281 541 288 521 c 2,38,-1
 487 7 l 2,39,40
 490 0 490 0 483 0 c 2,41,-1
 444 0 l 2,42,43
 437 0 437 0 434 2.5 c 128,-1,44
 431 5 431 5 429 12 c 2,45,-1
 370 169 l 1,46,-1
 126 169 l 1,24,-1
144 216 m 1,47,-1
 352 216 l 1,48,-1
 248 493 l 1,49,-1
 144 216 l 1,47,-1
EndSplineSet
EndChar

StartChar: AE
Encoding: 198 198 131
Width: 662
GlyphClass: 1
Flags: W
LayerCount: 2
Fore
SplineSet
148 169 m 1,0,-1
 66 12 l 2,1,2
 62 5 62 5 59.5 2.5 c 128,-1,3
 57 0 57 0 49 0 c 2,4,-1
 8 0 l 2,5,6
 1 0 1 0 5 7 c 2,7,-1
 300 548 l 2,8,9
 305 556 305 556 311 556 c 2,10,-1
 591 556 l 2,11,12
 621 556 621 556 621 527 c 2,13,-1
 621 516 l 2,14,15
 621 508 621 508 614 508 c 2,16,-1
 383 508 l 1,17,-1
 383 298 l 1,18,-1
 574 298 l 2,19,20
 604 298 604 298 604 270 c 2,21,-1
 604 259 l 2,22,23
 604 252 604 252 595 252 c 2,24,-1
 383 252 l 1,25,-1
 383 47 l 1,26,-1
 601 47 l 2,27,28
 631 47 631 47 631 18 c 2,29,-1
 631 7 l 2,30,31
 631 0 631 0 624 0 c 2,32,-1
 336 0 l 2,33,34
 331 0 331 0 331 6 c 2,35,-1
 331 169 l 1,36,-1
 148 169 l 1,0,-1
173 216 m 1,37,-1
 331 216 l 1,38,-1
 331 509 l 1,39,-1
 173 216 l 1,37,-1
EndSplineSet
EndChar

StartChar: Ccedilla
Encoding: 199 199 132
Width: 513
GlyphClass: 1
Flags: W
LayerCount: 2
Fore
SplineSet
316 -11 m 1,0,-1
 279 -87 l 2,1,2
 274 -95 274 -95 258 -95 c 2,3,-1
 224 -95 l 2,4,5
 218 -95 218 -95 220 -90 c 2,6,-1
 269 -15 l 2,7,8
 270 -11 270 -11 274 -10 c 1,9,10
 174 0 174 0 115.5 75 c 128,-1,11
 57 150 57 150 57 278 c 0,12,13
 57 368 57 368 89 432.5 c 128,-1,14
 121 497 121 497 178 532 c 128,-1,15
 235 567 235 567 310 567 c 0,16,17
 352 567 352 567 384 557.5 c 128,-1,18
 416 548 416 548 444 534 c 0,19,20
 462 526 462 526 472 515 c 128,-1,21
 482 504 482 504 478 489 c 2,22,-1
 474 473 l 2,23,24
 472 464 472 464 466 464 c 0,25,26
 465 464 465 464 454 471 c 0,27,28
 423 494 423 494 386.5 506.5 c 128,-1,29
 350 519 350 519 309 519 c 0,30,31
 215 519 215 519 160.5 454.5 c 128,-1,32
 106 390 106 390 106 276 c 0,33,34
 106 163 106 163 159 99.5 c 128,-1,35
 212 36 212 36 306 36 c 0,36,37
 364 36 364 36 401.5 58.5 c 128,-1,38
 439 81 439 81 464 115 c 0,39,40
 470 125 470 125 476 125 c 0,41,42
 483 125 483 125 486 120 c 128,-1,43
 489 115 489 115 489 109 c 0,44,45
 489 97 489 97 479.5 78.5 c 128,-1,46
 470 60 470 60 449.5 40 c 128,-1,47
 429 20 429 20 396 6 c 128,-1,48
 363 -8 363 -8 316 -11 c 1,0,-1
EndSplineSet
EndChar

StartChar: Egrave
Encoding: 200 200 133
Width: 404
GlyphClass: 1
Flags: W
LayerCount: 2
Fore
SplineSet
134 685 m 2,0,1
 132 687 132 687 132.5 689 c 128,-1,2
 133 691 133 691 136 691 c 2,3,-1
 186 691 l 2,4,5
 194 691 194 691 198 689 c 128,-1,6
 202 687 202 687 207 682 c 2,7,-1
 270 625 l 2,8,9
 272 624 272 624 271 621.5 c 128,-1,10
 270 619 270 619 267 619 c 2,11,-1
 230 619 l 2,12,13
 218 619 218 619 205 629 c 2,14,-1
 134 685 l 2,0,1
124 47 m 1,15,-1
 342 47 l 2,16,17
 372 47 372 47 372 18 c 2,18,-1
 372 7 l 2,19,20
 372 0 372 0 364 0 c 2,21,-1
 78 0 l 2,22,23
 73 0 73 0 73 6 c 2,24,-1
 73 549 l 2,25,26
 73 556 73 556 78 556 c 2,27,-1
 332 556 l 2,28,29
 362 556 362 556 362 527 c 2,30,-1
 362 516 l 2,31,32
 362 509 362 509 354 509 c 2,33,-1
 124 509 l 1,34,-1
 124 298 l 1,35,-1
 314 298 l 2,36,37
 344 298 344 298 344 269 c 2,38,-1
 344 257 l 2,39,40
 344 251 344 251 336 251 c 2,41,-1
 124 251 l 1,42,-1
 124 47 l 1,15,-1
EndSplineSet
EndChar

StartChar: Eacute
Encoding: 201 201 134
Width: 404
GlyphClass: 1
Flags: W
LayerCount: 2
Fore
SplineSet
164 625 m 2,0,-1
 226 682 l 2,1,2
 231 687 231 687 235 689 c 128,-1,3
 239 691 239 691 247 691 c 2,4,-1
 296 691 l 2,5,6
 303 691 303 691 300 685 c 2,7,-1
 228 629 l 2,8,9
 215 619 215 619 203 619 c 2,10,-1
 166 619 l 2,11,12
 163 619 163 619 162 621.5 c 128,-1,13
 161 624 161 624 164 625 c 2,0,-1
124 47 m 1,14,-1
 342 47 l 2,15,16
 372 47 372 47 372 18 c 2,17,-1
 372 7 l 2,18,19
 372 0 372 0 364 0 c 2,20,-1
 78 0 l 2,21,22
 73 0 73 0 73 6 c 2,23,-1
 73 549 l 2,24,25
 73 556 73 556 78 556 c 2,26,-1
 332 556 l 2,27,28
 362 556 362 556 362 527 c 2,29,-1
 362 516 l 2,30,31
 362 509 362 509 354 509 c 2,32,-1
 124 509 l 1,33,-1
 124 298 l 1,34,-1
 314 298 l 2,35,36
 344 298 344 298 344 269 c 2,37,-1
 344 257 l 2,38,39
 344 251 344 251 336 251 c 2,40,-1
 124 251 l 1,41,-1
 124 47 l 1,14,-1
EndSplineSet
EndChar

StartChar: Ecircumflex
Encoding: 202 202 135
Width: 404
GlyphClass: 1
Flags: W
LayerCount: 2
Fore
SplineSet
218 664 m 1,0,-1
 180 629 l 2,1,2
 170 619 170 619 155 619 c 2,3,-1
 122 619 l 2,4,5
 120 619 120 619 118.5 621.5 c 128,-1,6
 117 624 117 624 120 625 c 2,7,-1
 182 682 l 2,8,9
 187 687 187 687 191 689 c 128,-1,10
 195 691 195 691 203 691 c 2,11,-1
 232 691 l 2,12,13
 240 691 240 691 244 689 c 128,-1,14
 248 687 248 687 252 682 c 2,15,-1
 315 625 l 2,16,17
 317 624 317 624 316 621.5 c 128,-1,18
 315 619 315 619 312 619 c 2,19,-1
 280 619 l 2,20,21
 266 619 266 619 255 629 c 2,22,-1
 218 664 l 1,0,-1
124 47 m 1,23,-1
 342 47 l 2,24,25
 372 47 372 47 372 18 c 2,26,-1
 372 7 l 2,27,28
 372 0 372 0 364 0 c 2,29,-1
 78 0 l 2,30,31
 73 0 73 0 73 6 c 2,32,-1
 73 549 l 2,33,34
 73 556 73 556 78 556 c 2,35,-1
 332 556 l 2,36,37
 362 556 362 556 362 527 c 2,38,-1
 362 516 l 2,39,40
 362 509 362 509 354 509 c 2,41,-1
 124 509 l 1,42,-1
 124 298 l 1,43,-1
 314 298 l 2,44,45
 344 298 344 298 344 269 c 2,46,-1
 344 257 l 2,47,48
 344 251 344 251 336 251 c 2,49,-1
 124 251 l 1,50,-1
 124 47 l 1,23,-1
EndSplineSet
EndChar

StartChar: Edieresis
Encoding: 203 203 136
Width: 404
GlyphClass: 1
Flags: W
LayerCount: 2
Fore
SplineSet
127 647 m 0,0,1
 127 661 127 661 137 671 c 128,-1,2
 147 681 147 681 160 681 c 0,3,4
 174 681 174 681 184 671 c 128,-1,5
 194 661 194 661 194 647 c 0,6,7
 194 634 194 634 184 624 c 128,-1,8
 174 614 174 614 160 614 c 0,9,10
 147 614 147 614 137 624 c 128,-1,11
 127 634 127 634 127 647 c 0,0,1
239 647 m 0,12,13
 239 661 239 661 249 671 c 128,-1,14
 259 681 259 681 272 681 c 0,15,16
 286 681 286 681 296 671 c 128,-1,17
 306 661 306 661 306 647 c 0,18,19
 306 634 306 634 296 624 c 128,-1,20
 286 614 286 614 272 614 c 0,21,22
 259 614 259 614 249 624 c 128,-1,23
 239 634 239 634 239 647 c 0,12,13
124 47 m 1,24,-1
 342 47 l 2,25,26
 372 47 372 47 372 18 c 2,27,-1
 372 7 l 2,28,29
 372 0 372 0 364 0 c 2,30,-1
 78 0 l 2,31,32
 73 0 73 0 73 6 c 2,33,-1
 73 549 l 2,34,35
 73 556 73 556 78 556 c 2,36,-1
 332 556 l 2,37,38
 362 556 362 556 362 527 c 2,39,-1
 362 516 l 2,40,41
 362 509 362 509 354 509 c 2,42,-1
 124 509 l 1,43,-1
 124 298 l 1,44,-1
 314 298 l 2,45,46
 344 298 344 298 344 269 c 2,47,-1
 344 257 l 2,48,49
 344 251 344 251 336 251 c 2,50,-1
 124 251 l 1,51,-1
 124 47 l 1,24,-1
EndSplineSet
EndChar

StartChar: Igrave
Encoding: 204 204 137
Width: 196
GlyphClass: 1
Flags: W
LayerCount: 2
Fore
SplineSet
30 685 m 2,0,1
 29 687 29 687 29.5 689 c 128,-1,2
 30 691 30 691 33 691 c 2,3,-1
 83 691 l 2,4,5
 91 691 91 691 95 689 c 128,-1,6
 99 687 99 687 104 682 c 2,7,-1
 166 625 l 2,8,9
 168 624 168 624 167 621.5 c 128,-1,10
 166 619 166 619 164 619 c 2,11,-1
 126 619 l 2,12,13
 115 619 115 619 102 629 c 2,14,-1
 30 685 l 2,0,1
89 0 m 2,15,16
 84 0 84 0 84 6 c 2,17,-1
 84 549 l 2,18,19
 84 556 84 556 89 556 c 2,20,-1
 93 556 l 2,21,22
 111 556 111 556 122.5 542 c 128,-1,23
 134 528 134 528 134 504 c 2,24,-1
 134 6 l 2,25,26
 134 0 134 0 129 0 c 2,27,-1
 89 0 l 2,15,16
EndSplineSet
EndChar

StartChar: Iacute
Encoding: 205 205 138
Width: 196
GlyphClass: 1
Flags: W
LayerCount: 2
Fore
SplineSet
31 625 m 2,0,-1
 94 682 l 2,1,2
 99 687 99 687 103 689 c 128,-1,3
 107 691 107 691 115 691 c 2,4,-1
 164 691 l 2,5,6
 168 691 168 691 168.5 689 c 128,-1,7
 169 687 169 687 167 685 c 2,8,-1
 96 629 l 2,9,10
 83 619 83 619 71 619 c 2,11,-1
 34 619 l 2,12,13
 31 619 31 619 30 621.5 c 128,-1,14
 29 624 29 624 31 625 c 2,0,-1
90 0 m 2,15,16
 85 0 85 0 85 6 c 2,17,-1
 85 549 l 2,18,19
 85 556 85 556 90 556 c 2,20,-1
 94 556 l 2,21,22
 112 556 112 556 123.5 542 c 128,-1,23
 135 528 135 528 135 504 c 2,24,-1
 135 6 l 2,25,26
 135 0 135 0 130 0 c 2,27,-1
 90 0 l 2,15,16
EndSplineSet
EndChar

StartChar: Icircumflex
Encoding: 206 206 139
Width: 196
GlyphClass: 1
Flags: W
LayerCount: 2
Fore
SplineSet
99 664 m 1,0,-1
 61 629 l 2,1,2
 51 619 51 619 36 619 c 2,3,-1
 3 619 l 2,4,5
 0 619 0 619 -1 621.5 c 128,-1,6
 -2 624 -2 624 0 625 c 2,7,-1
 63 682 l 2,8,9
 68 687 68 687 72 689 c 128,-1,10
 76 691 76 691 84 691 c 2,11,-1
 113 691 l 2,12,13
 121 691 121 691 124.5 689 c 128,-1,14
 128 687 128 687 133 682 c 2,15,-1
 196 625 l 2,16,17
 198 624 198 624 197 621.5 c 128,-1,18
 196 619 196 619 193 619 c 2,19,-1
 160 619 l 2,20,21
 146 619 146 619 135 629 c 2,22,-1
 99 664 l 1,0,-1
79 0 m 2,23,24
 74 0 74 0 74 6 c 2,25,-1
 74 549 l 2,26,27
 74 556 74 556 79 556 c 2,28,-1
 83 556 l 2,29,30
 101 556 101 556 112.5 542 c 128,-1,31
 124 528 124 528 124 504 c 2,32,-1
 124 6 l 2,33,34
 124 0 124 0 119 0 c 2,35,-1
 79 0 l 2,23,24
EndSplineSet
EndChar

StartChar: Idieresis
Encoding: 207 207 140
Width: 196
GlyphClass: 1
Flags: W
LayerCount: 2
Fore
SplineSet
9 647 m 0,0,1
 9 661 9 661 19 671 c 128,-1,2
 29 681 29 681 42 681 c 0,3,4
 56 681 56 681 66 671 c 128,-1,5
 76 661 76 661 76 647 c 0,6,7
 76 634 76 634 66 624 c 128,-1,8
 56 614 56 614 42 614 c 0,9,10
 29 614 29 614 19 624 c 128,-1,11
 9 634 9 634 9 647 c 0,0,1
121 647 m 0,12,13
 121 661 121 661 131 671 c 128,-1,14
 141 681 141 681 154 681 c 0,15,16
 168 681 168 681 178 671 c 128,-1,17
 188 661 188 661 188 647 c 0,18,19
 188 634 188 634 178 624 c 128,-1,20
 168 614 168 614 154 614 c 0,21,22
 141 614 141 614 131 624 c 128,-1,23
 121 634 121 634 121 647 c 0,12,13
78 0 m 2,24,25
 73 0 73 0 73 6 c 2,26,-1
 73 549 l 2,27,28
 73 556 73 556 78 556 c 2,29,-1
 82 556 l 2,30,31
 100 556 100 556 111.5 542 c 128,-1,32
 123 528 123 528 123 504 c 2,33,-1
 123 6 l 2,34,35
 123 0 123 0 118 0 c 2,36,-1
 78 0 l 2,24,25
EndSplineSet
EndChar

StartChar: Eth
Encoding: 208 208 141
Width: 556
GlyphClass: 1
Flags: W
LayerCount: 2
Fore
SplineSet
76 258 m 1,0,-1
 19 258 l 2,1,2
 14 258 14 258 14 264 c 2,3,-1
 14 298 l 2,4,5
 14 304 14 304 19 304 c 2,6,-1
 76 304 l 1,7,-1
 76 549 l 2,8,9
 76 556 76 556 81 556 c 2,10,-1
 230 556 l 2,11,12
 362 556 362 556 430 486 c 128,-1,13
 498 416 498 416 498 286 c 0,14,15
 498 187 498 187 463.5 123.5 c 128,-1,16
 429 60 429 60 367.5 30 c 128,-1,17
 306 0 306 0 223 0 c 2,18,-1
 81 0 l 2,19,20
 76 0 76 0 76 6 c 2,21,-1
 76 258 l 1,0,-1
126 47 m 1,22,-1
 229 47 l 2,23,24
 448 47 448 47 448 284 c 0,25,26
 448 408 448 408 391.5 458 c 128,-1,27
 335 508 335 508 224 508 c 2,28,-1
 126 508 l 1,29,-1
 126 304 l 1,30,-1
 292 304 l 2,31,32
 322 304 322 304 322 276 c 2,33,-1
 322 265 l 2,34,35
 322 258 322 258 314 258 c 2,36,-1
 126 258 l 1,37,-1
 126 47 l 1,22,-1
EndSplineSet
EndChar

StartChar: Ntilde
Encoding: 209 209 142
Width: 522
GlyphClass: 1
Flags: W
LayerCount: 2
Fore
SplineSet
163 619 m 2,0,1
 157 619 157 619 157 625 c 0,2,3
 159 653 159 653 172 668.5 c 128,-1,4
 185 684 185 684 207 684 c 0,5,6
 223 684 223 684 239 677.5 c 128,-1,7
 255 671 255 671 269 664 c 128,-1,8
 283 657 283 657 293 657 c 0,9,10
 302 657 302 657 306.5 661 c 128,-1,11
 311 665 311 665 313 672 c 0,12,13
 316 680 316 680 322 680 c 2,14,-1
 349 680 l 2,15,16
 355 680 355 680 355 674 c 0,17,18
 353 646 353 646 336.5 631.5 c 128,-1,19
 320 617 320 617 297 617 c 0,20,21
 282 617 282 617 266.5 624 c 128,-1,22
 251 631 251 631 238 637.5 c 128,-1,23
 225 644 225 644 214 644 c 0,24,25
 200 644 200 644 197 627 c 0,26,27
 196 619 196 619 190 619 c 2,28,-1
 163 619 l 2,0,1
400 89 m 1,29,-1
 400 549 l 2,30,31
 400 556 400 556 405 556 c 2,32,-1
 410 556 l 2,33,34
 428 556 428 556 439 542 c 128,-1,35
 450 528 450 528 450 504 c 2,36,-1
 450 6 l 2,37,38
 450 0 450 0 445 0 c 2,39,-1
 411 0 l 2,40,41
 397 0 397 0 389 13 c 2,42,-1
 124 445 l 1,43,-1
 124 6 l 2,44,45
 124 0 124 0 119 0 c 2,46,-1
 78 0 l 2,47,48
 73 0 73 0 73 6 c 2,49,-1
 73 549 l 2,50,51
 73 556 73 556 78 556 c 2,52,-1
 82 556 l 2,53,54
 108 556 108 556 118 545.5 c 128,-1,55
 128 535 128 535 139 515 c 2,56,-1
 400 89 l 1,29,-1
EndSplineSet
EndChar

StartChar: Ograve
Encoding: 210 210 143
Width: 597
GlyphClass: 1
Flags: W
LayerCount: 2
Fore
SplineSet
230 685 m 2,0,1
 229 687 229 687 229.5 689 c 128,-1,2
 230 691 230 691 233 691 c 2,3,-1
 283 691 l 2,4,5
 291 691 291 691 294.5 689 c 128,-1,6
 298 687 298 687 303 682 c 2,7,-1
 366 625 l 2,8,9
 368 624 368 624 367 621.5 c 128,-1,10
 366 619 366 619 363 619 c 2,11,-1
 326 619 l 2,12,13
 314 619 314 619 301 629 c 2,14,-1
 230 685 l 2,0,1
299 -10 m 0,15,16
 184 -10 184 -10 120.5 67.5 c 128,-1,17
 57 145 57 145 57 277 c 0,18,19
 57 365 57 365 86 430 c 128,-1,20
 115 495 115 495 169.5 531 c 128,-1,21
 224 567 224 567 299 567 c 0,22,23
 375 567 375 567 428.5 531 c 128,-1,24
 482 495 482 495 511 430 c 128,-1,25
 540 365 540 365 540 277 c 0,26,27
 540 145 540 145 477.5 67.5 c 128,-1,28
 415 -10 415 -10 299 -10 c 0,15,16
299 37 m 0,29,30
 334 37 334 37 367.5 48.5 c 128,-1,31
 401 60 401 60 428.5 86.5 c 128,-1,32
 456 113 456 113 472.5 159.5 c 128,-1,33
 489 206 489 206 489 277 c 256,34,35
 489 348 489 348 472.5 395 c 128,-1,36
 456 442 456 442 428 469.5 c 128,-1,37
 400 497 400 497 366.5 508.5 c 128,-1,38
 333 520 333 520 299 520 c 256,39,40
 265 520 265 520 231 508.5 c 128,-1,41
 197 497 197 497 169 469.5 c 128,-1,42
 141 442 141 442 124.5 395 c 128,-1,43
 108 348 108 348 108 277 c 256,44,45
 108 206 108 206 124.5 159 c 128,-1,46
 141 112 141 112 169 85.5 c 128,-1,47
 197 59 197 59 231 48 c 128,-1,48
 265 37 265 37 299 37 c 0,29,30
EndSplineSet
EndChar

StartChar: Oacute
Encoding: 211 211 144
Width: 597
GlyphClass: 1
Flags: W
LayerCount: 2
Fore
SplineSet
231 625 m 2,0,-1
 293 682 l 2,1,2
 298 687 298 687 302 689 c 128,-1,3
 306 691 306 691 314 691 c 2,4,-1
 364 691 l 2,5,6
 367 691 367 691 368 689 c 128,-1,7
 369 687 369 687 367 685 c 2,8,-1
 295 629 l 2,9,10
 282 619 282 619 270 619 c 2,11,-1
 234 619 l 2,12,13
 231 619 231 619 230 621.5 c 128,-1,14
 229 624 229 624 231 625 c 2,0,-1
299 -10 m 0,15,16
 184 -10 184 -10 120.5 67.5 c 128,-1,17
 57 145 57 145 57 277 c 0,18,19
 57 365 57 365 86 430 c 128,-1,20
 115 495 115 495 169.5 531 c 128,-1,21
 224 567 224 567 299 567 c 0,22,23
 375 567 375 567 428.5 531 c 128,-1,24
 482 495 482 495 511 430 c 128,-1,25
 540 365 540 365 540 277 c 0,26,27
 540 145 540 145 477.5 67.5 c 128,-1,28
 415 -10 415 -10 299 -10 c 0,15,16
299 37 m 0,29,30
 334 37 334 37 367.5 48.5 c 128,-1,31
 401 60 401 60 428.5 86.5 c 128,-1,32
 456 113 456 113 472.5 159.5 c 128,-1,33
 489 206 489 206 489 277 c 256,34,35
 489 348 489 348 472.5 395 c 128,-1,36
 456 442 456 442 428 469.5 c 128,-1,37
 400 497 400 497 366.5 508.5 c 128,-1,38
 333 520 333 520 299 520 c 256,39,40
 265 520 265 520 231 508.5 c 128,-1,41
 197 497 197 497 169 469.5 c 128,-1,42
 141 442 141 442 124.5 395 c 128,-1,43
 108 348 108 348 108 277 c 256,44,45
 108 206 108 206 124.5 159 c 128,-1,46
 141 112 141 112 169 85.5 c 128,-1,47
 197 59 197 59 231 48 c 128,-1,48
 265 37 265 37 299 37 c 0,29,30
EndSplineSet
EndChar

StartChar: Ocircumflex
Encoding: 212 212 145
Width: 597
GlyphClass: 1
Flags: W
LayerCount: 2
Fore
SplineSet
299 664 m 1,0,-1
 261 629 l 2,1,2
 251 619 251 619 236 619 c 2,3,-1
 204 619 l 2,4,5
 201 619 201 619 200 621.5 c 128,-1,6
 199 624 199 624 201 625 c 2,7,-1
 263 682 l 2,8,9
 268 687 268 687 272 689 c 128,-1,10
 276 691 276 691 284 691 c 2,11,-1
 313 691 l 2,12,13
 321 691 321 691 325 689 c 128,-1,14
 329 687 329 687 334 682 c 2,15,-1
 396 625 l 2,16,17
 398 624 398 624 397.5 621.5 c 128,-1,18
 397 619 397 619 394 619 c 2,19,-1
 361 619 l 2,20,21
 347 619 347 619 336 629 c 2,22,-1
 299 664 l 1,0,-1
299 -10 m 0,23,24
 184 -10 184 -10 120.5 67.5 c 128,-1,25
 57 145 57 145 57 277 c 0,26,27
 57 365 57 365 86 430 c 128,-1,28
 115 495 115 495 169.5 531 c 128,-1,29
 224 567 224 567 299 567 c 0,30,31
 375 567 375 567 428.5 531 c 128,-1,32
 482 495 482 495 511 430 c 128,-1,33
 540 365 540 365 540 277 c 0,34,35
 540 145 540 145 477.5 67.5 c 128,-1,36
 415 -10 415 -10 299 -10 c 0,23,24
299 37 m 0,37,38
 334 37 334 37 367.5 48.5 c 128,-1,39
 401 60 401 60 428.5 86.5 c 128,-1,40
 456 113 456 113 472.5 159.5 c 128,-1,41
 489 206 489 206 489 277 c 256,42,43
 489 348 489 348 472.5 395 c 128,-1,44
 456 442 456 442 428 469.5 c 128,-1,45
 400 497 400 497 366.5 508.5 c 128,-1,46
 333 520 333 520 299 520 c 256,47,48
 265 520 265 520 231 508.5 c 128,-1,49
 197 497 197 497 169 469.5 c 128,-1,50
 141 442 141 442 124.5 395 c 128,-1,51
 108 348 108 348 108 277 c 256,52,53
 108 206 108 206 124.5 159 c 128,-1,54
 141 112 141 112 169 85.5 c 128,-1,55
 197 59 197 59 231 48 c 128,-1,56
 265 37 265 37 299 37 c 0,37,38
EndSplineSet
EndChar

StartChar: Otilde
Encoding: 213 213 146
Width: 597
GlyphClass: 1
Flags: W
LayerCount: 2
Fore
SplineSet
206 619 m 2,0,1
 200 619 200 619 200 625 c 0,2,3
 202 653 202 653 215.5 668.5 c 128,-1,4
 229 684 229 684 251 684 c 0,5,6
 267 684 267 684 283 677.5 c 128,-1,7
 299 671 299 671 312.5 664 c 128,-1,8
 326 657 326 657 336 657 c 256,9,10
 346 657 346 657 350 661 c 128,-1,11
 354 665 354 665 356 672 c 0,12,13
 359 680 359 680 365 680 c 2,14,-1
 392 680 l 2,15,16
 398 680 398 680 398 674 c 0,17,18
 396 646 396 646 379.5 631.5 c 128,-1,19
 363 617 363 617 340 617 c 0,20,21
 325 617 325 617 310 624 c 128,-1,22
 295 631 295 631 281.5 637.5 c 128,-1,23
 268 644 268 644 257 644 c 0,24,25
 243 644 243 644 240 627 c 0,26,27
 239 619 239 619 233 619 c 2,28,-1
 206 619 l 2,0,1
299 -10 m 0,29,30
 184 -10 184 -10 120.5 67.5 c 128,-1,31
 57 145 57 145 57 277 c 0,32,33
 57 365 57 365 86 430 c 128,-1,34
 115 495 115 495 169.5 531 c 128,-1,35
 224 567 224 567 299 567 c 0,36,37
 375 567 375 567 428.5 531 c 128,-1,38
 482 495 482 495 511 430 c 128,-1,39
 540 365 540 365 540 277 c 0,40,41
 540 145 540 145 477.5 67.5 c 128,-1,42
 415 -10 415 -10 299 -10 c 0,29,30
299 37 m 0,43,44
 334 37 334 37 367.5 48.5 c 128,-1,45
 401 60 401 60 428.5 86.5 c 128,-1,46
 456 113 456 113 472.5 159.5 c 128,-1,47
 489 206 489 206 489 277 c 256,48,49
 489 348 489 348 472.5 395 c 128,-1,50
 456 442 456 442 428 469.5 c 128,-1,51
 400 497 400 497 366.5 508.5 c 128,-1,52
 333 520 333 520 299 520 c 256,53,54
 265 520 265 520 231 508.5 c 128,-1,55
 197 497 197 497 169 469.5 c 128,-1,56
 141 442 141 442 124.5 395 c 128,-1,57
 108 348 108 348 108 277 c 256,58,59
 108 206 108 206 124.5 159 c 128,-1,60
 141 112 141 112 169 85.5 c 128,-1,61
 197 59 197 59 231 48 c 128,-1,62
 265 37 265 37 299 37 c 0,43,44
EndSplineSet
EndChar

StartChar: Odieresis
Encoding: 214 214 147
Width: 597
GlyphClass: 1
Flags: W
LayerCount: 2
Fore
SplineSet
209 647 m 0,0,1
 209 661 209 661 219 671 c 128,-1,2
 229 681 229 681 242 681 c 0,3,4
 256 681 256 681 266 671 c 128,-1,5
 276 661 276 661 276 647 c 0,6,7
 276 634 276 634 266 624 c 128,-1,8
 256 614 256 614 242 614 c 0,9,10
 229 614 229 614 219 624 c 128,-1,11
 209 634 209 634 209 647 c 0,0,1
321 647 m 0,12,13
 321 661 321 661 331 671 c 128,-1,14
 341 681 341 681 354 681 c 0,15,16
 368 681 368 681 378 671 c 128,-1,17
 388 661 388 661 388 647 c 0,18,19
 388 634 388 634 378 624 c 128,-1,20
 368 614 368 614 354 614 c 0,21,22
 341 614 341 614 331 624 c 128,-1,23
 321 634 321 634 321 647 c 0,12,13
299 -10 m 0,24,25
 184 -10 184 -10 120.5 67.5 c 128,-1,26
 57 145 57 145 57 277 c 0,27,28
 57 365 57 365 86 430 c 128,-1,29
 115 495 115 495 169.5 531 c 128,-1,30
 224 567 224 567 299 567 c 0,31,32
 375 567 375 567 428.5 531 c 128,-1,33
 482 495 482 495 511 430 c 128,-1,34
 540 365 540 365 540 277 c 0,35,36
 540 145 540 145 477.5 67.5 c 128,-1,37
 415 -10 415 -10 299 -10 c 0,24,25
299 37 m 0,38,39
 334 37 334 37 367.5 48.5 c 128,-1,40
 401 60 401 60 428.5 86.5 c 128,-1,41
 456 113 456 113 472.5 159.5 c 128,-1,42
 489 206 489 206 489 277 c 256,43,44
 489 348 489 348 472.5 395 c 128,-1,45
 456 442 456 442 428 469.5 c 128,-1,46
 400 497 400 497 366.5 508.5 c 128,-1,47
 333 520 333 520 299 520 c 256,48,49
 265 520 265 520 231 508.5 c 128,-1,50
 197 497 197 497 169 469.5 c 128,-1,51
 141 442 141 442 124.5 395 c 128,-1,52
 108 348 108 348 108 277 c 256,53,54
 108 206 108 206 124.5 159 c 128,-1,55
 141 112 141 112 169 85.5 c 128,-1,56
 197 59 197 59 231 48 c 128,-1,57
 265 37 265 37 299 37 c 0,38,39
EndSplineSet
EndChar

StartChar: multiply
Encoding: 215 215 148
Width: 384
GlyphClass: 1
Flags: W
LayerCount: 2
Fore
SplineSet
164 275 m 1,0,-1
 50 388 l 2,1,2
 46 393 46 393 49 396 c 0,3,4
 63 410 63 410 77 408.5 c 128,-1,5
 91 407 91 407 107 389 c 2,6,-1
 194 304 l 1,7,-1
 303 414 l 2,8,9
 307 418 307 418 311 414 c 2,10,-1
 333 392 l 2,11,12
 337 388 337 388 333 384 c 2,13,-1
 224 275 l 1,14,-1
 337 160 l 2,15,16
 342 156 342 156 338 152 c 0,17,18
 324 138 324 138 310 139.5 c 128,-1,19
 296 141 296 141 279 158 c 2,20,-1
 194 245 l 1,21,-1
 84 134 l 2,22,23
 80 130 80 130 76 134 c 2,24,-1
 54 156 l 2,25,26
 50 160 50 160 54 164 c 2,27,-1
 164 275 l 1,0,-1
EndSplineSet
EndChar

StartChar: Oslash
Encoding: 216 216 149
Width: 597
GlyphClass: 1
Flags: W
LayerCount: 2
Fore
SplineSet
298 -10 m 0,0,1
 183 -10 183 -10 120 67 c 128,-1,2
 57 144 57 144 57 277 c 0,3,4
 57 366 57 366 85.5 431 c 128,-1,5
 114 496 114 496 168 531.5 c 128,-1,6
 222 567 222 567 298 567 c 256,7,8
 374 567 374 567 428 531.5 c 128,-1,9
 482 496 482 496 510.5 431 c 128,-1,10
 539 366 539 366 539 277 c 0,11,12
 539 144 539 144 476.5 67 c 128,-1,13
 414 -10 414 -10 298 -10 c 0,0,1
156 97 m 1,14,-1
 406 488 l 1,15,16
 382 505 382 505 354 512 c 128,-1,17
 326 519 326 519 298 519 c 0,18,19
 264 519 264 519 229.5 507.5 c 128,-1,20
 195 496 195 496 167.5 469 c 128,-1,21
 140 442 140 442 123 395 c 128,-1,22
 106 348 106 348 106 277 c 0,23,24
 106 213 106 213 120 169 c 128,-1,25
 134 125 134 125 156 97 c 1,14,-1
439 458 m 1,26,-1
 191 67 l 1,27,28
 216 51 216 51 243 44 c 128,-1,29
 270 37 270 37 298 37 c 0,30,31
 333 37 333 37 366.5 48 c 128,-1,32
 400 59 400 59 427.5 85.5 c 128,-1,33
 455 112 455 112 471.5 159 c 128,-1,34
 488 206 488 206 488 277 c 0,35,36
 488 341 488 341 475 385 c 128,-1,37
 462 429 462 429 439 458 c 1,26,-1
EndSplineSet
EndChar

StartChar: Ugrave
Encoding: 217 217 150
Width: 516
GlyphClass: 1
Flags: W
LayerCount: 2
Fore
SplineSet
169 685 m 2,0,1
 168 687 168 687 168.5 689 c 128,-1,2
 169 691 169 691 172 691 c 2,3,-1
 222 691 l 2,4,5
 230 691 230 691 234 689 c 128,-1,6
 238 687 238 687 242 682 c 2,7,-1
 305 625 l 2,8,9
 307 624 307 624 306 621.5 c 128,-1,10
 305 619 305 619 302 619 c 2,11,-1
 265 619 l 2,12,13
 254 619 254 619 241 629 c 2,14,-1
 169 685 l 2,0,1
256 -10 m 0,15,16
 187 -10 187 -10 146 17.5 c 128,-1,17
 105 45 105 45 86.5 91.5 c 128,-1,18
 68 138 68 138 68 194 c 2,19,-1
 68 549 l 2,20,21
 68 556 68 556 73 556 c 2,22,-1
 78 556 l 2,23,24
 96 556 96 556 107.5 542 c 128,-1,25
 119 528 119 528 119 504 c 2,26,-1
 119 201 l 2,27,28
 119 154 119 154 131.5 117 c 128,-1,29
 144 80 144 80 173.5 58.5 c 128,-1,30
 203 37 203 37 255 37 c 0,31,32
 308 37 308 37 339 59.5 c 128,-1,33
 370 82 370 82 383.5 119.5 c 128,-1,34
 397 157 397 157 397 202 c 2,35,-1
 397 549 l 2,36,37
 397 556 397 556 402 556 c 2,38,-1
 406 556 l 2,39,40
 424 556 424 556 435.5 542 c 128,-1,41
 447 528 447 528 447 504 c 2,42,-1
 447 198 l 2,43,44
 447 164 447 164 438 127.5 c 128,-1,45
 429 91 429 91 407.5 59.5 c 128,-1,46
 386 28 386 28 349 9 c 128,-1,47
 312 -10 312 -10 256 -10 c 0,15,16
EndSplineSet
EndChar

StartChar: Uacute
Encoding: 218 218 151
Width: 516
GlyphClass: 1
Flags: W
LayerCount: 2
Fore
SplineSet
189 625 m 2,0,-1
 251 682 l 2,1,2
 257 687 257 687 260.5 689 c 128,-1,3
 264 691 264 691 272 691 c 2,4,-1
 322 691 l 2,5,6
 325 691 325 691 326 689 c 128,-1,7
 327 687 327 687 325 685 c 2,8,-1
 254 629 l 2,9,10
 241 619 241 619 229 619 c 2,11,-1
 192 619 l 2,12,13
 189 619 189 619 188 621.5 c 128,-1,14
 187 624 187 624 189 625 c 2,0,-1
256 -10 m 0,15,16
 187 -10 187 -10 146 17.5 c 128,-1,17
 105 45 105 45 86.5 91.5 c 128,-1,18
 68 138 68 138 68 194 c 2,19,-1
 68 549 l 2,20,21
 68 556 68 556 73 556 c 2,22,-1
 78 556 l 2,23,24
 96 556 96 556 107.5 542 c 128,-1,25
 119 528 119 528 119 504 c 2,26,-1
 119 201 l 2,27,28
 119 154 119 154 131.5 117 c 128,-1,29
 144 80 144 80 173.5 58.5 c 128,-1,30
 203 37 203 37 255 37 c 0,31,32
 308 37 308 37 339 59.5 c 128,-1,33
 370 82 370 82 383.5 119.5 c 128,-1,34
 397 157 397 157 397 202 c 2,35,-1
 397 549 l 2,36,37
 397 556 397 556 402 556 c 2,38,-1
 406 556 l 2,39,40
 424 556 424 556 435.5 542 c 128,-1,41
 447 528 447 528 447 504 c 2,42,-1
 447 198 l 2,43,44
 447 164 447 164 438 127.5 c 128,-1,45
 429 91 429 91 407.5 59.5 c 128,-1,46
 386 28 386 28 349 9 c 128,-1,47
 312 -10 312 -10 256 -10 c 0,15,16
EndSplineSet
EndChar

StartChar: Ucircumflex
Encoding: 219 219 152
Width: 516
GlyphClass: 1
Flags: W
LayerCount: 2
Fore
SplineSet
257 664 m 1,0,-1
 220 629 l 2,1,2
 209 619 209 619 195 619 c 2,3,-1
 162 619 l 2,4,5
 159 619 159 619 158 621.5 c 128,-1,6
 157 624 157 624 159 625 c 2,7,-1
 221 682 l 2,8,9
 227 687 227 687 230.5 689 c 128,-1,10
 234 691 234 691 242 691 c 2,11,-1
 271 691 l 2,12,13
 279 691 279 691 283 689 c 128,-1,14
 287 687 287 687 292 682 c 2,15,-1
 355 625 l 2,16,17
 357 624 357 624 356 621.5 c 128,-1,18
 355 619 355 619 352 619 c 2,19,-1
 319 619 l 2,20,21
 305 619 305 619 294 629 c 2,22,-1
 257 664 l 1,0,-1
256 -10 m 0,23,24
 187 -10 187 -10 146 17.5 c 128,-1,25
 105 45 105 45 86.5 91.5 c 128,-1,26
 68 138 68 138 68 194 c 2,27,-1
 68 549 l 2,28,29
 68 556 68 556 73 556 c 2,30,-1
 78 556 l 2,31,32
 96 556 96 556 107.5 542 c 128,-1,33
 119 528 119 528 119 504 c 2,34,-1
 119 201 l 2,35,36
 119 154 119 154 131.5 117 c 128,-1,37
 144 80 144 80 173.5 58.5 c 128,-1,38
 203 37 203 37 255 37 c 0,39,40
 308 37 308 37 339 59.5 c 128,-1,41
 370 82 370 82 383.5 119.5 c 128,-1,42
 397 157 397 157 397 202 c 2,43,-1
 397 549 l 2,44,45
 397 556 397 556 402 556 c 2,46,-1
 406 556 l 2,47,48
 424 556 424 556 435.5 542 c 128,-1,49
 447 528 447 528 447 504 c 2,50,-1
 447 198 l 2,51,52
 447 164 447 164 438 127.5 c 128,-1,53
 429 91 429 91 407.5 59.5 c 128,-1,54
 386 28 386 28 349 9 c 128,-1,55
 312 -10 312 -10 256 -10 c 0,23,24
EndSplineSet
EndChar

StartChar: Udieresis
Encoding: 220 220 153
Width: 516
GlyphClass: 1
Flags: W
LayerCount: 2
Fore
SplineSet
165 647 m 0,0,1
 165 661 165 661 174.5 671 c 128,-1,2
 184 681 184 681 197 681 c 0,3,4
 211 681 211 681 221 671 c 128,-1,5
 231 661 231 661 231 647 c 0,6,7
 231 634 231 634 221 624 c 128,-1,8
 211 614 211 614 197 614 c 0,9,10
 184 614 184 614 174.5 624 c 128,-1,11
 165 634 165 634 165 647 c 0,0,1
277 647 m 0,12,13
 277 661 277 661 287 671 c 128,-1,14
 297 681 297 681 310 681 c 0,15,16
 324 681 324 681 334 671 c 128,-1,17
 344 661 344 661 344 647 c 0,18,19
 344 634 344 634 334 624 c 128,-1,20
 324 614 324 614 310 614 c 0,21,22
 297 614 297 614 287 624 c 128,-1,23
 277 634 277 634 277 647 c 0,12,13
256 -10 m 0,24,25
 187 -10 187 -10 146 17.5 c 128,-1,26
 105 45 105 45 86.5 91.5 c 128,-1,27
 68 138 68 138 68 194 c 2,28,-1
 68 549 l 2,29,30
 68 556 68 556 73 556 c 2,31,-1
 78 556 l 2,32,33
 96 556 96 556 107.5 542 c 128,-1,34
 119 528 119 528 119 504 c 2,35,-1
 119 201 l 2,36,37
 119 154 119 154 131.5 117 c 128,-1,38
 144 80 144 80 173.5 58.5 c 128,-1,39
 203 37 203 37 255 37 c 0,40,41
 308 37 308 37 339 59.5 c 128,-1,42
 370 82 370 82 383.5 119.5 c 128,-1,43
 397 157 397 157 397 202 c 2,44,-1
 397 549 l 2,45,46
 397 556 397 556 402 556 c 2,47,-1
 406 556 l 2,48,49
 424 556 424 556 435.5 542 c 128,-1,50
 447 528 447 528 447 504 c 2,51,-1
 447 198 l 2,52,53
 447 164 447 164 438 127.5 c 128,-1,54
 429 91 429 91 407.5 59.5 c 128,-1,55
 386 28 386 28 349 9 c 128,-1,56
 312 -10 312 -10 256 -10 c 0,24,25
EndSplineSet
EndChar

StartChar: Yacute
Encoding: 221 221 154
Width: 422
GlyphClass: 1
Flags: W
LayerCount: 2
Fore
SplineSet
154 625 m 2,0,-1
 216 682 l 2,1,2
 221 687 221 687 225 689 c 128,-1,3
 229 691 229 691 237 691 c 2,4,-1
 287 691 l 2,5,6
 290 691 290 691 291 689 c 128,-1,7
 292 687 292 687 290 685 c 2,8,-1
 218 629 l 2,9,10
 207 619 207 619 193 619 c 2,11,-1
 157 619 l 2,12,13
 154 619 154 619 153 621.5 c 128,-1,14
 152 624 152 624 154 625 c 2,0,-1
187 219 m 1,15,-1
 6 548 l 2,16,17
 2 556 2 556 10 556 c 2,18,-1
 26 556 l 2,19,20
 46 556 46 556 58 546 c 128,-1,21
 70 536 70 536 83 513 c 2,22,-1
 214 274 l 1,23,-1
 361 543 l 2,24,25
 364 550 364 550 367.5 553 c 128,-1,26
 371 556 371 556 378 556 c 2,27,-1
 411 556 l 2,28,29
 422 556 422 556 417 547 c 2,30,-1
 237 219 l 1,31,-1
 237 6 l 2,32,33
 237 0 237 0 232 0 c 2,34,-1
 192 0 l 2,35,36
 187 0 187 0 187 6 c 2,37,-1
 187 219 l 1,15,-1
EndSplineSet
EndChar

StartChar: Thorn
Encoding: 222 222 155
Width: 484
GlyphClass: 1
Flags: W
LayerCount: 2
Fore
SplineSet
123 109 m 1,0,-1
 123 6 l 2,1,2
 123 0 123 0 118 0 c 2,3,-1
 78 0 l 2,4,5
 73 0 73 0 73 6 c 2,6,-1
 73 549 l 2,7,8
 73 556 73 556 78 556 c 2,9,-1
 83 556 l 2,10,11
 100 556 100 556 111.5 542 c 128,-1,12
 123 528 123 528 123 503 c 2,13,-1
 123 451 l 1,14,-1
 267 451 l 2,15,16
 349 451 349 451 399 406 c 128,-1,17
 449 361 449 361 449 281 c 0,18,19
 449 202 449 202 401 155.5 c 128,-1,20
 353 109 353 109 269 109 c 2,21,-1
 123 109 l 1,0,-1
123 156 m 1,22,-1
 267 156 l 2,23,24
 298 156 298 156 327.5 167 c 128,-1,25
 357 178 357 178 377 205.5 c 128,-1,26
 397 233 397 233 397 282 c 0,27,28
 397 338 397 338 362 371 c 128,-1,29
 327 404 327 404 271 404 c 2,30,-1
 123 404 l 1,31,-1
 123 156 l 1,22,-1
EndSplineSet
EndChar

StartChar: germandbls
Encoding: 223 223 156
Width: 439
GlyphClass: 1
Flags: W
LayerCount: 2
Fore
SplineSet
184 84 m 0,0,1
 198 67 198 67 219.5 52 c 128,-1,2
 241 37 241 37 278 37 c 256,3,4
 315 37 315 37 334.5 53.5 c 128,-1,5
 354 70 354 70 354 97 c 0,6,7
 354 122 354 122 339.5 140 c 128,-1,8
 325 158 325 158 303.5 173 c 128,-1,9
 282 188 282 188 260 204 c 128,-1,10
 238 220 238 220 223.5 240.5 c 128,-1,11
 209 261 209 261 209 289 c 0,12,13
 209 313 209 313 222 333.5 c 128,-1,14
 235 354 235 354 252.5 372.5 c 128,-1,15
 270 391 270 391 283 409.5 c 128,-1,16
 296 428 296 428 296 449 c 0,17,18
 296 478 296 478 273 498.5 c 128,-1,19
 250 519 250 519 206 519 c 0,20,21
 164 519 164 519 137 491.5 c 128,-1,22
 110 464 110 464 110 409 c 2,23,-1
 110 6 l 2,24,25
 110 0 110 0 105 0 c 2,26,-1
 65 0 l 2,27,28
 60 0 60 0 60 6 c 2,29,-1
 60 412 l 2,30,31
 60 488 60 488 104 527.5 c 128,-1,32
 148 567 148 567 209 567 c 0,33,34
 271 567 271 567 308 536.5 c 128,-1,35
 345 506 345 506 345 459 c 0,36,37
 345 430 345 430 331.5 406.5 c 128,-1,38
 318 383 318 383 301 363.5 c 128,-1,39
 284 344 284 344 270.5 327 c 128,-1,40
 257 310 257 310 257 294 c 0,41,42
 257 274 257 274 272 258 c 128,-1,43
 287 242 287 242 309.5 227 c 128,-1,44
 332 212 332 212 354 194.5 c 128,-1,45
 376 177 376 177 391 155 c 128,-1,46
 406 133 406 133 406 102 c 0,47,48
 406 52 406 52 373 21 c 128,-1,49
 340 -10 340 -10 286 -10 c 0,50,51
 246 -10 246 -10 218.5 4.5 c 128,-1,52
 191 19 191 19 177.5 39 c 128,-1,53
 164 59 164 59 164 75 c 0,54,55
 164 90 164 90 174 90 c 0,56,57
 177 90 177 90 180 88 c 128,-1,58
 183 86 183 86 184 84 c 0,0,1
EndSplineSet
EndChar

StartChar: agrave
Encoding: 224 224 157
Width: 454
GlyphClass: 1
Flags: W
LayerCount: 2
Fore
SplineSet
138 496 m 2,0,1
 137 498 137 498 137.5 500 c 128,-1,2
 138 502 138 502 141 502 c 2,3,-1
 191 502 l 2,4,5
 199 502 199 502 203 500 c 128,-1,6
 207 498 207 498 212 493 c 2,7,-1
 275 436 l 2,8,9
 277 435 277 435 276 433 c 128,-1,10
 275 431 275 431 272 431 c 2,11,-1
 235 431 l 2,12,13
 222 431 222 431 210 440 c 2,14,-1
 138 496 l 2,0,1
344 57 m 1,15,16
 322 22 322 22 288 6.5 c 128,-1,17
 254 -9 254 -9 216 -9 c 0,18,19
 162 -9 162 -9 123.5 16.5 c 128,-1,20
 85 42 85 42 64.5 84.5 c 128,-1,21
 44 127 44 127 44 178 c 0,22,23
 44 233 44 233 66.5 275.5 c 128,-1,24
 89 318 89 318 128.5 342.5 c 128,-1,25
 168 367 168 367 219 367 c 0,26,27
 259 367 259 367 292.5 350.5 c 128,-1,28
 326 334 326 334 345 305 c 1,29,30
 345 334 345 334 356 347 c 128,-1,31
 367 360 367 360 385 360 c 2,32,-1
 390 360 l 2,33,34
 395 360 395 360 395 354 c 2,35,-1
 395 6 l 2,36,37
 395 0 395 0 390 0 c 2,38,-1
 349 0 l 2,39,40
 344 0 344 0 344 6 c 2,41,-1
 344 57 l 1,15,16
214 38 m 0,42,43
 247 38 247 38 276.5 51 c 128,-1,44
 306 64 306 64 325 94.5 c 128,-1,45
 344 125 344 125 344 178 c 0,46,47
 344 233 344 233 324.5 263.5 c 128,-1,48
 305 294 305 294 276.5 307 c 128,-1,49
 248 320 248 320 219 320 c 0,50,51
 161 320 161 320 128 280 c 128,-1,52
 95 240 95 240 95 178 c 0,53,54
 95 131 95 131 112.5 100 c 128,-1,55
 130 69 130 69 157 53.5 c 128,-1,56
 184 38 184 38 214 38 c 0,42,43
EndSplineSet
EndChar

StartChar: aacute
Encoding: 225 225 158
Width: 454
GlyphClass: 1
Flags: W
LayerCount: 2
Fore
SplineSet
150 436 m 2,0,-1
 212 493 l 2,1,2
 217 498 217 498 221 500 c 128,-1,3
 225 502 225 502 233 502 c 2,4,-1
 282 502 l 2,5,6
 289 502 289 502 286 496 c 2,7,-1
 214 440 l 2,8,9
 202 431 202 431 189 431 c 2,10,-1
 152 431 l 2,11,12
 149 431 149 431 148 433 c 128,-1,13
 147 435 147 435 150 436 c 2,0,-1
344 57 m 1,14,15
 322 22 322 22 288 6.5 c 128,-1,16
 254 -9 254 -9 216 -9 c 0,17,18
 162 -9 162 -9 123.5 16.5 c 128,-1,19
 85 42 85 42 64.5 84.5 c 128,-1,20
 44 127 44 127 44 178 c 0,21,22
 44 233 44 233 66.5 275.5 c 128,-1,23
 89 318 89 318 128.5 342.5 c 128,-1,24
 168 367 168 367 219 367 c 0,25,26
 259 367 259 367 292.5 350.5 c 128,-1,27
 326 334 326 334 345 305 c 1,28,29
 345 334 345 334 356 347 c 128,-1,30
 367 360 367 360 385 360 c 2,31,-1
 390 360 l 2,32,33
 395 360 395 360 395 354 c 2,34,-1
 395 6 l 2,35,36
 395 0 395 0 390 0 c 2,37,-1
 349 0 l 2,38,39
 344 0 344 0 344 6 c 2,40,-1
 344 57 l 1,14,15
214 38 m 0,41,42
 247 38 247 38 276.5 51 c 128,-1,43
 306 64 306 64 325 94.5 c 128,-1,44
 344 125 344 125 344 178 c 0,45,46
 344 233 344 233 324.5 263.5 c 128,-1,47
 305 294 305 294 276.5 307 c 128,-1,48
 248 320 248 320 219 320 c 0,49,50
 161 320 161 320 128 280 c 128,-1,51
 95 240 95 240 95 178 c 0,52,53
 95 131 95 131 112.5 100 c 128,-1,54
 130 69 130 69 157 53.5 c 128,-1,55
 184 38 184 38 214 38 c 0,41,42
EndSplineSet
EndChar

StartChar: acircumflex
Encoding: 226 226 159
Width: 454
GlyphClass: 1
Flags: W
LayerCount: 2
Fore
SplineSet
224 475 m 1,0,-1
 186 440 l 2,1,2
 180 434 180 434 174.5 432.5 c 128,-1,3
 169 431 169 431 161 431 c 2,4,-1
 128 431 l 2,5,6
 126 431 126 431 124.5 433 c 128,-1,7
 123 435 123 435 126 436 c 2,8,-1
 188 493 l 2,9,10
 193 498 193 498 197 500 c 128,-1,11
 201 502 201 502 209 502 c 2,12,-1
 238 502 l 2,13,14
 246 502 246 502 250 500 c 128,-1,15
 254 498 254 498 258 493 c 2,16,-1
 321 436 l 2,17,18
 323 435 323 435 322 433 c 128,-1,19
 321 431 321 431 318 431 c 2,20,-1
 286 431 l 2,21,22
 279 431 279 431 273.5 432.5 c 128,-1,23
 268 434 268 434 261 440 c 2,24,-1
 224 475 l 1,0,-1
344 57 m 1,25,26
 322 22 322 22 288 6.5 c 128,-1,27
 254 -9 254 -9 216 -9 c 0,28,29
 162 -9 162 -9 123.5 16.5 c 128,-1,30
 85 42 85 42 64.5 84.5 c 128,-1,31
 44 127 44 127 44 178 c 0,32,33
 44 233 44 233 66.5 275.5 c 128,-1,34
 89 318 89 318 128.5 342.5 c 128,-1,35
 168 367 168 367 219 367 c 0,36,37
 259 367 259 367 292.5 350.5 c 128,-1,38
 326 334 326 334 345 305 c 1,39,40
 345 334 345 334 356 347 c 128,-1,41
 367 360 367 360 385 360 c 2,42,-1
 390 360 l 2,43,44
 395 360 395 360 395 354 c 2,45,-1
 395 6 l 2,46,47
 395 0 395 0 390 0 c 2,48,-1
 349 0 l 2,49,50
 344 0 344 0 344 6 c 2,51,-1
 344 57 l 1,25,26
214 38 m 0,52,53
 247 38 247 38 276.5 51 c 128,-1,54
 306 64 306 64 325 94.5 c 128,-1,55
 344 125 344 125 344 178 c 0,56,57
 344 233 344 233 324.5 263.5 c 128,-1,58
 305 294 305 294 276.5 307 c 128,-1,59
 248 320 248 320 219 320 c 0,60,61
 161 320 161 320 128 280 c 128,-1,62
 95 240 95 240 95 178 c 0,63,64
 95 131 95 131 112.5 100 c 128,-1,65
 130 69 130 69 157 53.5 c 128,-1,66
 184 38 184 38 214 38 c 0,52,53
EndSplineSet
EndChar

StartChar: atilde
Encoding: 227 227 160
Width: 454
GlyphClass: 1
Flags: W
LayerCount: 2
Fore
SplineSet
128 431 m 2,0,1
 122 431 122 431 122 436 c 0,2,3
 124 464 124 464 137 479.5 c 128,-1,4
 150 495 150 495 172 495 c 0,5,6
 188 495 188 495 204 488.5 c 128,-1,7
 220 482 220 482 234 475 c 128,-1,8
 248 468 248 468 258 468 c 0,9,10
 267 468 267 468 271.5 472 c 128,-1,11
 276 476 276 476 278 483 c 0,12,13
 281 491 281 491 287 491 c 2,14,-1
 313 491 l 2,15,16
 320 491 320 491 320 485 c 0,17,18
 318 457 318 457 301.5 442.5 c 128,-1,19
 285 428 285 428 262 428 c 0,20,21
 247 428 247 428 231.5 435 c 128,-1,22
 216 442 216 442 202.5 448.5 c 128,-1,23
 189 455 189 455 178 455 c 0,24,25
 164 455 164 455 162 438 c 0,26,27
 161 431 161 431 155 431 c 2,28,-1
 128 431 l 2,0,1
344 57 m 1,29,30
 322 22 322 22 288 6.5 c 128,-1,31
 254 -9 254 -9 216 -9 c 0,32,33
 162 -9 162 -9 123.5 16.5 c 128,-1,34
 85 42 85 42 64.5 84.5 c 128,-1,35
 44 127 44 127 44 178 c 0,36,37
 44 233 44 233 66.5 275.5 c 128,-1,38
 89 318 89 318 128.5 342.5 c 128,-1,39
 168 367 168 367 219 367 c 0,40,41
 259 367 259 367 292.5 350.5 c 128,-1,42
 326 334 326 334 345 305 c 1,43,44
 345 334 345 334 356 347 c 128,-1,45
 367 360 367 360 385 360 c 2,46,-1
 390 360 l 2,47,48
 395 360 395 360 395 354 c 2,49,-1
 395 6 l 2,50,51
 395 0 395 0 390 0 c 2,52,-1
 349 0 l 2,53,54
 344 0 344 0 344 6 c 2,55,-1
 344 57 l 1,29,30
214 38 m 0,56,57
 247 38 247 38 276.5 51 c 128,-1,58
 306 64 306 64 325 94.5 c 128,-1,59
 344 125 344 125 344 178 c 0,60,61
 344 233 344 233 324.5 263.5 c 128,-1,62
 305 294 305 294 276.5 307 c 128,-1,63
 248 320 248 320 219 320 c 0,64,65
 161 320 161 320 128 280 c 128,-1,66
 95 240 95 240 95 178 c 0,67,68
 95 131 95 131 112.5 100 c 128,-1,69
 130 69 130 69 157 53.5 c 128,-1,70
 184 38 184 38 214 38 c 0,56,57
EndSplineSet
EndChar

StartChar: adieresis
Encoding: 228 228 161
Width: 454
GlyphClass: 1
Flags: W
LayerCount: 2
Fore
SplineSet
126 458 m 0,0,1
 126 472 126 472 136 482 c 128,-1,2
 146 492 146 492 159 492 c 0,3,4
 173 492 173 492 183 482 c 128,-1,5
 193 472 193 472 193 458 c 0,6,7
 193 445 193 445 183 435.5 c 128,-1,8
 173 426 173 426 159 426 c 0,9,10
 146 426 146 426 136 435.5 c 128,-1,11
 126 445 126 445 126 458 c 0,0,1
238 458 m 0,12,13
 238 472 238 472 248 482 c 128,-1,14
 258 492 258 492 271 492 c 0,15,16
 285 492 285 492 295 482 c 128,-1,17
 305 472 305 472 305 458 c 0,18,19
 305 445 305 445 295 435.5 c 128,-1,20
 285 426 285 426 271 426 c 0,21,22
 258 426 258 426 248 435.5 c 128,-1,23
 238 445 238 445 238 458 c 0,12,13
344 57 m 1,24,25
 322 22 322 22 288 6.5 c 128,-1,26
 254 -9 254 -9 216 -9 c 0,27,28
 162 -9 162 -9 123.5 16.5 c 128,-1,29
 85 42 85 42 64.5 84.5 c 128,-1,30
 44 127 44 127 44 178 c 0,31,32
 44 233 44 233 66.5 275.5 c 128,-1,33
 89 318 89 318 128.5 342.5 c 128,-1,34
 168 367 168 367 219 367 c 0,35,36
 259 367 259 367 292.5 350.5 c 128,-1,37
 326 334 326 334 345 305 c 1,38,39
 345 334 345 334 356 347 c 128,-1,40
 367 360 367 360 385 360 c 2,41,-1
 390 360 l 2,42,43
 395 360 395 360 395 354 c 2,44,-1
 395 6 l 2,45,46
 395 0 395 0 390 0 c 2,47,-1
 349 0 l 2,48,49
 344 0 344 0 344 6 c 2,50,-1
 344 57 l 1,24,25
214 38 m 0,51,52
 247 38 247 38 276.5 51 c 128,-1,53
 306 64 306 64 325 94.5 c 128,-1,54
 344 125 344 125 344 178 c 0,55,56
 344 233 344 233 324.5 263.5 c 128,-1,57
 305 294 305 294 276.5 307 c 128,-1,58
 248 320 248 320 219 320 c 0,59,60
 161 320 161 320 128 280 c 128,-1,61
 95 240 95 240 95 178 c 0,62,63
 95 131 95 131 112.5 100 c 128,-1,64
 130 69 130 69 157 53.5 c 128,-1,65
 184 38 184 38 214 38 c 0,51,52
EndSplineSet
EndChar

StartChar: aring
Encoding: 229 229 162
Width: 454
GlyphClass: 1
Flags: W
LayerCount: 2
Fore
SplineSet
151 484 m 0,0,1
 151 511 151 511 170.5 529.5 c 128,-1,2
 190 548 190 548 216 548 c 0,3,4
 243 548 243 548 262.5 529.5 c 128,-1,5
 282 511 282 511 282 484 c 0,6,7
 282 458 282 458 262.5 439.5 c 128,-1,8
 243 421 243 421 216 421 c 0,9,10
 190 421 190 421 170.5 439.5 c 128,-1,11
 151 458 151 458 151 484 c 0,0,1
216 450 m 0,12,13
 231 450 231 450 240 460 c 128,-1,14
 249 470 249 470 249 484 c 0,15,16
 249 499 249 499 240 509 c 128,-1,17
 231 519 231 519 216 519 c 0,18,19
 202 519 202 519 193 509 c 128,-1,20
 184 499 184 499 184 484 c 0,21,22
 184 470 184 470 193 460 c 128,-1,23
 202 450 202 450 216 450 c 0,12,13
344 57 m 1,24,25
 322 22 322 22 288 6.5 c 128,-1,26
 254 -9 254 -9 216 -9 c 0,27,28
 162 -9 162 -9 123.5 16.5 c 128,-1,29
 85 42 85 42 64.5 84.5 c 128,-1,30
 44 127 44 127 44 178 c 0,31,32
 44 233 44 233 66.5 275.5 c 128,-1,33
 89 318 89 318 128.5 342.5 c 128,-1,34
 168 367 168 367 219 367 c 0,35,36
 259 367 259 367 292.5 350.5 c 128,-1,37
 326 334 326 334 345 305 c 1,38,39
 345 334 345 334 356 347 c 128,-1,40
 367 360 367 360 385 360 c 2,41,-1
 390 360 l 2,42,43
 395 360 395 360 395 354 c 2,44,-1
 395 6 l 2,45,46
 395 0 395 0 390 0 c 2,47,-1
 349 0 l 2,48,49
 344 0 344 0 344 6 c 2,50,-1
 344 57 l 1,24,25
214 38 m 0,51,52
 247 38 247 38 276.5 51 c 128,-1,53
 306 64 306 64 325 94.5 c 128,-1,54
 344 125 344 125 344 178 c 0,55,56
 344 233 344 233 324.5 263.5 c 128,-1,57
 305 294 305 294 276.5 307 c 128,-1,58
 248 320 248 320 219 320 c 0,59,60
 161 320 161 320 128 280 c 128,-1,61
 95 240 95 240 95 178 c 0,62,63
 95 131 95 131 112.5 100 c 128,-1,64
 130 69 130 69 157 53.5 c 128,-1,65
 184 38 184 38 214 38 c 0,51,52
EndSplineSet
EndChar

StartChar: ae
Encoding: 230 230 163
Width: 712
GlyphClass: 1
Flags: W
LayerCount: 2
Fore
SplineSet
395 52 m 1,0,-1
 395 6 l 2,1,2
 395 0 395 0 390 0 c 2,3,-1
 349 0 l 2,4,5
 344 0 344 0 344 6 c 2,6,-1
 344 57 l 1,7,8
 322 22 322 22 288.5 6.5 c 128,-1,9
 255 -9 255 -9 216 -9 c 0,10,11
 162 -9 162 -9 123.5 16.5 c 128,-1,12
 85 42 85 42 64.5 84.5 c 128,-1,13
 44 127 44 127 44 178 c 0,14,15
 44 233 44 233 66.5 275.5 c 128,-1,16
 89 318 89 318 128.5 342.5 c 128,-1,17
 168 367 168 367 219 367 c 0,18,19
 259 367 259 367 292 350.5 c 128,-1,20
 325 334 325 334 344 305 c 1,21,22
 344 334 344 334 355.5 347 c 128,-1,23
 367 360 367 360 385 360 c 2,24,-1
 390 360 l 2,25,26
 395 360 395 360 395 354 c 2,27,-1
 395 305 l 1,28,29
 418 334 418 334 449.5 350.5 c 128,-1,30
 481 367 481 367 518 367 c 0,31,32
 576 367 576 367 609.5 343 c 128,-1,33
 643 319 643 319 657.5 281.5 c 128,-1,34
 672 244 672 244 672 201 c 0,35,36
 672 192 672 192 672 184.5 c 128,-1,37
 672 177 672 177 671 171 c 0,38,39
 670 160 670 160 657 160 c 2,40,-1
 402 160 l 1,41,42
 407 96 407 96 445.5 66.5 c 128,-1,43
 484 37 484 37 537 37 c 0,44,45
 585 37 585 37 608 52 c 128,-1,46
 631 67 631 67 647 83 c 0,47,48
 649 85 649 85 651.5 88.5 c 128,-1,49
 654 92 654 92 658 92 c 0,50,51
 663 92 663 92 665 88 c 128,-1,52
 667 84 667 84 667 79 c 0,53,54
 667 58 667 58 650 38 c 128,-1,55
 633 18 633 18 603 4.5 c 128,-1,56
 573 -9 573 -9 533 -9 c 0,57,58
 496 -9 496 -9 458.5 5.5 c 128,-1,59
 421 20 421 20 395 52 c 1,0,-1
402 203 m 1,60,-1
 622 203 l 1,61,62
 623 233 623 233 615 260 c 128,-1,63
 607 287 607 287 584.5 304 c 128,-1,64
 562 321 562 321 518 321 c 0,65,66
 472 321 472 321 440.5 290 c 128,-1,67
 409 259 409 259 402 203 c 1,60,-1
214 38 m 0,68,69
 247 38 247 38 276.5 51 c 128,-1,70
 306 64 306 64 325 94.5 c 128,-1,71
 344 125 344 125 344 178 c 0,72,73
 344 233 344 233 324.5 263.5 c 128,-1,74
 305 294 305 294 276.5 307 c 128,-1,75
 248 320 248 320 219 320 c 0,76,77
 161 320 161 320 127.5 280.5 c 128,-1,78
 94 241 94 241 94 178 c 0,79,80
 94 132 94 132 111.5 100.5 c 128,-1,81
 129 69 129 69 156.5 53.5 c 128,-1,82
 184 38 184 38 214 38 c 0,68,69
EndSplineSet
EndChar

StartChar: ccedilla
Encoding: 231 231 164
Width: 362
GlyphClass: 1
Flags: W
LayerCount: 2
Fore
SplineSet
237 -9 m 1,0,-1
 202 -77 l 2,1,2
 198 -86 198 -86 181 -86 c 2,3,-1
 147 -86 l 2,4,5
 140 -86 140 -86 144 -80 c 2,6,-1
 190 -8 l 1,7,8
 123 1 123 1 83.5 50 c 128,-1,9
 44 99 44 99 44 177 c 0,10,11
 44 233 44 233 66.5 276 c 128,-1,12
 89 319 89 319 128 343 c 128,-1,13
 167 367 167 367 218 367 c 0,14,15
 271 367 271 367 307 349 c 0,16,17
 335 338 335 338 328 313 c 2,18,-1
 324 298 l 2,19,20
 323 292 323 292 319 292 c 0,21,22
 317 292 317 292 313 294 c 0,23,24
 291 307 291 307 270 313.5 c 128,-1,25
 249 320 249 320 218 320 c 0,26,27
 163 320 163 320 129 282 c 128,-1,28
 95 244 95 244 95 178 c 256,29,30
 95 112 95 112 129 74.5 c 128,-1,31
 163 37 163 37 223 37 c 0,32,33
 260 37 260 37 282 50 c 128,-1,34
 304 63 304 63 320 82 c 0,35,36
 322 84 322 84 324 86.5 c 128,-1,37
 326 89 326 89 330 89 c 0,38,39
 340 89 340 89 340 74 c 0,40,41
 340 47 340 47 311 21.5 c 128,-1,42
 282 -4 282 -4 237 -9 c 1,0,-1
EndSplineSet
EndChar

StartChar: egrave
Encoding: 232 232 165
Width: 406
GlyphClass: 1
Flags: W
LayerCount: 2
Fore
SplineSet
133 496 m 2,0,1
 132 498 132 498 132.5 500 c 128,-1,2
 133 502 133 502 136 502 c 2,3,-1
 186 502 l 2,4,5
 194 502 194 502 198 500 c 128,-1,6
 202 498 202 498 207 493 c 2,7,-1
 270 436 l 2,8,9
 272 435 272 435 271 433 c 128,-1,10
 270 431 270 431 267 431 c 2,11,-1
 230 431 l 2,12,13
 217 431 217 431 205 440 c 2,14,-1
 133 496 l 2,0,1
95 160 m 1,15,16
 100 95 100 95 136.5 66 c 128,-1,17
 173 37 173 37 226 37 c 0,18,19
 274 37 274 37 299 51.5 c 128,-1,20
 324 66 324 66 340 82 c 0,21,22
 342 85 342 85 345 88.5 c 128,-1,23
 348 92 348 92 352 92 c 0,24,25
 357 92 357 92 358.5 87.5 c 128,-1,26
 360 83 360 83 360 78 c 0,27,28
 360 57 360 57 342 37 c 128,-1,29
 324 17 324 17 293 4 c 128,-1,30
 262 -9 262 -9 222 -9 c 0,31,32
 180 -9 180 -9 139 9 c 128,-1,33
 98 27 98 27 71 68.5 c 128,-1,34
 44 110 44 110 44 178 c 0,35,36
 44 233 44 233 65 275.5 c 128,-1,37
 86 318 86 318 123.5 342.5 c 128,-1,38
 161 367 161 367 208 367 c 0,39,40
 265 367 265 367 299.5 343 c 128,-1,41
 334 319 334 319 349.5 281.5 c 128,-1,42
 365 244 365 244 365 201 c 0,43,44
 365 192 365 192 365 184.5 c 128,-1,45
 365 177 365 177 364 171 c 0,46,47
 363 160 363 160 351 160 c 2,48,-1
 95 160 l 1,15,16
95 203 m 1,49,-1
 314 203 l 1,50,51
 315 232 315 232 306 259 c 128,-1,52
 297 286 297 286 273.5 303.5 c 128,-1,53
 250 321 250 321 207 321 c 0,54,55
 160 321 160 321 130.5 290 c 128,-1,56
 101 259 101 259 95 203 c 1,49,-1
EndSplineSet
EndChar

StartChar: eacute
Encoding: 233 233 166
Width: 406
GlyphClass: 1
Flags: W
LayerCount: 2
Fore
SplineSet
145 436 m 2,0,-1
 207 493 l 2,1,2
 212 498 212 498 216 500 c 128,-1,3
 220 502 220 502 228 502 c 2,4,-1
 277 502 l 2,5,6
 284 502 284 502 281 496 c 2,7,-1
 209 440 l 2,8,9
 197 431 197 431 184 431 c 2,10,-1
 147 431 l 2,11,12
 144 431 144 431 143 433 c 128,-1,13
 142 435 142 435 145 436 c 2,0,-1
95 160 m 1,14,15
 100 95 100 95 136.5 66 c 128,-1,16
 173 37 173 37 226 37 c 0,17,18
 274 37 274 37 299 51.5 c 128,-1,19
 324 66 324 66 340 82 c 0,20,21
 342 85 342 85 345 88.5 c 128,-1,22
 348 92 348 92 352 92 c 0,23,24
 357 92 357 92 358.5 87.5 c 128,-1,25
 360 83 360 83 360 78 c 0,26,27
 360 57 360 57 342 37 c 128,-1,28
 324 17 324 17 293 4 c 128,-1,29
 262 -9 262 -9 222 -9 c 0,30,31
 180 -9 180 -9 139 9 c 128,-1,32
 98 27 98 27 71 68.5 c 128,-1,33
 44 110 44 110 44 178 c 0,34,35
 44 233 44 233 65 275.5 c 128,-1,36
 86 318 86 318 123.5 342.5 c 128,-1,37
 161 367 161 367 208 367 c 0,38,39
 265 367 265 367 299.5 343 c 128,-1,40
 334 319 334 319 349.5 281.5 c 128,-1,41
 365 244 365 244 365 201 c 0,42,43
 365 192 365 192 365 184.5 c 128,-1,44
 365 177 365 177 364 171 c 0,45,46
 363 160 363 160 351 160 c 2,47,-1
 95 160 l 1,14,15
95 203 m 1,48,-1
 314 203 l 1,49,50
 315 232 315 232 306 259 c 128,-1,51
 297 286 297 286 273.5 303.5 c 128,-1,52
 250 321 250 321 207 321 c 0,53,54
 160 321 160 321 130.5 290 c 128,-1,55
 101 259 101 259 95 203 c 1,48,-1
EndSplineSet
EndChar

StartChar: ecircumflex
Encoding: 234 234 167
Width: 406
GlyphClass: 1
Flags: W
LayerCount: 2
Fore
SplineSet
213 475 m 1,0,-1
 175 440 l 2,1,2
 169 434 169 434 163.5 432.5 c 128,-1,3
 158 431 158 431 150 431 c 2,4,-1
 117 431 l 2,5,6
 114 431 114 431 113 433 c 128,-1,7
 112 435 112 435 115 436 c 2,8,-1
 177 493 l 2,9,10
 182 498 182 498 186 500 c 128,-1,11
 190 502 190 502 198 502 c 2,12,-1
 227 502 l 2,13,14
 235 502 235 502 239 500 c 128,-1,15
 243 498 243 498 247 493 c 2,16,-1
 310 436 l 2,17,18
 312 435 312 435 311 433 c 128,-1,19
 310 431 310 431 307 431 c 2,20,-1
 275 431 l 2,21,22
 268 431 268 431 262 432.5 c 128,-1,23
 256 434 256 434 250 440 c 2,24,-1
 213 475 l 1,0,-1
95 160 m 1,25,26
 100 95 100 95 136.5 66 c 128,-1,27
 173 37 173 37 226 37 c 0,28,29
 274 37 274 37 299 51.5 c 128,-1,30
 324 66 324 66 340 82 c 0,31,32
 342 85 342 85 345 88.5 c 128,-1,33
 348 92 348 92 352 92 c 0,34,35
 357 92 357 92 358.5 87.5 c 128,-1,36
 360 83 360 83 360 78 c 0,37,38
 360 57 360 57 342 37 c 128,-1,39
 324 17 324 17 293 4 c 128,-1,40
 262 -9 262 -9 222 -9 c 0,41,42
 180 -9 180 -9 139 9 c 128,-1,43
 98 27 98 27 71 68.5 c 128,-1,44
 44 110 44 110 44 178 c 0,45,46
 44 233 44 233 65 275.5 c 128,-1,47
 86 318 86 318 123.5 342.5 c 128,-1,48
 161 367 161 367 208 367 c 0,49,50
 265 367 265 367 299.5 343 c 128,-1,51
 334 319 334 319 349.5 281.5 c 128,-1,52
 365 244 365 244 365 201 c 0,53,54
 365 192 365 192 365 184.5 c 128,-1,55
 365 177 365 177 364 171 c 0,56,57
 363 160 363 160 351 160 c 2,58,-1
 95 160 l 1,25,26
95 203 m 1,59,-1
 314 203 l 1,60,61
 315 232 315 232 306 259 c 128,-1,62
 297 286 297 286 273.5 303.5 c 128,-1,63
 250 321 250 321 207 321 c 0,64,65
 160 321 160 321 130.5 290 c 128,-1,66
 101 259 101 259 95 203 c 1,59,-1
EndSplineSet
EndChar

StartChar: edieresis
Encoding: 235 235 168
Width: 406
GlyphClass: 1
Flags: W
LayerCount: 2
Fore
SplineSet
120 458 m 0,0,1
 120 472 120 472 130 482 c 128,-1,2
 140 492 140 492 153 492 c 0,3,4
 167 492 167 492 177 482 c 128,-1,5
 187 472 187 472 187 458 c 0,6,7
 187 445 187 445 177 435.5 c 128,-1,8
 167 426 167 426 153 426 c 0,9,10
 140 426 140 426 130 435.5 c 128,-1,11
 120 445 120 445 120 458 c 0,0,1
232 458 m 0,12,13
 232 472 232 472 242 482 c 128,-1,14
 252 492 252 492 265 492 c 0,15,16
 279 492 279 492 289 482 c 128,-1,17
 299 472 299 472 299 458 c 0,18,19
 299 445 299 445 289 435.5 c 128,-1,20
 279 426 279 426 265 426 c 0,21,22
 252 426 252 426 242 435.5 c 128,-1,23
 232 445 232 445 232 458 c 0,12,13
95 160 m 1,24,25
 100 95 100 95 136.5 66 c 128,-1,26
 173 37 173 37 226 37 c 0,27,28
 274 37 274 37 299 51.5 c 128,-1,29
 324 66 324 66 340 82 c 0,30,31
 342 85 342 85 345 88.5 c 128,-1,32
 348 92 348 92 352 92 c 0,33,34
 357 92 357 92 358.5 87.5 c 128,-1,35
 360 83 360 83 360 78 c 0,36,37
 360 57 360 57 342 37 c 128,-1,38
 324 17 324 17 293 4 c 128,-1,39
 262 -9 262 -9 222 -9 c 0,40,41
 180 -9 180 -9 139 9 c 128,-1,42
 98 27 98 27 71 68.5 c 128,-1,43
 44 110 44 110 44 178 c 0,44,45
 44 233 44 233 65 275.5 c 128,-1,46
 86 318 86 318 123.5 342.5 c 128,-1,47
 161 367 161 367 208 367 c 0,48,49
 265 367 265 367 299.5 343 c 128,-1,50
 334 319 334 319 349.5 281.5 c 128,-1,51
 365 244 365 244 365 201 c 0,52,53
 365 192 365 192 365 184.5 c 128,-1,54
 365 177 365 177 364 171 c 0,55,56
 363 160 363 160 351 160 c 2,57,-1
 95 160 l 1,24,25
95 203 m 1,58,-1
 314 203 l 1,59,60
 315 232 315 232 306 259 c 128,-1,61
 297 286 297 286 273.5 303.5 c 128,-1,62
 250 321 250 321 207 321 c 0,63,64
 160 321 160 321 130.5 290 c 128,-1,65
 101 259 101 259 95 203 c 1,58,-1
EndSplineSet
EndChar

StartChar: igrave
Encoding: 236 236 169
Width: 170
GlyphClass: 1
Flags: W
LayerCount: 2
Fore
SplineSet
16 496 m 2,0,1
 15 498 15 498 15.5 500 c 128,-1,2
 16 502 16 502 19 502 c 2,3,-1
 69 502 l 2,4,5
 77 502 77 502 81 500 c 128,-1,6
 85 498 85 498 90 493 c 2,7,-1
 152 436 l 2,8,9
 154 435 154 435 153 433 c 128,-1,10
 152 431 152 431 150 431 c 2,11,-1
 112 431 l 2,12,13
 100 431 100 431 88 440 c 2,14,-1
 16 496 l 2,0,1
65 0 m 2,15,16
 60 0 60 0 60 6 c 2,17,-1
 60 354 l 2,18,19
 60 360 60 360 65 360 c 2,20,-1
 68 360 l 2,21,22
 86 360 86 360 97.5 346 c 128,-1,23
 109 332 109 332 109 308 c 2,24,-1
 109 6 l 2,25,26
 109 0 109 0 104 0 c 2,27,-1
 65 0 l 2,15,16
EndSplineSet
EndChar

StartChar: iacute
Encoding: 237 237 170
Width: 170
GlyphClass: 1
Flags: W
LayerCount: 2
Fore
SplineSet
17 436 m 2,0,-1
 80 493 l 2,1,2
 85 498 85 498 89 500 c 128,-1,3
 93 502 93 502 101 502 c 2,4,-1
 150 502 l 2,5,6
 154 502 154 502 154.5 500 c 128,-1,7
 155 498 155 498 153 496 c 2,8,-1
 82 440 l 2,9,10
 70 431 70 431 57 431 c 2,11,-1
 20 431 l 2,12,13
 17 431 17 431 16 433 c 128,-1,14
 15 435 15 435 17 436 c 2,0,-1
66 0 m 2,15,16
 61 0 61 0 61 6 c 2,17,-1
 61 354 l 2,18,19
 61 360 61 360 66 360 c 2,20,-1
 70 360 l 2,21,22
 87 360 87 360 98.5 346 c 128,-1,23
 110 332 110 332 110 308 c 2,24,-1
 110 6 l 2,25,26
 110 0 110 0 105 0 c 2,27,-1
 66 0 l 2,15,16
EndSplineSet
EndChar

StartChar: icircumflex
Encoding: 238 238 171
Width: 170
GlyphClass: 1
Flags: W
LayerCount: 2
Fore
SplineSet
86 475 m 1,0,-1
 48 440 l 2,1,2
 42 434 42 434 36.5 432.5 c 128,-1,3
 31 431 31 431 23 431 c 2,4,-1
 -10 431 l 2,5,6
 -13 431 -13 431 -14 433 c 128,-1,7
 -15 435 -15 435 -13 436 c 2,8,-1
 50 493 l 2,9,10
 55 498 55 498 59 500 c 128,-1,11
 63 502 63 502 71 502 c 2,12,-1
 100 502 l 2,13,14
 108 502 108 502 111.5 500 c 128,-1,15
 115 498 115 498 120 493 c 2,16,-1
 183 436 l 2,17,18
 185 435 185 435 184 433 c 128,-1,19
 183 431 183 431 180 431 c 2,20,-1
 147 431 l 2,21,22
 140 431 140 431 134.5 432.5 c 128,-1,23
 129 434 129 434 122 440 c 2,24,-1
 86 475 l 1,0,-1
66 0 m 2,25,26
 61 0 61 0 61 6 c 2,27,-1
 61 354 l 2,28,29
 61 360 61 360 66 360 c 2,30,-1
 70 360 l 2,31,32
 87 360 87 360 98.5 346 c 128,-1,33
 110 332 110 332 110 308 c 2,34,-1
 110 6 l 2,35,36
 110 0 110 0 105 0 c 2,37,-1
 66 0 l 2,25,26
EndSplineSet
EndChar

StartChar: idieresis
Encoding: 239 239 172
Width: 170
GlyphClass: 1
Flags: W
LayerCount: 2
Fore
SplineSet
-4 458 m 0,0,1
 -4 472 -4 472 6 482 c 128,-1,2
 16 492 16 492 29 492 c 0,3,4
 43 492 43 492 53 482 c 128,-1,5
 63 472 63 472 63 458 c 0,6,7
 63 445 63 445 53 435.5 c 128,-1,8
 43 426 43 426 29 426 c 0,9,10
 16 426 16 426 6 435.5 c 128,-1,11
 -4 445 -4 445 -4 458 c 0,0,1
108 458 m 0,12,13
 108 472 108 472 118 482 c 128,-1,14
 128 492 128 492 141 492 c 0,15,16
 155 492 155 492 165 482 c 128,-1,17
 175 472 175 472 175 458 c 0,18,19
 175 445 175 445 165 435.5 c 128,-1,20
 155 426 155 426 141 426 c 0,21,22
 128 426 128 426 118 435.5 c 128,-1,23
 108 445 108 445 108 458 c 0,12,13
66 0 m 2,24,25
 61 0 61 0 61 6 c 2,26,-1
 61 354 l 2,27,28
 61 360 61 360 66 360 c 2,29,-1
 70 360 l 2,30,31
 88 360 88 360 99 346 c 128,-1,32
 110 332 110 332 110 308 c 2,33,-1
 110 6 l 2,34,35
 110 0 110 0 105 0 c 2,36,-1
 66 0 l 2,24,25
EndSplineSet
EndChar

StartChar: eth
Encoding: 240 240 173
Width: 443
GlyphClass: 1
Flags: W
LayerCount: 2
Fore
SplineSet
261 357 m 1,0,-1
 196 448 l 1,1,-1
 128 413 l 2,2,3
 124 412 124 412 121 416 c 2,4,-1
 103 442 l 2,5,6
 99 447 99 447 105 449 c 2,7,-1
 170 483 l 1,8,-1
 122 549 l 2,9,10
 119 556 119 556 126 556 c 2,11,-1
 145 556 l 2,12,13
 162 556 162 556 175 549 c 128,-1,14
 188 542 188 542 202 523 c 2,15,-1
 214 506 l 1,16,-1
 270 534 l 2,17,18
 274 537 274 537 276 532 c 2,19,-1
 294 507 l 2,20,21
 298 502 298 502 293 498 c 2,22,-1
 240 469 l 1,23,-1
 360 302 l 2,24,25
 374 283 374 283 386.5 252.5 c 128,-1,26
 399 222 399 222 399 176 c 0,27,28
 399 94 399 94 350 42.5 c 128,-1,29
 301 -9 301 -9 221 -9 c 0,30,31
 142 -9 142 -9 93 41 c 128,-1,32
 44 91 44 91 44 175 c 0,33,34
 44 258 44 258 92.5 309.5 c 128,-1,35
 141 361 141 361 220 361 c 0,36,37
 231 361 231 361 241 360 c 128,-1,38
 251 359 251 359 261 357 c 1,0,-1
220 37 m 256,39,40
 278 37 278 37 313 74 c 128,-1,41
 348 111 348 111 348 175 c 0,42,43
 348 238 348 238 312 276 c 128,-1,44
 276 314 276 314 220 314 c 0,45,46
 162 314 162 314 128 276 c 128,-1,47
 94 238 94 238 94 176 c 0,48,49
 94 113 94 113 128 75 c 128,-1,50
 162 37 162 37 220 37 c 256,39,40
EndSplineSet
EndChar

StartChar: ntilde
Encoding: 241 241 174
Width: 439
GlyphClass: 1
Flags: W
LayerCount: 2
Fore
SplineSet
126 431 m 2,0,1
 120 431 120 431 120 436 c 0,2,3
 122 464 122 464 135 479.5 c 128,-1,4
 148 495 148 495 170 495 c 0,5,6
 186 495 186 495 202 488.5 c 128,-1,7
 218 482 218 482 232 475 c 128,-1,8
 246 468 246 468 256 468 c 0,9,10
 265 468 265 468 269 472 c 128,-1,11
 273 476 273 476 276 483 c 0,12,13
 277 491 277 491 285 491 c 2,14,-1
 311 491 l 2,15,16
 317 491 317 491 317 485 c 0,17,18
 316 457 316 457 299.5 442.5 c 128,-1,19
 283 428 283 428 260 428 c 0,20,21
 245 428 245 428 229.5 435 c 128,-1,22
 214 442 214 442 200.5 448.5 c 128,-1,23
 187 455 187 455 176 455 c 0,24,25
 162 455 162 455 160 438 c 0,26,27
 158 431 158 431 152 431 c 2,28,-1
 126 431 l 2,0,1
110 307 m 1,29,30
 124 330 124 330 155 348.5 c 128,-1,31
 186 367 186 367 231 367 c 0,32,33
 302 367 302 367 341 323.5 c 128,-1,34
 380 280 380 280 380 214 c 2,35,-1
 380 6 l 2,36,37
 380 0 380 0 375 0 c 2,38,-1
 335 0 l 2,39,40
 330 0 330 0 330 6 c 2,41,-1
 330 200 l 2,42,43
 330 257 330 257 302 288.5 c 128,-1,44
 274 320 274 320 222 320 c 0,45,46
 109 320 109 320 109 193 c 2,47,-1
 109 6 l 2,48,49
 109 0 109 0 104 0 c 2,50,-1
 64 0 l 2,51,52
 59 0 59 0 59 6 c 2,53,-1
 59 354 l 2,54,55
 59 360 59 360 64 360 c 2,56,-1
 69 360 l 2,57,58
 87 360 87 360 98.5 345.5 c 128,-1,59
 110 331 110 331 110 307 c 1,29,30
EndSplineSet
EndChar

StartChar: ograve
Encoding: 242 242 175
Width: 443
GlyphClass: 1
Flags: W
LayerCount: 2
Fore
SplineSet
152 496 m 2,0,1
 151 498 151 498 151.5 500 c 128,-1,2
 152 502 152 502 155 502 c 2,3,-1
 205 502 l 2,4,5
 213 502 213 502 217 500 c 128,-1,6
 221 498 221 498 226 493 c 2,7,-1
 288 436 l 2,8,9
 290 435 290 435 289.5 433 c 128,-1,10
 289 431 289 431 286 431 c 2,11,-1
 248 431 l 2,12,13
 236 431 236 431 224 440 c 2,14,-1
 152 496 l 2,0,1
221 -9 m 0,15,16
 142 -9 142 -9 93 41.5 c 128,-1,17
 44 92 44 92 44 178 c 0,18,19
 44 235 44 235 66.5 277.5 c 128,-1,20
 89 320 89 320 128.5 343.5 c 128,-1,21
 168 367 168 367 220 367 c 0,22,23
 301 367 301 367 349.5 315 c 128,-1,24
 398 263 398 263 398 179 c 256,25,26
 398 95 398 95 349.5 43 c 128,-1,27
 301 -9 301 -9 221 -9 c 0,15,16
220 38 m 256,28,29
 278 38 278 38 313 76 c 128,-1,30
 348 114 348 114 348 178 c 256,31,32
 348 242 348 242 312 281 c 128,-1,33
 276 320 276 320 220 320 c 0,34,35
 162 320 162 320 128.5 281 c 128,-1,36
 95 242 95 242 95 179 c 0,37,38
 95 115 95 115 128.5 76.5 c 128,-1,39
 162 38 162 38 220 38 c 256,28,29
EndSplineSet
EndChar

StartChar: oacute
Encoding: 243 243 176
Width: 443
GlyphClass: 1
Flags: W
LayerCount: 2
Fore
SplineSet
153 436 m 2,0,-1
 215 493 l 2,1,2
 220 498 220 498 224 500 c 128,-1,3
 228 502 228 502 236 502 c 2,4,-1
 286 502 l 2,5,6
 289 502 289 502 290 500 c 128,-1,7
 291 498 291 498 289 496 c 2,8,-1
 217 440 l 2,9,10
 205 431 205 431 192 431 c 2,11,-1
 156 431 l 2,12,13
 153 431 153 431 152 433 c 128,-1,14
 151 435 151 435 153 436 c 2,0,-1
221 -9 m 0,15,16
 142 -9 142 -9 93 41.5 c 128,-1,17
 44 92 44 92 44 178 c 0,18,19
 44 235 44 235 66.5 277.5 c 128,-1,20
 89 320 89 320 128.5 343.5 c 128,-1,21
 168 367 168 367 220 367 c 0,22,23
 301 367 301 367 349.5 315 c 128,-1,24
 398 263 398 263 398 179 c 256,25,26
 398 95 398 95 349.5 43 c 128,-1,27
 301 -9 301 -9 221 -9 c 0,15,16
220 38 m 256,28,29
 278 38 278 38 313 76 c 128,-1,30
 348 114 348 114 348 178 c 256,31,32
 348 242 348 242 312 281 c 128,-1,33
 276 320 276 320 220 320 c 0,34,35
 162 320 162 320 128.5 281 c 128,-1,36
 95 242 95 242 95 179 c 0,37,38
 95 115 95 115 128.5 76.5 c 128,-1,39
 162 38 162 38 220 38 c 256,28,29
EndSplineSet
EndChar

StartChar: ocircumflex
Encoding: 244 244 177
Width: 443
GlyphClass: 1
Flags: W
LayerCount: 2
Fore
SplineSet
221 475 m 1,0,-1
 183 440 l 2,1,2
 177 434 177 434 171.5 432.5 c 128,-1,3
 166 431 166 431 158 431 c 2,4,-1
 126 431 l 2,5,6
 123 431 123 431 122 433 c 128,-1,7
 121 435 121 435 123 436 c 2,8,-1
 185 493 l 2,9,10
 190 498 190 498 194 500 c 128,-1,11
 198 502 198 502 206 502 c 2,12,-1
 235 502 l 2,13,14
 243 502 243 502 247 500 c 128,-1,15
 251 498 251 498 256 493 c 2,16,-1
 318 436 l 2,17,18
 320 435 320 435 319.5 433 c 128,-1,19
 319 431 319 431 316 431 c 2,20,-1
 283 431 l 2,21,22
 276 431 276 431 270.5 432.5 c 128,-1,23
 265 434 265 434 258 440 c 2,24,-1
 221 475 l 1,0,-1
221 -9 m 0,25,26
 142 -9 142 -9 93 41.5 c 128,-1,27
 44 92 44 92 44 178 c 0,28,29
 44 235 44 235 66.5 277.5 c 128,-1,30
 89 320 89 320 128.5 343.5 c 128,-1,31
 168 367 168 367 220 367 c 0,32,33
 301 367 301 367 349.5 315 c 128,-1,34
 398 263 398 263 398 179 c 256,35,36
 398 95 398 95 349.5 43 c 128,-1,37
 301 -9 301 -9 221 -9 c 0,25,26
220 38 m 256,38,39
 278 38 278 38 313 76 c 128,-1,40
 348 114 348 114 348 178 c 256,41,42
 348 242 348 242 312 281 c 128,-1,43
 276 320 276 320 220 320 c 0,44,45
 162 320 162 320 128.5 281 c 128,-1,46
 95 242 95 242 95 179 c 0,47,48
 95 115 95 115 128.5 76.5 c 128,-1,49
 162 38 162 38 220 38 c 256,38,39
EndSplineSet
EndChar

StartChar: otilde
Encoding: 245 245 178
Width: 443
GlyphClass: 1
Flags: W
LayerCount: 2
Fore
SplineSet
128 431 m 2,0,1
 122 431 122 431 122 436 c 0,2,3
 124 464 124 464 137 479.5 c 128,-1,4
 150 495 150 495 172 495 c 0,5,6
 188 495 188 495 204 488.5 c 128,-1,7
 220 482 220 482 234 475 c 128,-1,8
 248 468 248 468 258 468 c 0,9,10
 267 468 267 468 271.5 472 c 128,-1,11
 276 476 276 476 278 483 c 0,12,13
 281 491 281 491 287 491 c 2,14,-1
 313 491 l 2,15,16
 320 491 320 491 320 485 c 0,17,18
 318 457 318 457 301.5 442.5 c 128,-1,19
 285 428 285 428 262 428 c 0,20,21
 247 428 247 428 231.5 435 c 128,-1,22
 216 442 216 442 202.5 448.5 c 128,-1,23
 189 455 189 455 178 455 c 0,24,25
 164 455 164 455 162 438 c 0,26,27
 161 431 161 431 155 431 c 2,28,-1
 128 431 l 2,0,1
221 -9 m 0,29,30
 142 -9 142 -9 93 41.5 c 128,-1,31
 44 92 44 92 44 178 c 0,32,33
 44 235 44 235 66.5 277.5 c 128,-1,34
 89 320 89 320 128.5 343.5 c 128,-1,35
 168 367 168 367 220 367 c 0,36,37
 301 367 301 367 349.5 315 c 128,-1,38
 398 263 398 263 398 179 c 256,39,40
 398 95 398 95 349.5 43 c 128,-1,41
 301 -9 301 -9 221 -9 c 0,29,30
220 38 m 256,42,43
 278 38 278 38 313 76 c 128,-1,44
 348 114 348 114 348 178 c 256,45,46
 348 242 348 242 312 281 c 128,-1,47
 276 320 276 320 220 320 c 0,48,49
 162 320 162 320 128.5 281 c 128,-1,50
 95 242 95 242 95 179 c 0,51,52
 95 115 95 115 128.5 76.5 c 128,-1,53
 162 38 162 38 220 38 c 256,42,43
EndSplineSet
EndChar

StartChar: odieresis
Encoding: 246 246 179
Width: 443
GlyphClass: 1
Flags: W
LayerCount: 2
Fore
SplineSet
132 458 m 0,0,1
 132 472 132 472 142 482 c 128,-1,2
 152 492 152 492 165 492 c 0,3,4
 179 492 179 492 188.5 482 c 128,-1,5
 198 472 198 472 198 458 c 0,6,7
 198 445 198 445 188.5 435.5 c 128,-1,8
 179 426 179 426 165 426 c 0,9,10
 152 426 152 426 142 435.5 c 128,-1,11
 132 445 132 445 132 458 c 0,0,1
244 458 m 0,12,13
 244 472 244 472 254 482 c 128,-1,14
 264 492 264 492 277 492 c 0,15,16
 291 492 291 492 301 482 c 128,-1,17
 311 472 311 472 311 458 c 0,18,19
 311 445 311 445 301 435.5 c 128,-1,20
 291 426 291 426 277 426 c 0,21,22
 264 426 264 426 254 435.5 c 128,-1,23
 244 445 244 445 244 458 c 0,12,13
221 -9 m 0,24,25
 142 -9 142 -9 93 41.5 c 128,-1,26
 44 92 44 92 44 178 c 0,27,28
 44 235 44 235 66.5 277.5 c 128,-1,29
 89 320 89 320 128.5 343.5 c 128,-1,30
 168 367 168 367 220 367 c 0,31,32
 301 367 301 367 349.5 315 c 128,-1,33
 398 263 398 263 398 179 c 256,34,35
 398 95 398 95 349.5 43 c 128,-1,36
 301 -9 301 -9 221 -9 c 0,24,25
220 38 m 256,37,38
 278 38 278 38 313 76 c 128,-1,39
 348 114 348 114 348 178 c 256,40,41
 348 242 348 242 312 281 c 128,-1,42
 276 320 276 320 220 320 c 0,43,44
 162 320 162 320 128.5 281 c 128,-1,45
 95 242 95 242 95 179 c 0,46,47
 95 115 95 115 128.5 76.5 c 128,-1,48
 162 38 162 38 220 38 c 256,37,38
EndSplineSet
EndChar

StartChar: divide
Encoding: 247 247 180
Width: 384
GlyphClass: 1
Flags: W
LayerCount: 2
Fore
SplineSet
162 394 m 0,0,1
 162 408 162 408 171 417 c 128,-1,2
 180 426 180 426 192 426 c 0,3,4
 205 426 205 426 214 417 c 128,-1,5
 223 408 223 408 223 394 c 0,6,7
 223 383 223 383 214 373.5 c 128,-1,8
 205 364 205 364 192 364 c 0,9,10
 180 364 180 364 171 373.5 c 128,-1,11
 162 383 162 383 162 394 c 0,0,1
46 249 m 2,12,13
 41 249 41 249 41 255 c 2,14,-1
 41 289 l 2,15,16
 41 295 41 295 46 295 c 2,17,-1
 305 295 l 2,18,19
 324 295 324 295 334 284.5 c 128,-1,20
 344 274 344 274 344 260 c 2,21,-1
 344 255 l 2,22,23
 344 249 344 249 339 249 c 2,24,-1
 46 249 l 2,12,13
162 148 m 0,25,26
 162 161 162 161 171 170 c 128,-1,27
 180 179 180 179 192 179 c 0,28,29
 205 179 205 179 214 170 c 128,-1,30
 223 161 223 161 223 148 c 0,31,32
 223 136 223 136 214 127 c 128,-1,33
 205 118 205 118 192 118 c 0,34,35
 180 118 180 118 171 127 c 128,-1,36
 162 136 162 136 162 148 c 0,25,26
EndSplineSet
EndChar

StartChar: oslash
Encoding: 248 248 181
Width: 443
GlyphClass: 1
Flags: W
LayerCount: 2
Fore
SplineSet
221 -9 m 0,0,1
 142 -9 142 -9 93 42 c 128,-1,2
 44 93 44 93 44 178 c 256,3,4
 44 263 44 263 92.5 315 c 128,-1,5
 141 367 141 367 220 367 c 0,6,7
 301 367 301 367 350 315 c 128,-1,8
 399 263 399 263 399 179 c 256,9,10
 399 95 399 95 350 43 c 128,-1,11
 301 -9 301 -9 221 -9 c 0,0,1
137 68 m 1,12,-1
 287 301 l 1,13,14
 259 320 259 320 220 320 c 0,15,16
 162 320 162 320 128 281.5 c 128,-1,17
 94 243 94 243 94 179 c 0,18,19
 94 105 94 105 137 68 c 1,12,-1
320 271 m 1,20,-1
 176 45 l 1,21,22
 194 38 194 38 220 38 c 0,23,24
 278 38 278 38 313 76 c 128,-1,25
 348 114 348 114 348 178 c 0,26,27
 348 234 348 234 320 271 c 1,20,-1
EndSplineSet
EndChar

StartChar: ugrave
Encoding: 249 249 182
Width: 423
GlyphClass: 1
Flags: W
LayerCount: 2
Fore
SplineSet
128 496 m 2,0,1
 127 498 127 498 127.5 500 c 128,-1,2
 128 502 128 502 131 502 c 2,3,-1
 181 502 l 2,4,5
 189 502 189 502 193 500 c 128,-1,6
 197 498 197 498 202 493 c 2,7,-1
 265 436 l 2,8,9
 267 435 267 435 266 433 c 128,-1,10
 265 431 265 431 262 431 c 2,11,-1
 225 431 l 2,12,13
 212 431 212 431 200 440 c 2,14,-1
 128 496 l 2,0,1
211 -10 m 0,15,16
 139 -10 139 -10 99 34 c 128,-1,17
 59 78 59 78 59 159 c 2,18,-1
 59 354 l 2,19,20
 59 360 59 360 63 360 c 2,21,-1
 68 360 l 2,22,23
 86 360 86 360 98 346 c 128,-1,24
 110 332 110 332 110 308 c 2,25,-1
 110 156 l 2,26,27
 110 100 110 100 136 68 c 128,-1,28
 162 36 162 36 211 36 c 256,29,30
 260 36 260 36 287 64.5 c 128,-1,31
 314 93 314 93 314 153 c 2,32,-1
 314 354 l 2,33,34
 314 360 314 360 319 360 c 2,35,-1
 323 360 l 2,36,37
 341 360 341 360 352.5 346 c 128,-1,38
 364 332 364 332 364 308 c 2,39,-1
 364 156 l 2,40,41
 364 77 364 77 323 33.5 c 128,-1,42
 282 -10 282 -10 211 -10 c 0,15,16
EndSplineSet
EndChar

StartChar: uacute
Encoding: 250 250 183
Width: 423
GlyphClass: 1
Flags: W
LayerCount: 2
Fore
SplineSet
143 436 m 2,0,-1
 205 493 l 2,1,2
 210 498 210 498 214 500 c 128,-1,3
 218 502 218 502 226 502 c 2,4,-1
 276 502 l 2,5,6
 279 502 279 502 280 500 c 128,-1,7
 281 498 281 498 279 496 c 2,8,-1
 207 440 l 2,9,10
 195 431 195 431 182 431 c 2,11,-1
 146 431 l 2,12,13
 143 431 143 431 142 433 c 128,-1,14
 141 435 141 435 143 436 c 2,0,-1
211 -10 m 0,15,16
 139 -10 139 -10 99 34 c 128,-1,17
 59 78 59 78 59 159 c 2,18,-1
 59 354 l 2,19,20
 59 360 59 360 63 360 c 2,21,-1
 68 360 l 2,22,23
 86 360 86 360 98 346 c 128,-1,24
 110 332 110 332 110 308 c 2,25,-1
 110 156 l 2,26,27
 110 100 110 100 136 68 c 128,-1,28
 162 36 162 36 211 36 c 256,29,30
 260 36 260 36 287 64.5 c 128,-1,31
 314 93 314 93 314 153 c 2,32,-1
 314 354 l 2,33,34
 314 360 314 360 319 360 c 2,35,-1
 323 360 l 2,36,37
 341 360 341 360 352.5 346 c 128,-1,38
 364 332 364 332 364 308 c 2,39,-1
 364 156 l 2,40,41
 364 77 364 77 323 33.5 c 128,-1,42
 282 -10 282 -10 211 -10 c 0,15,16
EndSplineSet
EndChar

StartChar: ucircumflex
Encoding: 251 251 184
Width: 423
GlyphClass: 1
Flags: W
LayerCount: 2
Fore
SplineSet
205 475 m 1,0,-1
 167 440 l 2,1,2
 161 434 161 434 155.5 432.5 c 128,-1,3
 150 431 150 431 142 431 c 2,4,-1
 110 431 l 2,5,6
 107 431 107 431 105.5 433 c 128,-1,7
 104 435 104 435 107 436 c 2,8,-1
 169 493 l 2,9,10
 174 498 174 498 178 500 c 128,-1,11
 182 502 182 502 190 502 c 2,12,-1
 219 502 l 2,13,14
 227 502 227 502 231 500 c 128,-1,15
 235 498 235 498 240 493 c 2,16,-1
 302 436 l 2,17,18
 304 435 304 435 303 433 c 128,-1,19
 302 431 302 431 300 431 c 2,20,-1
 267 431 l 2,21,22
 260 431 260 431 254.5 432.5 c 128,-1,23
 249 434 249 434 242 440 c 2,24,-1
 205 475 l 1,0,-1
211 -10 m 0,25,26
 139 -10 139 -10 99 34 c 128,-1,27
 59 78 59 78 59 159 c 2,28,-1
 59 354 l 2,29,30
 59 360 59 360 63 360 c 2,31,-1
 68 360 l 2,32,33
 86 360 86 360 98 346 c 128,-1,34
 110 332 110 332 110 308 c 2,35,-1
 110 156 l 2,36,37
 110 100 110 100 136 68 c 128,-1,38
 162 36 162 36 211 36 c 256,39,40
 260 36 260 36 287 64.5 c 128,-1,41
 314 93 314 93 314 153 c 2,42,-1
 314 354 l 2,43,44
 314 360 314 360 319 360 c 2,45,-1
 323 360 l 2,46,47
 341 360 341 360 352.5 346 c 128,-1,48
 364 332 364 332 364 308 c 2,49,-1
 364 156 l 2,50,51
 364 77 364 77 323 33.5 c 128,-1,52
 282 -10 282 -10 211 -10 c 0,25,26
EndSplineSet
EndChar

StartChar: udieresis
Encoding: 252 252 185
Width: 423
GlyphClass: 1
Flags: W
LayerCount: 2
Fore
SplineSet
116 458 m 0,0,1
 116 472 116 472 126 482 c 128,-1,2
 136 492 136 492 149 492 c 0,3,4
 163 492 163 492 173 482 c 128,-1,5
 183 472 183 472 183 458 c 0,6,7
 183 445 183 445 173 435.5 c 128,-1,8
 163 426 163 426 149 426 c 0,9,10
 136 426 136 426 126 435.5 c 128,-1,11
 116 445 116 445 116 458 c 0,0,1
228 458 m 0,12,13
 228 472 228 472 238 482 c 128,-1,14
 248 492 248 492 261 492 c 0,15,16
 275 492 275 492 285 482 c 128,-1,17
 295 472 295 472 295 458 c 0,18,19
 295 445 295 445 285 435.5 c 128,-1,20
 275 426 275 426 261 426 c 0,21,22
 248 426 248 426 238 435.5 c 128,-1,23
 228 445 228 445 228 458 c 0,12,13
211 -10 m 0,24,25
 139 -10 139 -10 99 34 c 128,-1,26
 59 78 59 78 59 159 c 2,27,-1
 59 354 l 2,28,29
 59 360 59 360 63 360 c 2,30,-1
 68 360 l 2,31,32
 86 360 86 360 98 346 c 128,-1,33
 110 332 110 332 110 308 c 2,34,-1
 110 156 l 2,35,36
 110 100 110 100 136 68 c 128,-1,37
 162 36 162 36 211 36 c 256,38,39
 260 36 260 36 287 64.5 c 128,-1,40
 314 93 314 93 314 153 c 2,41,-1
 314 354 l 2,42,43
 314 360 314 360 319 360 c 2,44,-1
 323 360 l 2,45,46
 341 360 341 360 352.5 346 c 128,-1,47
 364 332 364 332 364 308 c 2,48,-1
 364 156 l 2,49,50
 364 77 364 77 323 33.5 c 128,-1,51
 282 -10 282 -10 211 -10 c 0,24,25
EndSplineSet
EndChar

StartChar: yacute
Encoding: 253 253 186
Width: 341
GlyphClass: 1
Flags: W
LayerCount: 2
Fore
SplineSet
112 436 m 2,0,-1
 174 493 l 2,1,2
 179 498 179 498 183 500 c 128,-1,3
 187 502 187 502 195 502 c 2,4,-1
 245 502 l 2,5,6
 248 502 248 502 249 500 c 128,-1,7
 250 498 250 498 248 496 c 2,8,-1
 176 440 l 2,9,10
 166 431 166 431 151 431 c 2,11,-1
 115 431 l 2,12,13
 112 431 112 431 111 433 c 128,-1,14
 110 435 110 435 112 436 c 2,0,-1
140 -5 m 1,15,-1
 18 354 l 2,16,17
 16 360 16 360 22 360 c 2,18,-1
 35 360 l 2,19,20
 51 360 51 360 63.5 351.5 c 128,-1,21
 76 343 76 343 83 320 c 2,22,-1
 165 63 l 1,23,-1
 258 350 l 2,24,25
 260 357 260 357 263 358.5 c 128,-1,26
 266 360 266 360 273 360 c 2,27,-1
 307 360 l 2,28,29
 313 360 313 360 311 354 c 2,30,-1
 180 -19 l 2,31,32
 154 -92 154 -92 129.5 -131.5 c 128,-1,33
 105 -171 105 -171 58 -171 c 0,34,35
 30 -171 30 -171 8.5 -151 c 128,-1,36
 -13 -131 -13 -131 -13 -106 c 0,37,38
 -13 -93 -13 -93 -4 -93 c 0,39,40
 -1 -93 -1 -93 1 -94.5 c 128,-1,41
 3 -96 3 -96 5 -98 c 0,42,43
 18 -111 18 -111 28.5 -117.5 c 128,-1,44
 39 -124 39 -124 55 -124 c 0,45,46
 72 -124 72 -124 84.5 -115 c 128,-1,47
 97 -106 97 -106 109.5 -80 c 128,-1,48
 122 -54 122 -54 140 -5 c 1,15,-1
EndSplineSet
EndChar

StartChar: thorn
Encoding: 254 254 187
Width: 454
GlyphClass: 1
Flags: W
LayerCount: 2
Fore
SplineSet
110 54 m 1,0,-1
 110 -154 l 2,1,2
 110 -160 110 -160 105 -160 c 2,3,-1
 65 -160 l 2,4,5
 60 -160 60 -160 60 -154 c 2,6,-1
 60 549 l 2,7,8
 60 556 60 556 65 556 c 2,9,-1
 70 556 l 2,10,11
 87 556 87 556 98.5 542 c 128,-1,12
 110 528 110 528 110 503 c 2,13,-1
 110 302 l 1,14,15
 130 332 130 332 163 349.5 c 128,-1,16
 196 367 196 367 241 367 c 0,17,18
 318 367 318 367 364.5 314.5 c 128,-1,19
 411 262 411 262 411 178 c 0,20,21
 411 126 411 126 390.5 83.5 c 128,-1,22
 370 41 370 41 332 16 c 128,-1,23
 294 -9 294 -9 242 -9 c 0,24,25
 201 -9 201 -9 166 6 c 128,-1,26
 131 21 131 21 110 54 c 1,0,-1
239 38 m 0,27,28
 270 38 270 38 297 53.5 c 128,-1,29
 324 69 324 69 341.5 100.5 c 128,-1,30
 359 132 359 132 359 178 c 0,31,32
 359 241 359 241 326 280.5 c 128,-1,33
 293 320 293 320 236 320 c 0,34,35
 207 320 207 320 178 307 c 128,-1,36
 149 294 149 294 129.5 263.5 c 128,-1,37
 110 233 110 233 110 178 c 0,38,39
 110 126 110 126 130 95.5 c 128,-1,40
 150 65 150 65 180 51.5 c 128,-1,41
 210 38 210 38 239 38 c 0,27,28
EndSplineSet
EndChar

StartChar: ydieresis
Encoding: 255 255 188
Width: 341
GlyphClass: 1
Flags: W
LayerCount: 2
Fore
SplineSet
82 458 m 0,0,1
 82 472 82 472 92 482 c 128,-1,2
 102 492 102 492 115 492 c 0,3,4
 129 492 129 492 139 482 c 128,-1,5
 149 472 149 472 149 458 c 0,6,7
 149 445 149 445 139 435.5 c 128,-1,8
 129 426 129 426 115 426 c 0,9,10
 102 426 102 426 92 435.5 c 128,-1,11
 82 445 82 445 82 458 c 0,0,1
194 458 m 0,12,13
 194 472 194 472 204 482 c 128,-1,14
 214 492 214 492 227 492 c 0,15,16
 241 492 241 492 251 482 c 128,-1,17
 261 472 261 472 261 458 c 0,18,19
 261 445 261 445 251 435.5 c 128,-1,20
 241 426 241 426 227 426 c 0,21,22
 214 426 214 426 204 435.5 c 128,-1,23
 194 445 194 445 194 458 c 0,12,13
140 -5 m 1,24,-1
 18 354 l 2,25,26
 16 360 16 360 22 360 c 2,27,-1
 35 360 l 2,28,29
 51 360 51 360 63.5 351.5 c 128,-1,30
 76 343 76 343 83 320 c 2,31,-1
 165 63 l 1,32,-1
 258 350 l 2,33,34
 260 357 260 357 263 358.5 c 128,-1,35
 266 360 266 360 273 360 c 2,36,-1
 307 360 l 2,37,38
 313 360 313 360 311 354 c 2,39,-1
 180 -19 l 2,40,41
 154 -92 154 -92 129.5 -131.5 c 128,-1,42
 105 -171 105 -171 58 -171 c 0,43,44
 30 -171 30 -171 8.5 -151 c 128,-1,45
 -13 -131 -13 -131 -13 -106 c 0,46,47
 -13 -93 -13 -93 -4 -93 c 0,48,49
 -1 -93 -1 -93 1 -94.5 c 128,-1,50
 3 -96 3 -96 5 -98 c 0,51,52
 18 -111 18 -111 28.5 -117.5 c 128,-1,53
 39 -124 39 -124 55 -124 c 0,54,55
 72 -124 72 -124 84.5 -115 c 128,-1,56
 97 -106 97 -106 109.5 -80 c 128,-1,57
 122 -54 122 -54 140 -5 c 1,24,-1
EndSplineSet
EndChar

StartChar: dotlessi
Encoding: 305 305 189
Width: 170
GlyphClass: 1
Flags: W
LayerCount: 2
Fore
SplineSet
65 0 m 2,0,1
 60 0 60 0 60 6 c 2,2,-1
 60 354 l 2,3,4
 60 360 60 360 65 360 c 2,5,-1
 69 360 l 2,6,7
 87 360 87 360 98 346 c 128,-1,8
 109 332 109 332 109 308 c 2,9,-1
 109 6 l 2,10,11
 109 0 109 0 104 0 c 2,12,-1
 65 0 l 2,0,1
EndSplineSet
EndChar

StartChar: Lslash
Encoding: 321 321 190
Width: 364
GlyphClass: 1
Flags: W
LayerCount: 2
Fore
SplineSet
126 47 m 1,0,-1
 314 47 l 2,1,2
 344 47 344 47 344 18 c 2,3,-1
 344 7 l 2,4,5
 344 0 344 0 336 0 c 2,6,-1
 81 0 l 2,7,8
 76 0 76 0 76 6 c 2,9,-1
 76 214 l 1,10,-1
 26 187 l 2,11,12
 20 184 20 184 20 190 c 2,13,-1
 20 228 l 2,14,15
 20 235 20 235 25 237 c 2,16,-1
 76 264 l 1,17,-1
 76 549 l 2,18,19
 76 556 76 556 81 556 c 2,20,-1
 86 556 l 2,21,22
 103 556 103 556 114.5 542 c 128,-1,23
 126 528 126 528 126 503 c 2,24,-1
 126 291 l 1,25,-1
 280 374 l 2,26,27
 286 377 286 377 286 371 c 2,28,-1
 286 333 l 2,29,30
 286 327 286 327 281 324 c 2,31,-1
 126 241 l 1,32,-1
 126 47 l 1,0,-1
EndSplineSet
EndChar

StartChar: lslash
Encoding: 322 322 191
Width: 232
GlyphClass: 1
Flags: W
LayerCount: 2
Fore
SplineSet
72 212 m 1,0,-1
 26 187 l 2,1,2
 20 184 20 184 20 190 c 2,3,-1
 20 228 l 2,4,5
 20 235 20 235 25 237 c 2,6,-1
 72 262 l 1,7,-1
 72 549 l 2,8,9
 72 556 72 556 77 556 c 2,10,-1
 82 556 l 2,11,12
 99 556 99 556 110.5 542 c 128,-1,13
 122 528 122 528 122 503 c 2,14,-1
 122 289 l 1,15,-1
 188 324 l 2,16,17
 194 327 194 327 194 321 c 2,18,-1
 194 283 l 2,19,20
 194 276 194 276 189 275 c 2,21,-1
 122 239 l 1,22,-1
 122 92 l 2,23,24
 122 41 122 41 162 41 c 0,25,26
 179 41 179 41 191 48.5 c 128,-1,27
 203 56 203 56 214 71 c 0,28,29
 219 77 219 77 222 77 c 0,30,31
 230 77 230 77 230 64 c 0,32,33
 230 52 230 52 222.5 35 c 128,-1,34
 215 18 215 18 198 4.5 c 128,-1,35
 181 -9 181 -9 153 -9 c 0,36,37
 116 -9 116 -9 94 14.5 c 128,-1,38
 72 38 72 38 72 90 c 2,39,-1
 72 212 l 1,0,-1
EndSplineSet
EndChar

